<?xml version="1.0" encoding="utf-8"?>
<!-- Generator: Adobe Illustrator 16.0.0, SVG Export Plug-In . SVG Version: 6.00 Build 0)  -->
<!DOCTYPE svg PUBLIC "-//W3C//DTD SVG 1.1//EN" "http://www.w3.org/Graphics/SVG/1.1/DTD/svg11.dtd">
<svg version="1.1" xmlns="http://www.w3.org/2000/svg" xmlns:xlink="http://www.w3.org/1999/xlink" x="0px" y="0px" width="360px"
	 height="360px" viewBox="0 0 360 360" enable-background="new 0 0 360 360" xml:space="preserve">
<g id="brown_background_for_context">
</g>
<g id="background_circles">
	<circle fill="#F27243" cx="180" cy="179.692" r="119.116"/>
</g>
<g id="white_imagery__x2B__text">
	<g>
		<rect x="100.218" y="109.656" fill="none" width="158.639" height="38.629"/>
		<path fill="#FFFFFF" d="M108.82,113.856v2.398h2.223v2.97h-2.223v8.031h-3.168v-8.031h-1.43v-2.97h1.43v-3.212
			c0-2.156,1.012-3.521,3.08-3.521c0.902,0,1.805,0.242,2.311,0.506v3.212c-0.418-0.176-0.857-0.33-1.387-0.33
			C109.173,112.91,108.82,113.218,108.82,113.856z"/>
		<path fill="#FFFFFF" d="M123.188,116.254v11.001h-3.168v-1.408c-0.771,0.946-1.871,1.562-3.301,1.562
			c-3.015,0-4.951-2.508-4.951-5.677c0-3.146,1.937-5.655,4.951-5.655c1.43,0,2.529,0.616,3.301,1.562v-1.386H123.188z
			 M119.997,121.733c0-1.364-1.013-2.596-2.464-2.596c-1.453,0-2.443,1.166-2.443,2.596c0,1.452,0.99,2.597,2.443,2.597
			C118.984,124.33,119.997,123.119,119.997,121.733z"/>
		<path fill="#FFFFFF" d="M132.119,116.012v3.652c-1.408-0.308-3.059,0-3.059,2.267v5.325h-3.169v-11.001h3.169v1.65
			C129.742,116.848,130.799,116.012,132.119,116.012z"/>
		<path fill="#FFFFFF" d="M150.688,120.655v6.601h-3.146v-5.875c0-1.474-0.748-2.398-1.87-2.398c-1.101,0-1.87,0.924-1.87,2.398
			v5.875h-3.146v-5.875c0-1.474-0.748-2.398-1.871-2.398c-1.1,0-1.848,0.924-1.848,2.398v5.875h-3.168v-11.001h3.168v1.408
			c0.704-0.924,1.782-1.628,3.146-1.628c1.387,0,2.53,0.682,3.19,1.98c0.771-1.167,2.003-1.98,3.652-1.98
			C149.191,116.034,150.688,117.685,150.688,120.655z"/>
		<path fill="#FFFFFF" d="M164.106,116.254v11.001h-3.169v-1.408c-0.77,0.946-1.87,1.562-3.301,1.562
			c-3.014,0-4.95-2.508-4.95-5.677c0-3.146,1.937-5.655,4.95-5.655c1.431,0,2.531,0.616,3.301,1.562v-1.386H164.106z
			 M160.916,121.733c0-1.364-1.012-2.596-2.465-2.596c-1.452,0-2.441,1.166-2.441,2.596c0,1.452,0.989,2.597,2.441,2.597
			C159.904,124.33,160.916,123.119,160.916,121.733z"/>
		<path fill="#FFFFFF" d="M166.238,121.755c0-3.102,2.267-5.699,5.721-5.699c1.453,0,2.42,0.352,3.256,0.88v3.388
			c-0.703-0.528-1.781-1.1-3.035-1.1c-1.606,0-2.729,1.122-2.729,2.53s1.122,2.531,2.729,2.531c1.254,0,2.332-0.572,3.035-1.101
			v3.389c-0.836,0.528-1.803,0.88-3.256,0.88C168.505,127.454,166.238,124.857,166.238,121.755z"/>
		<path fill="#FFFFFF" d="M187.668,122.767h-7.547c0.375,1.188,1.43,1.826,2.795,1.826c1.232,0,2.375-0.352,3.477-0.88l0.021,2.838
			c-0.945,0.528-2.244,0.88-3.74,0.88c-3.586,0-5.721-2.574-5.721-5.677c0-3.058,2.156-5.677,5.479-5.677
			C186.018,116.078,187.977,119.137,187.668,122.767z M180.121,120.787h4.467c-0.309-1.101-1.123-1.782-2.156-1.782
			C181.287,119.005,180.43,119.731,180.121,120.787z"/>
		<path fill="#FFFFFF" d="M199.725,116.254v11.001h-3.168v-1.32c-0.705,0.902-1.805,1.541-3.17,1.541
			c-2.111,0-3.74-1.584-3.74-4.555v-6.667h3.168v5.941c0,1.496,0.814,2.332,1.893,2.332c0.99,0,1.717-0.682,1.85-1.914v-6.359
			H199.725z"/>
		<path fill="#FFFFFF" d="M208.391,119.225h-2.199v8.031h-3.168v-8.031h-1.387v-2.97h1.387v-2.949h3.168v2.949h2.199V119.225z"/>
		<path fill="#FFFFFF" d="M210.041,112.58c0-1.1,0.879-1.98,1.98-1.98c1.143,0,2.002,0.88,2.002,1.98s-0.859,2.002-2.002,2.002
			C210.92,114.582,210.041,113.68,210.041,112.58z M210.459,116.254h3.168v11.001h-3.168V116.254z"/>
		<path fill="#FFFFFF" d="M216.178,121.755c0-3.102,2.268-5.699,5.721-5.699c1.453,0,2.422,0.352,3.258,0.88v3.388
			c-0.705-0.528-1.783-1.1-3.037-1.1c-1.605,0-2.729,1.122-2.729,2.53s1.123,2.531,2.729,2.531c1.254,0,2.332-0.572,3.037-1.101
			v3.389c-0.836,0.528-1.805,0.88-3.258,0.88C218.445,127.454,216.178,124.857,216.178,121.755z"/>
		<path fill="#FFFFFF" d="M238.289,116.254v11.001h-3.168v-1.408c-0.77,0.946-1.869,1.562-3.301,1.562
			c-3.014,0-4.949-2.508-4.949-5.677c0-3.146,1.936-5.655,4.949-5.655c1.432,0,2.531,0.616,3.301,1.562v-1.386H238.289z
			 M235.1,121.733c0-1.364-1.012-2.596-2.465-2.596c-1.451,0-2.441,1.166-2.441,2.596c0,1.452,0.99,2.597,2.441,2.597
			C234.088,124.33,235.1,123.119,235.1,121.733z"/>
		<path fill="#FFFFFF" d="M240.994,109.653h3.168v17.603h-3.168V109.653z"/>
		<path fill="#FFFFFF" d="M246.252,125.782l1.539-2.267c0.748,0.594,1.848,1.188,2.773,1.188c0.615,0,1.012-0.308,1.012-0.704
			c0-1.43-4.951-0.902-4.951-4.643c0-1.827,1.496-3.301,3.916-3.323c1.584,0,3.016,0.748,3.785,1.496l-1.496,2.245
			c-0.484-0.352-1.453-0.946-2.244-0.946c-0.551,0-0.924,0.264-0.924,0.66c0,1.364,5.039,0.88,5.016,4.643
			c0,1.892-1.65,3.323-4.137,3.323C249.068,127.454,247.307,126.772,246.252,125.782z"/>
	</g>
	<g>
		<rect x="101.143" y="217.03" fill="none" width="158.639" height="58.805"/>
		<path fill="#FFFFFF" d="M128.557,229.967h-8.406c0.33,1.738,1.695,2.838,3.587,2.838c1.452,0,2.574-0.462,3.63-1.188v2.091
			c-0.924,0.682-2.244,1.1-3.74,1.1c-3.498,0-5.61-2.596-5.61-5.677c0-3.058,2.156-5.655,5.391-5.655
			C126.84,223.475,128.798,226.49,128.557,229.967z M120.173,228.25h6.204c-0.307-1.606-1.43-2.707-3.014-2.707
			C121.691,225.543,120.503,226.666,120.173,228.25z"/>
		<path fill="#FFFFFF" d="M140.59,228.316v6.314h-2.068v-6.007c0-2.179-1.122-3.322-2.685-3.322c-1.54,0-2.685,1.144-2.685,3.322
			v6.007h-2.068v-11.002h2.068v1.541c0.639-1.035,1.805-1.761,3.322-1.761C138.631,223.409,140.59,225.037,140.59,228.316z"/>
		<path fill="#FFFFFF" d="M143.008,233.068l1.299-1.54c0.682,0.66,1.628,1.276,2.662,1.276c0.924,0,1.605-0.484,1.605-1.211
			c0-2.134-5.258-1.342-5.236-5.082c0-1.672,1.387-3.059,3.543-3.059c1.54-0.021,2.838,0.792,3.521,1.562l-1.21,1.518
			c-0.484-0.439-1.365-1.078-2.289-1.078c-0.836,0-1.43,0.44-1.43,1.101c-0.022,1.98,5.258,1.255,5.258,5.083
			c-0.021,1.805-1.539,3.168-3.828,3.168C145.517,234.807,143.91,234.08,143.008,233.068z"/>
		<path fill="#FFFFFF" d="M162.567,223.629v11.002h-2.068v-1.54c-0.638,1.034-1.804,1.761-3.322,1.761
			c-2.156,0-4.114-1.629-4.114-4.907v-6.315h2.068v6.008c0,2.178,1.121,3.322,2.684,3.322c1.541,0,2.685-1.145,2.685-3.322v-6.008
			H162.567z"/>
		<path fill="#FFFFFF" d="M171.081,223.409v2.442c-1.562-0.264-3.169,0.572-3.169,2.948l-0.021-0.088v5.919h-2.068v-11.002h2.068
			v1.893C168.484,224.399,169.606,223.409,171.081,223.409z"/>
		<path fill="#FFFFFF" d="M173.038,220.131c0-0.77,0.594-1.387,1.408-1.387c0.813,0,1.408,0.617,1.408,1.387
			c0,0.814-0.595,1.43-1.408,1.43C173.632,221.561,173.038,220.945,173.038,220.131z M173.412,223.629h2.068v11.002h-2.068V223.629z
			"/>
		<path fill="#FFFFFF" d="M188.637,228.316v6.314h-2.068v-6.007c0-2.179-1.122-3.322-2.685-3.322c-1.54,0-2.685,1.144-2.685,3.322
			v6.007h-2.068v-11.002h2.068v1.541c0.639-1.035,1.805-1.761,3.322-1.761C186.679,223.409,188.637,225.037,188.637,228.316z"/>
		<path fill="#FFFFFF" d="M201.902,234.169c0,3.366-2.618,5.017-5.236,5.017c-1.673,0-2.971-0.484-4.181-1.166l0.021-2.179
			c1.232,0.858,2.641,1.386,3.938,1.386c2.024,0,3.433-1.144,3.433-3.586v-0.836c-0.858,1.188-2.156,1.98-3.807,1.98
			c-3.059,0-5.148-2.486-5.148-5.655s2.09-5.655,5.148-5.655c1.628,0,2.927,0.771,3.763,1.938v-1.783h2.046L201.902,234.169z
			 M199.834,229.13c0-1.937-1.431-3.63-3.41-3.63c-1.98,0-3.367,1.628-3.367,3.63c0,2.024,1.387,3.653,3.367,3.653
			C198.403,232.783,199.834,231.066,199.834,229.13z"/>
		<path fill="#FFFFFF" d="M211.866,229.13c0-3.058,2.288-5.677,5.61-5.677c3.323,0,5.611,2.619,5.611,5.677
			c0,3.059-2.288,5.677-5.611,5.677C214.154,234.807,211.866,232.188,211.866,229.13z M220.953,229.107
			c0-1.936-1.364-3.586-3.477-3.586c-2.068,0-3.498,1.65-3.498,3.586c0,1.959,1.43,3.631,3.498,3.631
			C219.589,232.738,220.953,231.066,220.953,229.107z"/>
		<path fill="#FFFFFF" d="M235.012,223.629v11.002h-2.068v-1.54c-0.638,1.034-1.804,1.761-3.322,1.761
			c-2.156,0-4.114-1.629-4.114-4.907v-6.315h2.068v6.008c0,2.178,1.122,3.322,2.684,3.322c1.541,0,2.685-1.145,2.685-3.322v-6.008
			H235.012z"/>
		<path fill="#FFFFFF" d="M243.525,223.409v2.442c-1.562-0.264-3.168,0.572-3.168,2.948l-0.022-0.088v5.919h-2.068v-11.002h2.068
			v1.893C240.93,224.399,242.052,223.409,243.525,223.409z"/>
		<path fill="#FFFFFF" d="M160.06,251.316v6.314h-2.068v-6.007c0-2.179-1.122-3.322-2.685-3.322c-1.54,0-2.684,1.144-2.684,3.322
			l-0.022-0.088v6.095h-2.068v-17.603h2.068v8.163c0.638-1.034,1.804-1.782,3.345-1.782
			C158.102,246.409,160.06,248.037,160.06,251.316z"/>
		<path fill="#FFFFFF" d="M172.863,252.967h-8.404c0.33,1.738,1.693,2.838,3.586,2.838c1.452,0,2.574-0.462,3.631-1.188v2.091
			c-0.924,0.682-2.244,1.1-3.74,1.1c-3.499,0-5.611-2.596-5.611-5.677c0-3.058,2.156-5.655,5.391-5.655
			C171.147,246.475,173.105,249.49,172.863,252.967z M164.48,251.25h6.205c-0.309-1.606-1.431-2.707-3.015-2.707
			C165.998,248.543,164.811,249.666,164.48,251.25z"/>
		<path fill="#FFFFFF" d="M185.689,246.629v11.002h-2.068v-1.76c-0.858,1.144-2.135,1.914-3.763,1.914
			c-3.059,0-5.148-2.486-5.148-5.655s2.09-5.655,5.148-5.655c1.628,0,2.904,0.771,3.763,1.915v-1.761H185.689z M183.621,252.13
			c0-1.937-1.431-3.63-3.41-3.63c-1.98,0-3.367,1.628-3.367,3.63c0,2.024,1.387,3.653,3.367,3.653
			C182.19,255.783,183.621,254.066,183.621,252.13z"/>
		<path fill="#FFFFFF" d="M188.966,240.028h2.068v17.603h-2.068V240.028z"/>
		<path fill="#FFFFFF" d="M199.087,248.609h-2.267v9.021h-2.068v-9.021h-1.408v-1.98h1.408v-2.948h2.068v2.948h2.267V248.609z"/>
		<path fill="#FFFFFF" d="M210.571,251.316v6.314h-2.068v-6.007c0-2.179-1.122-3.322-2.684-3.322c-1.541,0-2.685,1.144-2.685,3.322
			l-0.022-0.088v6.095h-2.068v-17.603h2.068v8.163c0.639-1.034,1.805-1.782,3.345-1.782
			C208.613,246.409,210.571,248.037,210.571,251.316z"/>
	</g>
	<g>
		<g>
			<path fill="#FFFFFF" d="M184.595,203.712h18.015c0,0,10.637,0,10.637-12.197c0-11.773-9.928-11.773-9.928-11.773h-18.581
				L184.595,203.712z"/>
			<path fill="none" stroke="#FFFFFF" stroke-width="3" stroke-miterlimit="10" d="M166.441,203.923h36.311
				c0,0,10.638,0,10.638-12.196c0-11.774-9.931-11.774-9.931-11.774h-37.018c0,0-10.638,0-10.638,11.774
				C155.804,203.923,166.441,203.923,166.441,203.923z"/>
			
				<line fill="none" stroke="#F27243" stroke-width="3" stroke-linecap="round" stroke-miterlimit="10" x1="188.71" y1="199.384" x2="200.625" y2="199.384"/>
			
				<line fill="none" stroke="#F27243" stroke-width="3" stroke-linecap="round" stroke-miterlimit="10" x1="204.17" y1="199.384" x2="205.023" y2="199.384"/>
		</g>
		<g>
			<path fill="#FFFFFF" d="M178.633,175.898l12.43-13.039c0,0,7.342-7.701-1.49-16.116c-8.521-8.124-15.371-0.937-15.371-0.937
				l-12.82,13.449L178.633,175.898z"/>
			<path fill="#F27243" d="M162.114,158.535l-12.429,13.04c0,0-7.34,7.699,1.489,16.114c8.523,8.123,15.373,0.938,15.373,0.938
				l12.82-13.45L162.114,158.535z"/>
			<path fill="none" stroke="#FFFFFF" stroke-width="3" stroke-miterlimit="10" d="M166.262,189.187l25.052-26.284
				c0,0,7.339-7.699-1.489-16.116c-8.523-8.124-15.374-0.935-15.374-0.935l-25.54,26.796c0,0-7.34,7.7,1.183,15.823
				C158.922,196.887,166.262,189.187,166.262,189.187z"/>
			
				<line fill="none" stroke="#F27243" stroke-width="3" stroke-linecap="round" stroke-miterlimit="10" x1="178.342" y1="169.936" x2="186.561" y2="161.311"/>
			
				<line fill="none" stroke="#F27243" stroke-width="3" stroke-linecap="round" stroke-miterlimit="10" x1="189.322" y1="158.413" x2="189.739" y2="157.977"/>
		</g>
	</g>
</g>
</svg>
