<?xml version="1.0" encoding="utf-8"?>
<!-- Generator: Adobe Illustrator 16.0.0, SVG Export Plug-In . SVG Version: 6.00 Build 0)  -->
<!DOCTYPE svg PUBLIC "-//W3C//DTD SVG 1.1//EN" "http://www.w3.org/Graphics/SVG/1.1/DTD/svg11.dtd">
<svg version="1.1" xmlns="http://www.w3.org/2000/svg" xmlns:xlink="http://www.w3.org/1999/xlink" x="0px" y="0px" width="360px"
	 height="360px" viewBox="0 0 360 360" enable-background="new 0 0 360 360" xml:space="preserve">
<g id="brown_background_for_context">
</g>
<g id="background_circles">
	<circle fill="#3DAAA1" cx="180" cy="180.053" r="119.116"/>
</g>
<g id="white_imagery__x2B__text">
	<g>
		<path fill="none" stroke="#FFFFFF" stroke-miterlimit="10" d="M244.394,192.189l-8.906-2.729l-8.16-20.742l-4.081-22.794h10.263
			C238.143,153.622,247.18,166.696,244.394,192.189z"/>
		<circle fill="none" stroke="#FFFFFF" stroke-width="4" stroke-miterlimit="10" cx="181.001" cy="182.686" r="64.095"/>
		<path fill="none" stroke="#FFFFFF" stroke-miterlimit="10" d="M153.387,124.829l3.215,7.846l-15.642,19.042l-17.342,15.301
			l-3.752-3.634C121.238,152.028,138.231,130.444,153.387,124.829z"/>
		<path fill="none" stroke="#FFFFFF" stroke-miterlimit="10" d="M200.62,121.654v7.28l-19.619,6.801l-24.399-3.061l-3.215-7.846
			C159.321,118.054,188.713,116.437,200.62,121.654z"/>
		<path fill="none" stroke="#FFFFFF" stroke-miterlimit="10" d="M233.509,145.924h-10.263l-22.626-16.989v-7.28
			C217.064,126.128,224.05,136.05,233.509,145.924z"/>
		<path fill="none" stroke="#FFFFFF" stroke-miterlimit="10" d="M218.424,234.724l2.782-24.522l14.281-20.741l8.906,2.729
			C244.668,203.741,231.055,227.637,218.424,234.724z"/>
		<path fill="#FFFFFF" d="M193.127,245.631l-19.864-10.907l3.741-22.632l25.161-13.111l19.041,11.221l-2.782,24.522
			C216.321,236.179,205.253,244.479,193.127,245.631z"/>
		<path fill="none" stroke="#FFFFFF" stroke-miterlimit="10" d="M143.579,234.724l1.801-4.121l27.883,4.121l19.864,10.907
			C185.163,248.964,157.452,246.781,143.579,234.724z"/>
		<path fill="none" stroke="#FFFFFF" stroke-miterlimit="10" d="M118.128,195.185l3.11-2.995l15.302,15.292l8.84,23.121
			l-1.801,4.121C134.77,229.387,118.314,207.481,118.128,195.185z"/>
		<path fill="none" stroke="#FFFFFF" stroke-miterlimit="10" d="M123.618,167.018l-2.38,25.172L123.618,167.018z"/>
		<polygon fill="#FFFFFF" points="140.96,151.717 156.602,169.057 153.387,196.26 136.54,207.481 121.238,192.189 123.618,167.018 
					"/>
		<polygon fill="none" stroke="#FFFFFF" stroke-miterlimit="10" points="181.001,156.137 156.602,169.057 140.96,151.717 
			156.602,132.675 181.001,135.735 		"/>
		<polygon fill="#FFFFFF" points="205.226,173.139 181.001,156.137 181.001,135.735 200.62,128.935 223.246,145.924 
			227.327,168.718 		"/>
		<polygon fill="none" stroke="#FFFFFF" stroke-miterlimit="10" points="202.165,198.98 205.226,173.139 227.327,168.718 
			235.487,189.46 221.206,210.201 		"/>
		<polygon fill="none" stroke="#FFFFFF" stroke-miterlimit="10" points="153.387,196.26 177.004,212.092 173.263,234.724 
			145.38,230.603 136.54,207.481 		"/>
	</g>
</g>
</svg>
