<?xml version="1.0" encoding="utf-8"?>
<!-- Generator: Adobe Illustrator 16.0.0, SVG Export Plug-In . SVG Version: 6.00 Build 0)  -->
<!DOCTYPE svg PUBLIC "-//W3C//DTD SVG 1.1//EN" "http://www.w3.org/Graphics/SVG/1.1/DTD/svg11.dtd">
<svg version="1.1" xmlns="http://www.w3.org/2000/svg" xmlns:xlink="http://www.w3.org/1999/xlink" x="0px" y="0px" width="360px"
	 height="360px" viewBox="0 0 360 360" enable-background="new 0 0 360 360" xml:space="preserve">
<g id="brown_background_for_context">
</g>
<g id="background_circles">
	<circle fill="#EC6A7C" cx="177.883" cy="180" r="119.117"/>
</g>
<g id="white_imagery__x2B__text">
	<g>
		<path fill="none" stroke="#FFFFFF" stroke-width="3" stroke-miterlimit="10" d="M170.808,138.111
			c6.959,0,32.539,9.968,33.104,31.598c6.959,3.197,11.096,14.672-4.703,17.869c-3.949,7.523-31.368,18.412-44.843,11.246
			C138.507,189.922,139.021,141.685,170.808,138.111z"/>
		<path fill="#FFFFFF" d="M161.027,160.869c-2.257-4.326-3.95-14.67,1.128-15.799C165.917,144.882,164.977,153.723,161.027,160.869z
			"/>
		<path fill="#FFFFFF" d="M164.535,162.871c0.066-2.633,1.947-14.67,7.213-12.037C174.186,152.125,172.369,156.853,164.535,162.871z
			"/>
		<path fill="#FFFFFF" d="M165.536,166.512c3.263-2.445,8.222-9.817,9.305-3.521C174.464,166.375,175.626,171.214,165.536,166.512z"
			/>
		<path fill="#FFFFFF" d="M164.286,170.562c4.89,1.277,9.121,1.992,5.903,10.439C168.023,185.221,165.558,181.205,164.286,170.562z"
			/>
		<path fill="#FFFFFF" d="M161.239,175.635c-0.817,3.918-6.229,16.43,1.196,14.891C166.065,189.566,165.134,181.846,161.239,175.635
			z"/>
		<path fill="#FFFFFF" d="M158.021,176.365c-2.974,1.316-9.543,6.779-6.548,12.602C153.731,191.787,157.234,188.59,158.021,176.365z
			"/>
		<path fill="#FFFFFF" d="M158.837,170.273c-4.016-2.258-10.035-4.854-10.035,2.822C148.802,177.826,152.24,180.379,158.837,170.273
			z"/>
		<path fill="#FFFFFF" d="M160.201,165.947c-0.49-4.702-2.637-11.283-6.382-8.652C151.735,158.916,148.296,163.502,160.201,165.947z
			"/>
	</g>
	<g>
		<rect x="97.139" y="96.481" fill="none" width="158.639" height="38.63"/>
		<path fill="#FFFFFF" d="M146.614,103.36v3.924h3.636v4.859h-3.636v13.138h-5.183v-13.138h-2.34v-4.859h2.34v-5.255
			c0-3.528,1.656-5.759,5.039-5.759c1.476,0,2.952,0.396,3.78,0.828v5.255c-0.684-0.288-1.404-0.54-2.268-0.54
			C147.19,101.812,146.614,102.316,146.614,103.36z"/>
		<path fill="#FFFFFF" d="M151.475,116.282c0-5.075,3.815-9.359,9.287-9.359c5.507,0,9.323,4.284,9.323,9.359
			c0,5.04-3.815,9.359-9.323,9.359C155.291,125.641,151.475,121.322,151.475,116.282z M164.793,116.247
			c0-2.232-1.584-4.14-4.032-4.14c-2.375,0-3.995,1.908-3.995,4.14c0,2.268,1.62,4.211,3.995,4.211
			C163.209,120.458,164.793,118.55,164.793,116.247z"/>
		<path fill="#FFFFFF" d="M172.679,116.282c0-5.075,3.815-9.359,9.287-9.359c5.507,0,9.322,4.284,9.322,9.359
			c0,5.04-3.815,9.359-9.322,9.359C176.494,125.641,172.679,121.322,172.679,116.282z M185.997,116.247
			c0-2.232-1.584-4.14-4.031-4.14c-2.376,0-3.996,1.908-3.996,4.14c0,2.268,1.62,4.211,3.996,4.211
			C184.413,120.458,185.997,118.55,185.997,116.247z"/>
		<path fill="#FFFFFF" d="M212.492,96.485v28.796h-5.184v-2.268c-1.26,1.512-3.06,2.52-5.363,2.52c-4.931,0-8.099-4.104-8.099-9.287
			c0-5.147,3.168-9.251,8.099-9.251c2.304,0,4.104,1.008,5.363,2.52v-13.03H212.492z M207.309,116.247
			c0-2.232-1.655-4.248-4.031-4.248c-2.375,0-3.995,1.908-3.995,4.248c0,2.375,1.62,4.247,3.995,4.247
			C205.653,120.494,207.309,118.514,207.309,116.247z"/>
	</g>
	<g>
		<rect x="98.064" y="212.855" fill="none" width="158.638" height="58.805"/>
		<path fill="#FFFFFF" d="M116.182,224.141v6.315h-2.068v-6.007c0-2.178-1.122-3.322-2.685-3.322c-1.54,0-2.685,1.145-2.685,3.322
			v6.007h-2.068v-11.001h2.068v1.539c0.638-1.033,1.805-1.76,3.323-1.76C114.224,219.234,116.182,220.863,116.182,224.141z"/>
		<path fill="#FFFFFF" d="M118.469,224.955c0-3.059,2.288-5.677,5.611-5.677c3.322,0,5.611,2.618,5.611,5.677
			s-2.289,5.677-5.611,5.677C120.757,230.632,118.469,228.014,118.469,224.955z M127.556,224.934c0-1.937-1.364-3.587-3.477-3.587
			c-2.068,0-3.499,1.65-3.499,3.587c0,1.958,1.43,3.631,3.499,3.631C126.192,228.564,127.556,226.892,127.556,224.934z"/>
		<path fill="#FFFFFF" d="M141.614,219.455v11.001h-2.068v-1.54c-0.638,1.034-1.804,1.76-3.322,1.76
			c-2.156,0-4.115-1.628-4.115-4.906v-6.314h2.068v6.006c0,2.179,1.122,3.322,2.685,3.322c1.54,0,2.684-1.144,2.684-3.322v-6.006
			H141.614z"/>
		<path fill="#FFFFFF" d="M150.127,219.234v2.442c-1.562-0.265-3.168,0.572-3.168,2.948l-0.022-0.088v5.919h-2.068v-11.001h2.068
			v1.892C147.531,220.225,148.653,219.234,150.127,219.234z"/>
		<path fill="#FFFFFF" d="M152.084,215.956c0-0.771,0.594-1.386,1.408-1.386c0.814,0,1.408,0.615,1.408,1.386
			c0,0.813-0.594,1.431-1.408,1.431C152.678,217.387,152.084,216.77,152.084,215.956z M152.458,219.455h2.068v11.001h-2.068V219.455
			z"/>
		<path fill="#FFFFFF" d="M157.43,228.895l1.298-1.541c0.682,0.66,1.628,1.276,2.663,1.276c0.924,0,1.606-0.484,1.606-1.21
			c0-2.135-5.259-1.342-5.237-5.083c0-1.673,1.386-3.059,3.542-3.059c1.541-0.022,2.839,0.792,3.521,1.562l-1.21,1.519
			c-0.484-0.44-1.364-1.078-2.288-1.078c-0.836,0-1.431,0.439-1.431,1.1c-0.022,1.98,5.259,1.254,5.259,5.083
			c-0.022,1.804-1.54,3.168-3.828,3.168C159.938,230.632,158.332,229.906,157.43,228.895z"/>
		<path fill="#FFFFFF" d="M177.166,224.141v6.315h-2.068v-6.007c0-2.178-1.122-3.322-2.685-3.322c-1.54,0-2.684,1.145-2.684,3.322
			l-0.022-0.088v6.095h-2.068v-17.603h2.068v8.163c0.638-1.034,1.804-1.782,3.344-1.782
			C175.208,219.234,177.166,220.863,177.166,224.141z"/>
		<path fill="#FFFFFF" d="M180.244,215.956c0-0.771,0.595-1.386,1.409-1.386c0.814,0,1.408,0.615,1.408,1.386
			c0,0.813-0.594,1.431-1.408,1.431C180.838,217.387,180.244,216.77,180.244,215.956z M180.618,219.455h2.068v11.001h-2.068V219.455
			z"/>
		<path fill="#FFFFFF" d="M195.844,224.141v6.315h-2.068v-6.007c0-2.178-1.123-3.322-2.686-3.322c-1.539,0-2.684,1.145-2.684,3.322
			v6.007h-2.068v-11.001h2.068v1.539c0.639-1.033,1.805-1.76,3.322-1.76C193.885,219.234,195.844,220.863,195.844,224.141z"/>
		<path fill="#FFFFFF" d="M209.109,229.994c0,3.366-2.619,5.017-5.236,5.017c-1.674,0-2.971-0.483-4.182-1.166l0.021-2.179
			c1.232,0.858,2.641,1.387,3.939,1.387c2.023,0,3.432-1.145,3.432-3.587v-0.836c-0.857,1.188-2.156,1.979-3.807,1.979
			c-3.059,0-5.148-2.486-5.148-5.654s2.09-5.654,5.148-5.654c1.629,0,2.928,0.77,3.764,1.936v-1.781h2.045L209.109,229.994z
			 M207.041,224.955c0-1.936-1.432-3.631-3.41-3.631c-1.98,0-3.367,1.629-3.367,3.631c0,2.024,1.387,3.652,3.367,3.652
			C205.609,228.607,207.041,226.892,207.041,224.955z"/>
		<path fill="#FFFFFF" d="M224.529,221.435h-2.266v9.021h-2.068v-9.021h-1.408v-1.979h1.408v-2.949h2.068v2.949h2.266V221.435z"/>
		<path fill="#FFFFFF" d="M236.014,224.141v6.315h-2.068v-6.007c0-2.178-1.121-3.322-2.684-3.322c-1.541,0-2.684,1.145-2.684,3.322
			l-0.023-0.088v6.095h-2.068v-17.603h2.068v8.163c0.639-1.034,1.805-1.782,3.346-1.782
			C234.057,219.234,236.014,220.863,236.014,224.141z"/>
		<path fill="#FFFFFF" d="M248.818,225.791h-8.406c0.33,1.738,1.695,2.839,3.588,2.839c1.451,0,2.574-0.462,3.631-1.188v2.09
			c-0.926,0.683-2.246,1.101-3.742,1.101c-3.498,0-5.609-2.597-5.609-5.677c0-3.059,2.156-5.654,5.391-5.654
			C247.102,219.301,249.061,222.314,248.818,225.791z M240.436,224.075h6.205c-0.309-1.606-1.432-2.706-3.016-2.706
			C241.953,221.369,240.766,222.49,240.436,224.075z"/>
		<path fill="#FFFFFF" d="M124.707,247.955c0,3.168-2.09,5.654-5.149,5.654c-1.628,0-2.926-0.791-3.784-1.957v1.804h-2.068v-17.603
			h2.068v8.383c0.858-1.144,2.156-1.936,3.784-1.936C122.617,242.301,124.707,244.787,124.707,247.955z M122.573,247.955
			c0-2.023-1.386-3.652-3.367-3.652c-1.98,0-3.41,1.717-3.41,3.652c0,1.937,1.43,3.631,3.41,3.631
			C121.187,251.586,122.573,249.957,122.573,247.955z"/>
		<path fill="#FFFFFF" d="M126.597,247.955c0-3.059,2.288-5.677,5.611-5.677c3.322,0,5.611,2.618,5.611,5.677
			s-2.289,5.677-5.611,5.677C128.885,253.632,126.597,251.014,126.597,247.955z M135.684,247.934c0-1.937-1.364-3.587-3.476-3.587
			c-2.068,0-3.499,1.65-3.499,3.587c0,1.958,1.43,3.631,3.499,3.631C134.32,251.564,135.684,249.892,135.684,247.934z"/>
		<path fill="#FFFFFF" d="M150.688,235.854v17.603h-2.068v-1.761c-0.858,1.145-2.134,1.914-3.763,1.914
			c-3.058,0-5.148-2.486-5.148-5.654s2.09-5.654,5.148-5.654c1.628,0,2.905,0.77,3.763,1.914v-8.361H150.688z M148.62,247.955
			c0-1.936-1.43-3.631-3.411-3.631c-1.98,0-3.366,1.629-3.366,3.631c0,2.024,1.386,3.652,3.366,3.652
			C147.19,251.607,148.62,249.892,148.62,247.955z"/>
		<path fill="#FFFFFF" d="M163.382,242.455l-6.447,15.401h-2.112l1.936-4.488l-4.576-10.913h2.244l3.366,8.58l3.345-8.58H163.382z"
			/>
		<path fill="#FFFFFF" d="M181.07,253.456c-0.352-0.44-0.705-0.858-1.079-1.298c-0.968,0.945-2.222,1.54-3.784,1.54
			c-2.662,0-4.907-1.606-4.907-4.202c0-2.156,1.365-3.323,2.861-4.247c-0.902-1.078-1.915-2.376-1.915-3.784
			c0-1.673,1.232-3.697,3.917-3.697c2.509,0,3.828,1.914,3.828,3.697c0,2.002-1.452,3.146-2.992,4.137
			c0.727,0.857,1.694,2.046,2.751,3.322c0.33-0.881,0.483-1.937,0.483-3.146h2.002c0.021,1.738-0.352,3.454-1.1,4.84l2.311,2.839
			H181.07z M178.738,250.662c-1.166-1.365-2.332-2.729-3.41-4.005c-1.057,0.726-1.893,1.519-1.893,2.662
			c0,1.474,1.342,2.376,2.795,2.376C177.264,251.695,178.1,251.322,178.738,250.662z M175.856,244.236
			c1.166-0.703,2.09-1.451,2.09-2.684c0-0.924-0.66-1.783-1.782-1.783c-1.034,0-1.805,0.859-1.805,1.805
			C174.359,242.521,175.152,243.423,175.856,244.236z"/>
		<path fill="#FFFFFF" d="M209.121,247.053l-0.023,6.403h-2.068v-6.051c0-1.98-0.99-3.257-2.551-3.257
			c-1.586,0-2.574,1.276-2.574,3.322v5.985h-2.068v-6.051c0-1.98-1.014-3.257-2.576-3.257c-1.561,0-2.551,1.276-2.551,3.322
			l-0.023-0.065v6.051h-2.068v-11.001h2.068v1.496c0.617-0.969,1.717-1.717,3.213-1.717c1.43,0,2.773,0.748,3.477,2.223
			c0.682-1.211,1.914-2.223,3.697-2.223C207.338,242.234,209.121,243.863,209.121,247.053z"/>
		<path fill="#FFFFFF" d="M212.197,238.956c0-0.771,0.596-1.386,1.408-1.386c0.814,0,1.408,0.615,1.408,1.386
			c0,0.813-0.594,1.431-1.408,1.431C212.793,240.387,212.197,239.77,212.197,238.956z M212.572,242.455h2.068v11.001h-2.068V242.455
			z"/>
		<path fill="#FFFFFF" d="M227.797,247.141v6.315h-2.068v-6.007c0-2.178-1.121-3.322-2.684-3.322c-1.541,0-2.686,1.145-2.686,3.322
			v6.007h-2.068v-11.001h2.068v1.539c0.639-1.033,1.805-1.76,3.322-1.76C225.84,242.234,227.797,243.863,227.797,247.141z"/>
		<path fill="#FFFFFF" d="M241.064,235.854v17.603h-2.068v-1.761c-0.859,1.145-2.135,1.914-3.764,1.914
			c-3.059,0-5.148-2.486-5.148-5.654s2.09-5.654,5.148-5.654c1.629,0,2.904,0.77,3.764,1.914v-8.361H241.064z M238.996,247.955
			c0-1.936-1.432-3.631-3.41-3.631c-1.98,0-3.367,1.629-3.367,3.631c0,2.024,1.387,3.652,3.367,3.652
			C237.564,251.607,238.996,249.892,238.996,247.955z"/>
	</g>
</g>
</svg>
