<?xml version="1.0" encoding="utf-8"?>
<!-- Generator: Adobe Illustrator 16.0.0, SVG Export Plug-In . SVG Version: 6.00 Build 0)  -->
<!DOCTYPE svg PUBLIC "-//W3C//DTD SVG 1.1//EN" "http://www.w3.org/Graphics/SVG/1.1/DTD/svg11.dtd">
<svg version="1.1" xmlns="http://www.w3.org/2000/svg" xmlns:xlink="http://www.w3.org/1999/xlink" x="0px" y="0px" width="360px"
	 height="360px" viewBox="0 0 360 360" enable-background="new 0 0 360 360" xml:space="preserve">
<g id="brown_background_for_context">
</g>
<g id="background_circles">
	<circle fill="#3DAAA1" cx="179.192" cy="180" r="119.116"/>
</g>
<g id="white_imagery__x2B__text">
	<g>
		<path fill="none" stroke="#FFFFFF" stroke-miterlimit="10" d="M161.573,194.756l0.867-1.984l13.426,1.984l9.565,5.252
			C181.598,201.613,168.254,200.562,161.573,194.756z"/>
		<circle fill="none" stroke="#FFFFFF" stroke-width="2" stroke-miterlimit="10" cx="179.593" cy="169.699" r="30.863"/>
		<path fill="none" stroke="#FFFFFF" stroke-miterlimit="10" d="M166.296,141.839l1.548,3.778l-7.531,9.169l-8.351,7.368
			l-1.807-1.75C150.815,154.936,158.998,144.543,166.296,141.839z"/>
		<path fill="none" stroke="#FFFFFF" stroke-miterlimit="10" d="M189.04,140.31v3.506l-9.447,3.275l-11.749-1.474l-1.548-3.778
			C169.153,138.577,183.307,137.797,189.04,140.31z"/>
		<path fill="none" stroke="#FFFFFF" stroke-miterlimit="10" d="M204.877,151.997h-4.941l-10.896-8.181v-3.506
			C196.959,142.464,200.322,147.242,204.877,151.997z"/>
		<path fill="none" stroke="#FFFFFF" stroke-miterlimit="10" d="M210.118,174.274l-4.288-1.314l-3.93-9.987l-1.965-10.976h4.941
			C207.107,155.703,211.46,161.999,210.118,174.274z"/>
		<path fill="none" stroke="#FFFFFF" stroke-miterlimit="10" d="M197.613,194.756l1.34-11.808l6.877-9.988l4.288,1.314
			C210.25,179.837,203.695,191.344,197.613,194.756z"/>
		<path fill="#FFFFFF" d="M185.432,200.008l-9.565-5.252l1.802-10.897l12.116-6.313l9.169,5.403l-1.34,11.808
			C196.601,195.457,191.271,199.454,185.432,200.008z"/>
		<path fill="none" stroke="#FFFFFF" stroke-miterlimit="10" d="M149.318,175.717l1.497-1.442l7.368,7.363l4.257,11.134
			l-0.867,1.984C157.331,192.187,149.408,181.638,149.318,175.717z"/>
		<path fill="none" stroke="#FFFFFF" stroke-miterlimit="10" d="M151.962,162.154l-1.146,12.121L151.962,162.154z"/>
		<polygon fill="#FFFFFF" points="160.312,154.786 167.844,163.136 166.296,176.235 158.184,181.638 150.815,174.274 
			151.962,162.154 		"/>
		<polygon fill="none" stroke="#FFFFFF" stroke-miterlimit="10" points="179.593,156.915 167.844,163.136 160.312,154.786 
			167.844,145.617 179.593,147.091 		"/>
		<polygon fill="#FFFFFF" points="191.258,165.101 179.593,156.915 179.593,147.091 189.04,143.816 199.936,151.997 201.9,162.973 
					"/>
		<polygon fill="none" stroke="#FFFFFF" stroke-miterlimit="10" points="189.784,177.545 191.258,165.101 201.9,162.973 
			205.83,172.96 198.953,182.948 		"/>
		<polygon fill="none" stroke="#FFFFFF" stroke-miterlimit="10" points="166.296,176.235 177.668,183.858 175.866,194.756 
			162.44,192.771 158.184,181.638 		"/>
	</g>
	<g>
		<rect x="100.411" y="94.137" fill="none" width="158.638" height="38.629"/>
		<path fill="#FFFFFF" d="M161.154,101.016v3.924h3.635v4.859h-3.635v13.138h-5.184v-13.138h-2.34v-4.859h2.34v-5.255
			c0-3.528,1.656-5.759,5.039-5.759c1.477,0,2.951,0.396,3.779,0.828v5.255c-0.684-0.288-1.403-0.54-2.268-0.54
			C161.73,99.468,161.154,99.972,161.154,101.016z"/>
		<path fill="#FFFFFF" d="M183.761,104.939v17.998h-5.184v-2.16c-1.152,1.476-2.952,2.52-5.184,2.52
			c-3.456,0-6.119-2.592-6.119-7.451v-10.906h5.184v9.719c0,2.448,1.332,3.815,3.096,3.815c1.619,0,2.808-1.116,3.023-3.132v-10.402
			H183.761z"/>
		<path fill="#FFFFFF" d="M204.712,112.03v10.907h-5.184v-9.719c0-2.448-1.332-3.815-3.096-3.815c-1.619,0-2.808,1.116-3.023,3.131
			v10.403h-5.184v-17.998h5.184v2.16c1.152-1.476,2.952-2.52,5.184-2.52C202.048,104.579,204.712,107.171,204.712,112.03z"/>
	</g>
	<g>
		<rect x="101.336" y="210.512" fill="none" width="158.639" height="58.804"/>
		<path fill="#FFFFFF" d="M145.392,222.611c0,3.168-2.091,5.654-5.149,5.654c-1.627,0-2.904-0.77-3.762-1.914v6.16h-2.068V217.11
			h2.068v1.761c0.857-1.145,2.135-1.915,3.762-1.915C143.301,216.956,145.392,219.442,145.392,222.611z M143.258,222.611
			c0-2.024-1.387-3.652-3.367-3.652s-3.41,1.716-3.41,3.652c0,1.936,1.43,3.631,3.41,3.631S143.258,224.613,143.258,222.611z"/>
		<path fill="#FFFFFF" d="M153.244,216.891v2.441c-1.562-0.264-3.168,0.572-3.168,2.949l-0.021-0.088v5.918h-2.068V217.11h2.068
			v1.892C150.648,217.881,151.77,216.891,153.244,216.891z"/>
		<path fill="#FFFFFF" d="M154.08,222.611c0-3.059,2.287-5.678,5.61-5.678c3.322,0,5.61,2.619,5.61,5.678s-2.288,5.676-5.61,5.676
			C156.367,228.287,154.08,225.67,154.08,222.611z M163.166,222.589c0-1.937-1.363-3.587-3.476-3.587
			c-2.068,0-3.499,1.65-3.499,3.587c0,1.958,1.431,3.631,3.499,3.631C161.803,226.22,163.166,224.547,163.166,222.589z"/>
		<path fill="#FFFFFF" d="M176.895,217.11l-4.818,11.046h-1.32l-4.861-11.046h2.244l3.277,7.987l3.257-7.987H176.895z"/>
		<path fill="#FFFFFF" d="M178.389,213.611c0-0.77,0.596-1.386,1.408-1.386c0.814,0,1.408,0.616,1.408,1.386
			c0,0.814-0.594,1.431-1.408,1.431C178.984,215.042,178.389,214.426,178.389,213.611z M178.764,217.11h2.068v11.001h-2.068V217.11z
			"/>
		<path fill="#FFFFFF" d="M194.781,210.51v17.602h-2.068v-1.76c-0.859,1.145-2.135,1.914-3.764,1.914
			c-3.059,0-5.148-2.486-5.148-5.654c0-3.169,2.09-5.655,5.148-5.655c1.629,0,2.904,0.771,3.764,1.915v-8.361H194.781z
			 M192.713,222.611c0-1.937-1.432-3.631-3.41-3.631c-1.98,0-3.367,1.629-3.367,3.631c0,2.023,1.387,3.652,3.367,3.652
			C191.281,226.264,192.713,224.547,192.713,222.611z"/>
		<path fill="#FFFFFF" d="M198.035,213.611c0-0.77,0.594-1.386,1.408-1.386s1.408,0.616,1.408,1.386
			c0,0.814-0.594,1.431-1.408,1.431S198.035,214.426,198.035,213.611z M198.408,217.11h2.068v11.001h-2.068V217.11z"/>
		<path fill="#FFFFFF" d="M213.635,221.797v6.314h-2.068v-6.006c0-2.179-1.123-3.322-2.686-3.322c-1.539,0-2.684,1.144-2.684,3.322
			v6.006h-2.068V217.11h2.068v1.54c0.639-1.034,1.805-1.76,3.322-1.76C211.676,216.891,213.635,218.519,213.635,221.797z"/>
		<path fill="#FFFFFF" d="M226.9,227.65c0,3.365-2.617,5.016-5.236,5.016c-1.672,0-2.971-0.483-4.18-1.166l0.021-2.178
			c1.232,0.857,2.641,1.386,3.938,1.386c2.025,0,3.434-1.144,3.434-3.587v-0.836c-0.859,1.188-2.156,1.98-3.807,1.98
			c-3.059,0-5.148-2.486-5.148-5.654c0-3.169,2.09-5.655,5.148-5.655c1.627,0,2.926,0.771,3.762,1.937v-1.782h2.047L226.9,227.65z
			 M224.832,222.611c0-1.937-1.43-3.631-3.41-3.631s-3.367,1.629-3.367,3.631c0,2.023,1.387,3.652,3.367,3.652
			S224.832,224.547,224.832,222.611z"/>
		<path fill="#FFFFFF" d="M112.73,249.55l1.299-1.54c0.682,0.66,1.629,1.275,2.662,1.275c0.924,0,1.606-0.484,1.606-1.21
			c0-2.134-5.259-1.342-5.237-5.083c0-1.672,1.387-3.059,3.543-3.059c1.541-0.021,2.839,0.793,3.521,1.562l-1.211,1.519
			c-0.484-0.44-1.364-1.078-2.288-1.078c-0.837,0-1.431,0.44-1.431,1.101c-0.021,1.98,5.259,1.254,5.259,5.082
			c-0.022,1.805-1.54,3.168-3.828,3.168C115.24,251.287,113.633,250.562,112.73,249.55z"/>
		<path fill="#FFFFFF" d="M133.919,245.611c0,3.168-2.091,5.654-5.149,5.654c-1.627,0-2.904-0.77-3.762-1.914v6.16h-2.068V240.11
			h2.068v1.761c0.857-1.145,2.135-1.915,3.762-1.915C131.828,239.956,133.919,242.442,133.919,245.611z M131.785,245.611
			c0-2.024-1.387-3.652-3.367-3.652s-3.41,1.716-3.41,3.652c0,1.936,1.43,3.631,3.41,3.631S131.785,247.613,131.785,245.611z"/>
		<path fill="#FFFFFF" d="M146.811,240.11v11.001h-2.068v-1.76c-0.857,1.145-2.135,1.914-3.763,1.914
			c-3.058,0-5.148-2.486-5.148-5.654c0-3.169,2.091-5.655,5.148-5.655c1.628,0,2.905,0.771,3.763,1.915v-1.761H146.811z
			 M144.742,245.611c0-1.937-1.43-3.631-3.41-3.631s-3.367,1.629-3.367,3.631c0,2.023,1.387,3.652,3.367,3.652
			S144.742,247.547,144.742,245.611z"/>
		<path fill="#FFFFFF" d="M149.404,245.611c0-3.059,2.201-5.678,5.611-5.678c1.518,0,2.574,0.418,3.432,1.101v2.398
			c-0.66-0.748-1.848-1.431-3.256-1.431c-2.178,0-3.674,1.607-3.674,3.609c0,1.98,1.496,3.608,3.674,3.608
			c1.408,0,2.596-0.683,3.256-1.431v2.398c-0.857,0.682-1.914,1.1-3.432,1.1C151.605,251.287,149.404,248.67,149.404,245.611z"/>
		<path fill="#FFFFFF" d="M171.076,246.447h-8.405c0.33,1.738,1.694,2.838,3.587,2.838c1.451,0,2.574-0.461,3.63-1.188v2.09
			c-0.924,0.682-2.244,1.1-3.74,1.1c-3.499,0-5.61-2.596-5.61-5.676c0-3.059,2.156-5.655,5.391-5.655
			C169.359,239.956,171.318,242.971,171.076,246.447z M162.693,244.73h6.204c-0.308-1.605-1.431-2.706-3.015-2.706
			C164.211,242.024,163.023,243.146,162.693,244.73z"/>
		<path fill="#FFFFFF" d="M185.771,242.09h-2.268v9.021h-2.068v-9.021h-1.408v-1.979h1.408v-2.948h2.068v2.948h2.268V242.09z"/>
		<path fill="#FFFFFF" d="M186.607,245.611c0-3.059,2.287-5.678,5.609-5.678c3.324,0,5.611,2.619,5.611,5.678
			s-2.287,5.676-5.611,5.676C188.895,251.287,186.607,248.67,186.607,245.611z M195.693,245.589c0-1.937-1.363-3.587-3.477-3.587
			c-2.068,0-3.498,1.65-3.498,3.587c0,1.958,1.43,3.631,3.498,3.631C194.33,249.22,195.693,247.547,195.693,245.589z"/>
		<path fill="#FFFFFF" d="M218.771,245.611c0,3.168-2.09,5.654-5.148,5.654c-1.627,0-2.904-0.77-3.762-1.914v6.16h-2.068V240.11
			h2.068v1.761c0.857-1.145,2.135-1.915,3.762-1.915C216.682,239.956,218.771,242.442,218.771,245.611z M216.639,245.611
			c0-2.024-1.387-3.652-3.367-3.652s-3.41,1.716-3.41,3.652c0,1.936,1.43,3.631,3.41,3.631S216.639,247.613,216.639,245.611z"/>
		<path fill="#FFFFFF" d="M221.367,233.51h2.068v17.602h-2.068V233.51z"/>
		<path fill="#FFFFFF" d="M237.01,240.11v11.001h-2.068v-1.76c-0.857,1.145-2.135,1.914-3.762,1.914
			c-3.059,0-5.148-2.486-5.148-5.654c0-3.169,2.09-5.655,5.148-5.655c1.627,0,2.904,0.771,3.762,1.915v-1.761H237.01z
			 M234.941,245.611c0-1.937-1.43-3.631-3.41-3.631s-3.367,1.629-3.367,3.631c0,2.023,1.387,3.652,3.367,3.652
			S234.941,247.547,234.941,245.611z"/>
		<path fill="#FFFFFF" d="M250.035,240.11l-6.447,15.401h-2.113l1.938-4.488l-4.578-10.913h2.244l3.367,8.581l3.344-8.581H250.035z"
			/>
	</g>
</g>
</svg>
