<?xml version="1.0" encoding="utf-8"?>
<!-- Generator: Adobe Illustrator 16.0.0, SVG Export Plug-In . SVG Version: 6.00 Build 0)  -->
<!DOCTYPE svg PUBLIC "-//W3C//DTD SVG 1.1//EN" "http://www.w3.org/Graphics/SVG/1.1/DTD/svg11.dtd">
<svg version="1.1" xmlns="http://www.w3.org/2000/svg" xmlns:xlink="http://www.w3.org/1999/xlink" x="0px" y="0px" width="360px"
	 height="360px" viewBox="0 0 360 360" enable-background="new 0 0 360 360" xml:space="preserve">
<g id="brown_background_for_context">
</g>
<g id="background_circles">
	<circle fill="#FFCE01" cx="179.046" cy="176.749" r="119.116"/>
</g>
<g id="white_imagery__x2B__text">
	<g>
		<path fill="#FFFFFF" d="M176.514,202.197l3.6-0.259l-0.355,57.283c-2.204,1.734-4.841-0.315-6.246-1.433L176.514,202.197z"/>
		<path fill="#FFFFFF" d="M147.267,175.69c1.521,9.741,12.803,36.46,24.191,27.441C181.791,193.365,156.813,174.702,147.267,175.69z
			"/>
		<path fill="#FFFFFF" d="M150.886,149.211c-0.652,10.398,13.182,35.753,24.267,28.769
			C185.37,168.322,161.539,147.177,150.886,149.211z"/>
		<path fill="#FFFFFF" d="M157.939,121.931c-0.027,7.363,4.812,35.768,18.398,29.074
			C184.906,140.111,177.215,138.997,157.939,121.931z"/>
		<path fill="#FFFFFF" d="M182.849,98.386c-5.516,4.515-15.648,26.32-2.284,30.108C191.719,130.316,188.708,107.172,182.849,98.386z
			"/>
		<path fill="#FFFFFF" d="M203.174,122.845c-8.531,3.173-26.029,18.664-19.955,26.199
			C195.549,159.398,203.29,131.469,203.174,122.845z"/>
		<path fill="#FFFFFF" d="M208.682,150.479c-9.638,4.219-34.463,12.797-25.383,26.071
			C198.643,188.616,204.214,159.243,208.682,150.479z"/>
		<path fill="#FFFFFF" d="M210.246,177.648c-15.234,6.048-36.158,14.962-24.82,26.954
			C196.757,216.951,208.583,185.509,210.246,177.648z"/>
	</g>
</g>
</svg>
