<?xml version="1.0" encoding="utf-8"?>
<!-- Generator: Adobe Illustrator 16.0.0, SVG Export Plug-In . SVG Version: 6.00 Build 0)  -->
<!DOCTYPE svg PUBLIC "-//W3C//DTD SVG 1.1//EN" "http://www.w3.org/Graphics/SVG/1.1/DTD/svg11.dtd">
<svg version="1.1" xmlns="http://www.w3.org/2000/svg" xmlns:xlink="http://www.w3.org/1999/xlink" x="0px" y="0px" width="360px"
	 height="360px" viewBox="0 0 360 360" enable-background="new 0 0 360 360" xml:space="preserve">
<g id="brown_background_for_context">
</g>
<g id="background_circles">
	<circle fill="#2E61A1" cx="180" cy="180" r="119.116"/>
</g>
<g id="white_imagery__x2B__text">
	<g>
		<rect x="101.294" y="97.814" fill="none" width="158.639" height="38.629"/>
		<path fill="#FFFFFF" d="M161.892,126.614h-5.184v-13.138h-6.263v13.138h-5.183v-13.138h-2.34v-4.859h2.34v-5.255
			c0-3.528,1.655-5.759,5.039-5.759c1.476,0,2.951,0.396,3.779,0.828v5.255c-0.684-0.288-1.404-0.54-2.268-0.54
			c-0.792,0-1.368,0.504-1.368,1.548v3.924h11.446V126.614z M156.024,102.605c0-1.8,1.439-3.24,3.24-3.24
			c1.871,0,3.275,1.44,3.275,3.24s-1.404,3.275-3.275,3.275C157.464,105.88,156.024,104.405,156.024,102.605z"/>
		<path fill="#FFFFFF" d="M166.97,97.817h5.184v28.796h-5.184V97.817z"/>
		<path fill="#FFFFFF" d="M186.337,113.476h-3.6v13.138h-5.184v-13.138h-2.268v-4.859h2.268v-4.824h5.184v4.824h3.6V113.476z"/>
		<path fill="#FFFFFF" d="M205.091,119.271h-12.346c0.611,1.944,2.34,2.988,4.57,2.988c2.016,0,3.889-0.576,5.688-1.44l0.035,4.644
			c-1.547,0.864-3.67,1.44-6.119,1.44c-5.867,0-9.357-4.211-9.357-9.287c0-5.003,3.527-9.287,8.963-9.287
			C202.392,108.328,205.595,113.332,205.091,119.271z M192.745,116.031h7.307c-0.504-1.8-1.836-2.916-3.527-2.916
			C194.651,113.115,193.249,114.303,192.745,116.031z"/>
		<path fill="#FFFFFF" d="M218.735,108.22v5.975c-2.305-0.504-5.004,0-5.004,3.708v8.711h-5.184v-17.998h5.184v2.7
			C214.849,109.588,216.575,108.22,218.735,108.22z"/>
	</g>
	<g>
		<rect x="102.219" y="214.188" fill="none" width="158.639" height="58.804"/>
		<path fill="#FFFFFF" d="M118.741,226.287c0-3.059,2.199-5.677,5.61-5.677c1.519,0,2.574,0.418,3.433,1.101v2.398
			c-0.66-0.748-1.849-1.431-3.257-1.431c-2.179,0-3.675,1.606-3.675,3.608c0,1.98,1.496,3.609,3.675,3.609
			c1.408,0,2.597-0.683,3.257-1.431v2.397c-0.858,0.683-1.914,1.101-3.433,1.101C120.94,231.964,118.741,229.346,118.741,226.287z"
			/>
		<path fill="#FFFFFF" d="M130.555,214.186h2.068v17.603h-2.068V214.186z"/>
		<path fill="#FFFFFF" d="M145.758,227.123h-8.405c0.33,1.738,1.694,2.839,3.586,2.839c1.453,0,2.574-0.462,3.631-1.188v2.09
			c-0.924,0.683-2.244,1.101-3.74,1.101c-3.498,0-5.611-2.597-5.611-5.677c0-3.059,2.156-5.654,5.391-5.654
			C144.042,220.633,145.999,223.646,145.758,227.123z M137.374,225.407h6.205c-0.308-1.606-1.43-2.706-3.014-2.706
			C138.893,222.701,137.704,223.822,137.374,225.407z"/>
		<path fill="#FFFFFF" d="M158.583,220.787v11.001h-2.068v-1.761c-0.857,1.145-2.134,1.914-3.762,1.914
			c-3.059,0-5.148-2.486-5.148-5.654s2.09-5.654,5.148-5.654c1.628,0,2.904,0.77,3.762,1.914v-1.76H158.583z M156.515,226.287
			c0-1.936-1.43-3.631-3.41-3.631s-3.366,1.629-3.366,3.631c0,2.024,1.386,3.652,3.366,3.652S156.515,228.224,156.515,226.287z"/>
		<path fill="#FFFFFF" d="M171.365,225.473v6.315h-2.068v-6.007c0-2.178-1.122-3.322-2.685-3.322c-1.54,0-2.685,1.145-2.685,3.322
			v6.007h-2.067v-11.001h2.067v1.539c0.638-1.033,1.805-1.76,3.323-1.76C169.407,220.566,171.365,222.195,171.365,225.473z"/>
		<path fill="#FFFFFF" d="M174.466,217.288c0-0.771,0.594-1.386,1.408-1.386c0.813,0,1.408,0.615,1.408,1.386
			c0,0.813-0.595,1.431-1.408,1.431C175.06,218.719,174.466,218.102,174.466,217.288z M174.84,220.787h2.068v11.001h-2.068V220.787z
			"/>
		<path fill="#FFFFFF" d="M190.065,225.473v6.315h-2.068v-6.007c0-2.178-1.122-3.322-2.685-3.322c-1.54,0-2.685,1.145-2.685,3.322
			v6.007h-2.068v-11.001h2.068v1.539c0.639-1.033,1.805-1.76,3.322-1.76C188.107,220.566,190.065,222.195,190.065,225.473z"/>
		<path fill="#FFFFFF" d="M203.331,231.326c0,3.366-2.618,5.017-5.237,5.017c-1.672,0-2.97-0.483-4.18-1.166l0.021-2.179
			c1.232,0.858,2.641,1.387,3.938,1.387c2.024,0,3.433-1.145,3.433-3.587v-0.836c-0.858,1.188-2.156,1.979-3.807,1.979
			c-3.059,0-5.148-2.486-5.148-5.654s2.09-5.654,5.148-5.654c1.628,0,2.927,0.77,3.763,1.936v-1.781h2.046L203.331,231.326z
			 M201.263,226.287c0-1.936-1.431-3.631-3.41-3.631c-1.98,0-3.367,1.629-3.367,3.631c0,2.024,1.387,3.652,3.367,3.652
			C199.832,229.939,201.263,228.224,201.263,226.287z"/>
		<path fill="#FFFFFF" d="M213.295,226.287c0-3.059,2.288-5.677,5.61-5.677c3.323,0,5.611,2.618,5.611,5.677
			s-2.288,5.677-5.611,5.677C215.583,231.964,213.295,229.346,213.295,226.287z M222.382,226.266c0-1.937-1.364-3.587-3.477-3.587
			c-2.068,0-3.498,1.65-3.498,3.587c0,1.958,1.43,3.631,3.498,3.631C221.018,229.896,222.382,228.224,222.382,226.266z"/>
		<path fill="#FFFFFF" d="M236.44,220.787v11.001h-2.068v-1.54c-0.638,1.034-1.804,1.76-3.322,1.76
			c-2.156,0-4.114-1.628-4.114-4.906v-6.314h2.068v6.006c0,2.179,1.122,3.322,2.684,3.322c1.541,0,2.685-1.144,2.685-3.322v-6.006
			H236.44z"/>
		<path fill="#FFFFFF" d="M244.954,220.566v2.442c-1.562-0.265-3.168,0.572-3.168,2.948l-0.022-0.088v5.919h-2.068v-11.001h2.068
			v1.892C242.358,221.557,243.48,220.566,244.954,220.566z"/>
		<path fill="#FFFFFF" d="M137.476,243.787v11.001h-2.068v-1.761c-0.858,1.145-2.135,1.914-3.764,1.914
			c-3.058,0-5.148-2.486-5.148-5.654s2.091-5.654,5.148-5.654c1.629,0,2.905,0.77,3.764,1.914v-1.76H137.476z M135.407,249.287
			c0-1.936-1.431-3.631-3.411-3.631c-1.979,0-3.366,1.629-3.366,3.631c0,2.024,1.387,3.652,3.366,3.652
			C133.977,252.939,135.407,251.224,135.407,249.287z"/>
		<path fill="#FFFFFF" d="M140.751,240.288c0-0.771,0.594-1.386,1.408-1.386s1.408,0.615,1.408,1.386
			c0,0.813-0.594,1.431-1.408,1.431S140.751,241.102,140.751,240.288z M141.126,243.787h2.068v11.001h-2.068V243.787z"/>
		<path fill="#FFFFFF" d="M152.104,243.566v2.442c-1.562-0.265-3.169,0.572-3.169,2.948l-0.022-0.088v5.919h-2.068v-11.001h2.068
			v1.892C149.507,244.557,150.63,243.566,152.104,243.566z"/>
		<path fill="#FFFFFF" d="M170.694,254.788c-0.352-0.44-0.704-0.858-1.078-1.298c-0.969,0.945-2.223,1.54-3.785,1.54
			c-2.662,0-4.906-1.606-4.906-4.202c0-2.156,1.364-3.323,2.86-4.247c-0.901-1.078-1.914-2.376-1.914-3.784
			c0-1.673,1.231-3.697,3.917-3.697c2.508,0,3.828,1.914,3.828,3.697c0,2.002-1.452,3.146-2.992,4.137
			c0.726,0.857,1.693,2.046,2.75,3.322c0.33-0.881,0.484-1.937,0.484-3.146h2.002c0.021,1.738-0.352,3.454-1.1,4.84l2.311,2.839
			H170.694z M168.362,251.994c-1.166-1.365-2.332-2.729-3.41-4.005c-1.057,0.726-1.893,1.519-1.893,2.662
			c0,1.474,1.342,2.376,2.794,2.376C166.888,253.027,167.724,252.654,168.362,251.994z M165.479,245.568
			c1.166-0.703,2.09-1.451,2.09-2.684c0-0.924-0.66-1.783-1.781-1.783c-1.035,0-1.805,0.859-1.805,1.805
			C163.983,243.853,164.775,244.755,165.479,245.568z"/>
		<path fill="#FFFFFF" d="M198.504,243.787l-5.611,11.045h-1.54l-2.002-4.049l-1.98,4.049h-1.562l-5.589-11.045h2.2l4.225,8.515
			l1.694-3.433l-2.552-5.082h2.112l1.452,3.168l1.474-3.168h2.112l-2.574,5.061l1.738,3.454l4.202-8.515H198.504z"/>
		<path fill="#FFFFFF" d="M209.986,243.787v11.001h-2.068v-1.761c-0.858,1.145-2.135,1.914-3.763,1.914
			c-3.059,0-5.148-2.486-5.148-5.654s2.09-5.654,5.148-5.654c1.628,0,2.904,0.77,3.763,1.914v-1.76H209.986z M207.918,249.287
			c0-1.936-1.431-3.631-3.41-3.631c-1.98,0-3.367,1.629-3.367,3.631c0,2.024,1.387,3.652,3.367,3.652
			C206.487,252.939,207.918,251.224,207.918,249.287z"/>
		<path fill="#FFFFFF" d="M218.038,245.767h-2.267v9.021h-2.068v-9.021h-1.408v-1.979h1.408v-2.949h2.068v2.949h2.267V245.767z"/>
		<path fill="#FFFFFF" d="M229.413,250.123h-8.405c0.33,1.738,1.694,2.839,3.587,2.839c1.452,0,2.574-0.462,3.631-1.188v2.09
			c-0.925,0.683-2.245,1.101-3.741,1.101c-3.498,0-5.61-2.597-5.61-5.677c0-3.059,2.156-5.654,5.391-5.654
			C227.697,243.633,229.655,246.646,229.413,250.123z M221.03,248.407h6.205c-0.309-1.606-1.431-2.706-3.015-2.706
			C222.549,245.701,221.36,246.822,221.03,248.407z"/>
		<path fill="#FFFFFF" d="M237.2,243.566v2.442c-1.562-0.265-3.168,0.572-3.168,2.948l-0.022-0.088v5.919h-2.068v-11.001h2.068
			v1.892C234.604,244.557,235.727,243.566,237.2,243.566z"/>
	</g>
	<path fill="#FFFFFF" d="M181.538,138.902c-30.621,0-25.902,11.897-25.902,11.897l20.064,23.551v32.722l11.75-13.12v-19.352
		l19.99-23.801C207.44,150.8,212.159,138.902,181.538,138.902z M181.538,155.58c0,0-20.288-0.321-20.288-6.438
		s20.288-6.258,20.288-6.258s20.032-0.142,20.032,6.348S181.538,155.58,181.538,155.58z"/>
</g>
</svg>
