<?xml version="1.0" encoding="utf-8"?>
<!-- Generator: Adobe Illustrator 16.0.0, SVG Export Plug-In . SVG Version: 6.00 Build 0)  -->
<!DOCTYPE svg PUBLIC "-//W3C//DTD SVG 1.1//EN" "http://www.w3.org/Graphics/SVG/1.1/DTD/svg11.dtd">
<svg version="1.1" xmlns="http://www.w3.org/2000/svg" xmlns:xlink="http://www.w3.org/1999/xlink" x="0px" y="0px" width="360px"
	 height="360px" viewBox="0 0 360 360" enable-background="new 0 0 360 360" xml:space="preserve">
<g id="brown_background_for_context">
</g>
<g id="background_circles">
	<circle fill="#ED6A7C" cx="180" cy="180" r="119.116"/>
</g>
<g id="white_imagery__x2B__text">
	<g>
		<path fill="none" stroke="#FFFFFF" stroke-width="6" stroke-miterlimit="10" d="M171.74,116.855
			c13.607,0,63.62,19.491,64.725,61.783c13.606,6.251,21.696,28.685-9.194,34.937c-7.724,14.71-61.333,36-87.679,21.988
			C108.584,218.159,109.591,123.844,171.74,116.855z"/>
		<path fill="#FFFFFF" d="M152.617,161.354c-4.412-8.459-7.723-28.686,2.207-30.893C162.179,130.096,160.34,147.379,152.617,161.354
			z"/>
		<path fill="#FFFFFF" d="M159.477,165.269c0.129-5.149,3.806-28.685,14.103-23.537
			C178.345,144.258,174.793,153.501,159.477,165.269z"/>
		<path fill="#FFFFFF" d="M161.434,172.387c6.38-4.781,16.076-19.195,18.192-6.887C178.89,172.119,181.162,181.581,161.434,172.387z
			"/>
		<path fill="#FFFFFF" d="M158.988,180.309c9.561,2.494,17.833,3.892,11.541,20.408
			C166.295,208.966,161.477,201.116,158.988,180.309z"/>
		<path fill="#FFFFFF" d="M153.031,190.225c-1.599,7.66-12.179,32.122,2.338,29.115
			C162.467,217.464,160.646,202.368,153.031,190.225z"/>
		<path fill="#FFFFFF" d="M146.74,191.651c-5.815,2.575-18.659,13.255-12.803,24.639C138.351,221.807,145.2,215.555,146.74,191.651z
			"/>
		<path fill="#FFFFFF" d="M148.334,179.742c-7.852-4.413-19.621-9.492-19.621,5.516
			C128.713,194.508,135.437,199.499,148.334,179.742z"/>
		<path fill="#FFFFFF" d="M151.002,171.283c-0.959-9.193-5.156-22.063-12.478-16.915C134.448,157.533,127.725,166.5,151.002,171.283
			z"/>
	</g>
</g>
</svg>
