<?xml version="1.0" encoding="utf-8"?>
<!-- Generator: Adobe Illustrator 16.0.0, SVG Export Plug-In . SVG Version: 6.00 Build 0)  -->
<!DOCTYPE svg PUBLIC "-//W3C//DTD SVG 1.1//EN" "http://www.w3.org/Graphics/SVG/1.1/DTD/svg11.dtd">
<svg version="1.1" xmlns="http://www.w3.org/2000/svg" xmlns:xlink="http://www.w3.org/1999/xlink" x="0px" y="0px" width="360px"
	 height="360px" viewBox="0 0 360 360" enable-background="new 0 0 360 360" xml:space="preserve">
<g id="brown_background_for_context">
</g>
<g id="background_circles">
	<circle fill="#ED6A7C" cx="168.63" cy="179.501" r="119.116"/>
</g>
<g id="white_imagery__x2B__text">
	<g>
		<path fill="none" stroke="#FFFFFF" stroke-width="6" stroke-miterlimit="10" d="M160.37,116.356
			c13.607,0,63.62,19.491,64.725,61.783c13.606,6.251,21.696,28.685-9.194,34.937c-7.724,14.71-61.333,36-87.679,21.988
			C97.214,217.66,98.221,123.345,160.37,116.356z"/>
		<path fill="#FFFFFF" d="M141.247,160.855c-4.413-8.459-7.723-28.686,2.207-30.893C150.809,129.597,148.97,146.88,141.247,160.855z
			"/>
		<path fill="#FFFFFF" d="M148.106,164.77c0.129-5.149,3.806-28.685,14.103-23.537C166.975,143.759,163.422,153.002,148.106,164.77z
			"/>
		<path fill="#FFFFFF" d="M150.063,171.888c6.38-4.781,16.076-19.195,18.193-6.887C167.52,171.62,169.792,181.082,150.063,171.888z"
			/>
		<path fill="#FFFFFF" d="M147.618,179.81c9.561,2.494,17.833,3.892,11.541,20.408C154.925,208.467,150.106,200.617,147.618,179.81z
			"/>
		<path fill="#FFFFFF" d="M141.661,189.726c-1.598,7.66-12.178,32.122,2.338,29.115
			C151.097,216.965,149.276,201.869,141.661,189.726z"/>
		<path fill="#FFFFFF" d="M135.37,191.152c-5.815,2.575-18.659,13.255-12.803,24.639C126.981,221.308,133.83,215.056,135.37,191.152
			z"/>
		<path fill="#FFFFFF" d="M136.964,179.243c-7.853-4.413-19.621-9.492-19.621,5.516C117.343,194.009,124.066,199,136.964,179.243z"
			/>
		<path fill="#FFFFFF" d="M139.632,170.784c-0.958-9.193-5.156-22.063-12.478-16.915
			C123.078,157.034,116.355,166.001,139.632,170.784z"/>
	</g>
</g>
</svg>
