<?xml version="1.0" encoding="utf-8"?>
<!-- Generator: Adobe Illustrator 16.0.0, SVG Export Plug-In . SVG Version: 6.00 Build 0)  -->
<!DOCTYPE svg PUBLIC "-//W3C//DTD SVG 1.1//EN" "http://www.w3.org/Graphics/SVG/1.1/DTD/svg11.dtd">
<svg version="1.1" id="Layer_1" xmlns="http://www.w3.org/2000/svg" xmlns:xlink="http://www.w3.org/1999/xlink" x="0px" y="0px"
	 width="1366px" height="768px" viewBox="0 0 1366 768" enable-background="new 0 0 1366 768" xml:space="preserve">
<g>
	<g>
		<path fill="none" stroke="#5D5153" stroke-width="3" stroke-miterlimit="10" d="M579.449,653.976
			c-37.404-14.125-70.977-36.058-98.729-63.81c-3.01-3.011-5.951-6.088-8.821-9.232"/>
		<g>
			<path fill="#5D5153" d="M473.005,582.111l-1.095,3.635l-0.128-0.034l-1.97-5.337c-0.929-1.642-1.858-3.283-2.788-4.925
				c1.532,1.101,3.064,2.2,4.597,3.3l5.095,2.531l0.033,0.119L473.005,582.111z"/>
		</g>
	</g>
</g>
<g>
	<rect x="350.346" y="489.599" fill="none" width="156.69" height="61.726"/>
	<path fill="#5D5153" d="M398.398,502.904v7.444h-2.438v-7.082c0-2.567-1.323-3.917-3.165-3.917c-1.815,0-3.165,1.35-3.165,3.917
		l-0.026-0.104v7.186h-2.438v-20.752h2.438v9.624c0.752-1.22,2.127-2.102,3.943-2.102
		C396.089,497.119,398.398,499.039,398.398,502.904z"/>
	<path fill="#5D5153" d="M413.493,504.85h-9.909c0.389,2.049,1.998,3.346,4.229,3.346c1.712,0,3.035-0.545,4.28-1.4v2.464
		c-1.09,0.805-2.646,1.298-4.41,1.298c-4.125,0-6.615-3.062-6.615-6.693c0-3.605,2.542-6.666,6.355-6.666
		C411.47,497.197,413.779,500.751,413.493,504.85z M403.61,502.826h7.315c-0.363-1.894-1.686-3.19-3.554-3.19
		C405.4,499.636,403.999,500.958,403.61,502.826z"/>
	<path fill="#5D5153" d="M428.615,497.379v12.97h-2.438v-2.075c-1.012,1.349-2.516,2.257-4.436,2.257
		c-3.606,0-6.07-2.932-6.07-6.667s2.464-6.666,6.07-6.666c1.919,0,3.424,0.908,4.436,2.257v-2.075H428.615z M426.176,503.863
		c0-2.282-1.686-4.279-4.021-4.279c-2.335,0-3.969,1.919-3.969,4.279c0,2.387,1.634,4.307,3.969,4.307
		C424.49,508.17,426.176,506.146,426.176,503.863z"/>
	<path fill="#5D5153" d="M432.478,489.597h2.438v20.752h-2.438V489.597z"/>
	<path fill="#5D5153" d="M444.409,499.713h-2.672v10.636h-2.438v-10.636h-1.66v-2.334h1.66v-3.477h2.438v3.477h2.672V499.713z"/>
	<path fill="#5D5153" d="M457.949,502.904v7.444h-2.438v-7.082c0-2.567-1.323-3.917-3.165-3.917c-1.815,0-3.165,1.35-3.165,3.917
		l-0.026-0.104v7.186h-2.438v-20.752h2.438v9.624c0.752-1.22,2.127-2.102,3.943-2.102
		C455.641,497.119,457.949,499.039,457.949,502.904z"/>
	<path fill="#5D5153" d="M472.812,497.379l-7.601,18.158h-2.49l2.283-5.292l-5.396-12.866h2.646l3.969,10.116l3.943-10.116H472.812z
		"/>
	<path fill="#5D5153" d="M372.319,538.901h-9.834c0.488,1.548,1.864,2.38,3.642,2.38c1.605,0,3.096-0.459,4.53-1.147l0.029,3.698
		c-1.233,0.688-2.924,1.147-4.874,1.147c-4.673,0-7.455-3.354-7.455-7.397c0-3.985,2.81-7.397,7.139-7.397
		C370.169,530.185,372.721,534.17,372.319,538.901z M362.485,536.32h5.82c-0.401-1.434-1.462-2.322-2.81-2.322
		C364.004,533.998,362.886,534.944,362.485,536.32z"/>
	<path fill="#5D5153" d="M374.324,537.582c0-4.043,2.953-7.426,7.455-7.426c1.892,0,3.154,0.459,4.243,1.146v4.416
		c-0.917-0.688-2.322-1.434-3.957-1.434c-2.093,0-3.555,1.462-3.555,3.297s1.462,3.297,3.555,3.297c1.634,0,3.039-0.745,3.957-1.433
		v4.415c-1.089,0.688-2.351,1.146-4.243,1.146C377.277,545.008,374.324,541.625,374.324,537.582z"/>
	<path fill="#5D5153" d="M388.285,537.582c0-4.043,3.039-7.454,7.397-7.454c4.387,0,7.426,3.411,7.426,7.454
		c0,4.014-3.039,7.455-7.426,7.455C391.324,545.037,388.285,541.596,388.285,537.582z M398.894,537.554
		c0-1.777-1.262-3.298-3.211-3.298c-1.892,0-3.182,1.521-3.182,3.298c0,1.806,1.29,3.354,3.182,3.354
		C397.632,540.908,398.894,539.389,398.894,537.554z"/>
	<path fill="#5D5153" d="M419.047,536.062v8.688h-4.129v-7.741c0-1.949-1.061-3.039-2.466-3.039c-1.29,0-2.236,0.889-2.408,2.494
		v8.286h-4.128v-14.336h4.128v1.721c0.917-1.176,2.351-2.007,4.129-2.007C416.925,530.128,419.047,532.192,419.047,536.062z"/>
	<path fill="#5D5153" d="M421.682,537.582c0-4.043,3.039-7.454,7.397-7.454c4.387,0,7.426,3.411,7.426,7.454
		c0,4.014-3.039,7.455-7.426,7.455C424.721,545.037,421.682,541.596,421.682,537.582z M432.291,537.554
		c0-1.777-1.262-3.298-3.211-3.298c-1.892,0-3.182,1.521-3.182,3.298c0,1.806,1.29,3.354,3.182,3.354
		C431.029,540.908,432.291,539.389,432.291,537.554z"/>
	<path fill="#5D5153" d="M461.36,536.148v8.602h-4.1v-7.655c0-1.921-0.975-3.125-2.438-3.125c-1.434,0-2.437,1.204-2.437,3.125
		v7.655h-4.1v-7.655c0-1.921-0.975-3.125-2.438-3.125c-1.433,0-2.408,1.204-2.408,3.125v7.655h-4.128v-14.336h4.128v1.835
		c0.917-1.204,2.322-2.121,4.1-2.121c1.806,0,3.297,0.889,4.157,2.58c1.003-1.52,2.609-2.58,4.759-2.58
		C459.411,530.128,461.36,532.278,461.36,536.148z"/>
	<path fill="#5D5153" d="M464.74,525.626c0-1.434,1.146-2.58,2.58-2.58c1.491,0,2.609,1.146,2.609,2.58s-1.118,2.609-2.609,2.609
		C465.887,528.235,464.74,527.06,464.74,525.626z M465.285,530.414h4.129v14.336h-4.129V530.414z"/>
	<path fill="#5D5153" d="M486.701,538.901h-9.834c0.488,1.548,1.864,2.38,3.642,2.38c1.605,0,3.096-0.459,4.53-1.147l0.029,3.698
		c-1.233,0.688-2.924,1.147-4.874,1.147c-4.673,0-7.455-3.354-7.455-7.397c0-3.985,2.81-7.397,7.139-7.397
		C484.55,530.185,487.102,534.17,486.701,538.901z M476.866,536.32h5.82c-0.401-1.434-1.462-2.322-2.81-2.322
		C478.386,533.998,477.268,534.944,476.866,536.32z"/>
	<path fill="#5D5153" d="M488.132,542.829l2.007-2.953c0.975,0.774,2.408,1.548,3.613,1.548c0.803,0,1.319-0.401,1.319-0.917
		c0-1.864-6.451-1.176-6.451-6.05c0-2.38,1.95-4.301,5.104-4.329c2.064,0,3.928,0.975,4.931,1.949l-1.949,2.925
		c-0.631-0.459-1.893-1.233-2.925-1.233c-0.717,0-1.204,0.345-1.204,0.86c0,1.777,6.566,1.147,6.537,6.05
		c0,2.466-2.15,4.329-5.39,4.329C491.802,545.008,489.508,544.119,488.132,542.829z"/>
</g>
<path fill="#3DAAA2" d="M491.781,468.254c0,0,11.474-6.853,40.107,0c19.363,4.634,38.063-4.495,38.063-4.495v37.039
	c0,0-13.717,12.233-39.086,4.496c-21.597-6.587-39.085,1.278-39.085,1.278V468.254z"/>
<ellipse transform="matrix(0.9938 0.1115 -0.1115 0.9938 57.5798 -56.3914)" fill="#FFFFFF" cx="533.186" cy="486.83" rx="11.4" ry="15.246"/>
<g>
	<path fill="#3DAAA2" d="M537.456,490.674c-0.255,2.091-1.877,3.648-4.399,3.701l-0.138,1.222l-1.864-0.209l0.137-1.223
		c-1.67-0.435-3.08-1.518-3.885-2.762l2.124-2.11c0.702,1.042,1.901,1.934,3.001,2.055c1.035,0.117,1.724-0.415,1.811-1.181
		c0.282-2.527-6.086-2.589-5.516-7.308c0.219-1.949,1.854-3.442,4.131-3.543l0.146-1.306l1.864,0.21l-0.144,1.285
		c1.524,0.422,2.717,1.394,3.449,2.334l-1.997,2.106c-0.592-0.717-1.595-1.5-2.567-1.61c-0.934-0.104-1.592,0.347-1.673,1.072
		C531.682,485.687,538.022,485.999,537.456,490.674z"/>
</g>
<rect x="637.561" y="600.155" fill="#FFFFFF" width="0.496" height="25.392"/>
</svg>
