<?xml version="1.0" encoding="utf-8"?>
<!-- Generator: Adobe Illustrator 16.0.0, SVG Export Plug-In . SVG Version: 6.00 Build 0)  -->
<!DOCTYPE svg PUBLIC "-//W3C//DTD SVG 1.1//EN" "http://www.w3.org/Graphics/SVG/1.1/DTD/svg11.dtd">
<svg version="1.1" id="Layer_1" xmlns="http://www.w3.org/2000/svg" xmlns:xlink="http://www.w3.org/1999/xlink" x="0px" y="0px"
	 width="1366px" height="768px" viewBox="0 0 1366 768" enable-background="new 0 0 1366 768" xml:space="preserve">
<g>
	<g>
		<path fill="none" stroke="#5D5153" stroke-width="3" stroke-miterlimit="10" d="M461.866,216.504
			c5.935-7.262,12.229-14.221,18.854-20.846c35.877-35.878,81.484-62.028,132.523-74.154"/>
		<g>
			<path fill="#5D5153" d="M611.678,121.902l-2.647-2.719l0.091-0.097l5.623,0.865c1.886-0.017,3.772-0.034,5.659-0.05
				c-1.705,0.807-3.41,1.613-5.115,2.42l-4.684,3.229l-0.121-0.029L611.678,121.902z"/>
		</g>
	</g>
</g>
<g>
	<g>
		<path fill="none" stroke="#5D5153" stroke-width="3" stroke-miterlimit="10" d="M408.573,465.575
			c-6.233-23.166-9.557-47.526-9.558-72.663c0.001-21.176,2.36-41.8,6.83-61.625"/>
		<g>
			<path fill="#5D5153" d="M405.49,332.865l-3.61,1.172l-0.046-0.124l3.262-4.66c0.819-1.7,1.638-3.399,2.457-5.099
				c-0.03,1.886-0.061,3.771-0.09,5.658l0.825,5.629l-0.08,0.096L405.49,332.865z"/>
		</g>
	</g>
</g>
<g>
	<rect x="371.118" y="231.896" fill="none" width="115.146" height="61.727"/>
	<path fill="#5D5153" d="M398.398,245.2v7.445h-2.438v-7.082c0-2.567-1.323-3.916-3.165-3.916c-1.815,0-3.165,1.349-3.165,3.916
		l-0.026-0.104v7.186h-2.438v-20.752h2.438v9.623c0.752-1.219,2.127-2.101,3.943-2.101
		C396.089,239.416,398.398,241.336,398.398,245.2z"/>
	<path fill="#5D5153" d="M413.493,247.146h-9.909c0.389,2.049,1.998,3.347,4.229,3.347c1.712,0,3.035-0.545,4.28-1.401v2.464
		c-1.09,0.805-2.646,1.297-4.41,1.297c-4.125,0-6.615-3.061-6.615-6.691c0-3.606,2.542-6.667,6.355-6.667
		C411.47,239.494,413.779,243.048,413.493,247.146z M403.61,245.123h7.315c-0.363-1.894-1.686-3.19-3.554-3.19
		C405.4,241.933,403.999,243.255,403.61,245.123z"/>
	<path fill="#5D5153" d="M428.615,239.676v12.97h-2.438v-2.075c-1.012,1.349-2.516,2.257-4.436,2.257
		c-3.606,0-6.07-2.932-6.07-6.666c0-3.736,2.464-6.667,6.07-6.667c1.919,0,3.424,0.907,4.436,2.257v-2.075H428.615z
		 M426.176,246.161c0-2.283-1.686-4.281-4.021-4.281c-2.335,0-3.969,1.92-3.969,4.281c0,2.386,1.634,4.306,3.969,4.306
		C424.49,250.467,426.176,248.443,426.176,246.161z"/>
	<path fill="#5D5153" d="M432.478,231.894h2.438v20.752h-2.438V231.894z"/>
	<path fill="#5D5153" d="M444.409,242.011h-2.672v10.635h-2.438v-10.635h-1.66v-2.335h1.66V236.2h2.438v3.476h2.672V242.011z"/>
	<path fill="#5D5153" d="M457.949,245.2v7.445h-2.438v-7.082c0-2.567-1.323-3.916-3.165-3.916c-1.815,0-3.165,1.349-3.165,3.916
		l-0.026-0.104v7.186h-2.438v-20.752h2.438v9.623c0.752-1.219,2.127-2.101,3.943-2.101
		C455.641,239.416,457.949,241.336,457.949,245.2z"/>
	<path fill="#5D5153" d="M472.812,239.676l-7.601,18.157h-2.49l2.283-5.291l-5.396-12.866h2.646l3.969,10.116l3.943-10.116H472.812z
		"/>
	<path fill="#5D5153" d="M402.879,279.878c0,4.101-2.523,7.369-6.451,7.369c-1.864,0-3.297-0.803-4.301-2.035v7.568h-4.128v-20.069
		h4.128v1.806c1.004-1.232,2.437-2.035,4.301-2.035C400.356,272.481,402.879,275.75,402.879,279.878z M398.549,279.878
		c0-1.892-1.29-3.383-3.182-3.383c-1.893,0-3.211,1.577-3.211,3.383c0,1.778,1.319,3.384,3.211,3.384
		C397.259,283.262,398.549,281.742,398.549,279.878z"/>
	<path fill="#5D5153" d="M405.658,264.109h4.128v22.937h-4.128V264.109z"/>
	<path fill="#5D5153" d="M427.446,272.711v14.335h-4.128v-1.834c-1.003,1.232-2.437,2.035-4.301,2.035
		c-3.928,0-6.451-3.269-6.451-7.396c0-4.101,2.523-7.369,6.451-7.369c1.864,0,3.297,0.803,4.301,2.035v-1.806H427.446z
		 M423.289,279.851c0-1.778-1.319-3.384-3.211-3.384c-1.892,0-3.182,1.52-3.182,3.384c0,1.892,1.29,3.383,3.182,3.383
		C421.97,283.233,423.289,281.656,423.289,279.851z"/>
	<path fill="#5D5153" d="M444.102,278.358v8.688h-4.129v-7.74c0-1.95-1.061-3.039-2.466-3.039c-1.29,0-2.236,0.889-2.408,2.494
		v8.285h-4.128v-14.335h4.128v1.72c0.917-1.176,2.351-2.007,4.129-2.007C441.98,272.424,444.102,274.488,444.102,278.358z"/>
	<path fill="#5D5153" d="M460.7,281.197h-9.834c0.488,1.548,1.864,2.38,3.642,2.38c1.605,0,3.096-0.459,4.53-1.146l0.029,3.698
		c-1.233,0.688-2.924,1.147-4.874,1.147c-4.673,0-7.455-3.355-7.455-7.398c0-3.984,2.81-7.396,7.139-7.396
		C458.55,272.481,461.102,276.467,460.7,281.197z M450.866,278.617h5.82c-0.401-1.434-1.462-2.323-2.81-2.323
		C452.385,276.294,451.267,277.241,450.866,278.617z"/>
	<path fill="#5D5153" d="M470.762,276.581h-2.867v10.465h-4.129v-10.465h-1.806v-3.87h1.806v-3.843h4.129v3.843h2.867V276.581z"/>
</g>
<circle fill="#FECF0A" cx="491.373" cy="333.683" r="38.011"/>
<g>
	<defs>
		<circle id="SVGID_5_" cx="491.192" cy="333.683" r="38.01"/>
	</defs>
	<clipPath id="SVGID_2_">
		<use xlink:href="#SVGID_5_"  overflow="visible"/>
	</clipPath>
	<g clip-path="url(#SVGID_2_)">
		<path fill="#FFFFFF" d="M483.88,334.374c-0.449,2.34,0.145,4.806,2.031,6.728c2.027,1.439,5.94,0.814,6.167,3.633
			c-0.027,2.89-5.655,4.208-4.556,7.231c0.395,1.442,4.28,1.71,4.73,3.358c0.453,1.65-1.01,2.273-1.375,3.925
			c-0.926,3.578,0.989,6.601,4.93,7.074c2.872,0.543,5.938-1.182,8.837-1.532c0.507-0.139,2.197,0.063,2.449-0.005
			c-0.252,0.068,3.293-0.9,2.729-0.97c1.436,0.273,2.617-1.38,2.789,1.233c0.311,2.131-3.516,4.065-4.022,6.198
			c-0.338,0.756,0.622,2.27,0.481,2.75c-0.535,1.033-2.054,1.448-2.393,2.205c-1.602,3.099-1.234,5.437-1.147,8.738
			c-0.028,0.894-0.224,3.163,0.199,3.713c1.55,2.679,1.662,1.097,4.278-0.285c8.499-4.763,9.423-10.336,11.529-17.562
			c3.006-9.909,3.483-15.137-1.844-23.654c-3.606-5.22-5.692-12.85-12.507-15.861c-3.406-1.506-22.322-2.98-23.304,2.387"/>
	</g>
	<g clip-path="url(#SVGID_2_)">
		<path fill="#FFFFFF" d="M475.553,296.986c0.525,1.312,3.151,2.626,3.151,3.938c-0.263,1.051-2.888,1.839-3.414,2.89
			c-1.05,2.362-0.526,3.938,1.05,5.776c2.625,3.415,7.353,2.89,8.928,7.354c0.788,2.625-0.263,4.988-1.051,7.353
			c-1.05,2.624,1.051,2.363-1.838,3.676c-2.888,1.051-6.563-2.101-9.19-1.052c-2.889,1.052-1.838,2.365-1.313,4.991
			c1.05,4.727,2.101,3.149-1.313,7.089c-1.576,1.839-2.626,4.727-4.726,5.515c-2.627,1.051-2.889-1.05-4.99-1.05
			c-4.728,0.262-7.09,6.565-12.079,2.626c-8.141-6.565-3.939-28.095,0.263-35.712c3.938-6.828,14.179-10.768,21.27-13.131
			c1.838-0.524,6.303-2.626,5.777,0.788"/>
	</g>
</g>
<g>
	<path fill="#FFFFFF" d="M505.878,321.624c4.725,3.347,14.771,0.195,18.118-4.53c3.939-5.515-8.468-8.47-11.422-11.226
		c-2.955-2.759-5.515-3.94-6.695,1.575c-0.395,1.575,0.59,4.529-0.198,5.909c-0.985,1.771-2.757,0.984-4.333,2.163
		c-3.938,2.958,1.182,5.911,4.333,6.304"/>
</g>
<circle fill="none" stroke="#FECF0A" stroke-width="3" stroke-miterlimit="10" cx="491.192" cy="333.683" r="38.01"/>
</svg>
