<?xml version="1.0" encoding="utf-8"?>
<!-- Generator: Adobe Illustrator 16.0.0, SVG Export Plug-In . SVG Version: 6.00 Build 0)  -->
<!DOCTYPE svg PUBLIC "-//W3C//DTD SVG 1.1//EN" "http://www.w3.org/Graphics/SVG/1.1/DTD/svg11.dtd">
<svg version="1.1" xmlns="http://www.w3.org/2000/svg" xmlns:xlink="http://www.w3.org/1999/xlink" x="0px" y="0px" width="360px"
	 height="360px" viewBox="0 0 360 360" enable-background="new 0 0 360 360" xml:space="preserve">
<g id="brown_background_for_context">
</g>
<g id="background_circles">
	<circle fill="#3DAAA1" cx="180" cy="190.344" r="119.116"/>
</g>
<g id="white_imagery__x2B__text">
	<g>
		<path fill="none" stroke="#FFFFFF" stroke-miterlimit="10" d="M162.381,205.1l0.867-1.984l13.426,1.984l9.565,5.252
			C182.405,211.957,169.062,210.906,162.381,205.1z"/>
		<circle fill="none" stroke="#FFFFFF" stroke-width="2" stroke-miterlimit="10" cx="180.4" cy="180.042" r="30.863"/>
		<path fill="none" stroke="#FFFFFF" stroke-miterlimit="10" d="M167.104,152.183l1.548,3.778l-7.531,9.169l-8.351,7.368
			l-1.807-1.75C151.623,165.28,159.806,154.887,167.104,152.183z"/>
		<path fill="none" stroke="#FFFFFF" stroke-miterlimit="10" d="M189.848,150.654v3.506l-9.447,3.275l-11.749-1.474l-1.548-3.778
			C169.961,148.92,184.114,148.141,189.848,150.654z"/>
		<path fill="none" stroke="#FFFFFF" stroke-miterlimit="10" d="M205.685,162.34h-4.941l-10.896-8.181v-3.506
			C197.767,152.808,201.13,157.586,205.685,162.34z"/>
		<path fill="none" stroke="#FFFFFF" stroke-miterlimit="10" d="M210.926,184.618l-4.288-1.314l-3.93-9.987l-1.965-10.976h4.941
			C207.915,166.047,212.268,172.343,210.926,184.618z"/>
		<path fill="none" stroke="#FFFFFF" stroke-miterlimit="10" d="M198.421,205.1l1.34-11.808l6.877-9.988l4.288,1.314
			C211.058,190.181,204.503,201.688,198.421,205.1z"/>
		<path fill="#FFFFFF" d="M186.239,210.352l-9.565-5.252l1.802-10.897l12.116-6.313l9.169,5.403l-1.34,11.808
			C197.408,205.801,192.078,209.798,186.239,210.352z"/>
		<path fill="none" stroke="#FFFFFF" stroke-miterlimit="10" d="M150.126,186.061l1.497-1.442l7.368,7.363l4.257,11.134
			l-0.867,1.984C158.139,202.53,150.216,191.981,150.126,186.061z"/>
		<path fill="none" stroke="#FFFFFF" stroke-miterlimit="10" d="M152.77,172.498l-1.146,12.121L152.77,172.498z"/>
		<polygon fill="#FFFFFF" points="161.12,165.13 168.651,173.479 167.104,186.579 158.991,191.981 151.623,184.618 152.77,172.498 
					"/>
		<polygon fill="none" stroke="#FFFFFF" stroke-miterlimit="10" points="180.4,167.258 168.651,173.479 161.12,165.13 
			168.651,155.961 180.4,157.435 		"/>
		<polygon fill="#FFFFFF" points="192.065,175.445 180.4,167.258 180.4,157.435 189.848,154.16 200.743,162.34 202.708,173.316 		
			"/>
		<polygon fill="none" stroke="#FFFFFF" stroke-miterlimit="10" points="190.592,187.889 192.065,175.445 202.708,173.316 
			206.638,183.304 199.761,193.292 		"/>
		<polygon fill="none" stroke="#FFFFFF" stroke-miterlimit="10" points="167.104,186.579 178.476,194.202 176.674,205.1 
			163.248,203.115 158.991,191.981 		"/>
	</g>
	<g>
		<rect x="101.219" y="104.481" fill="none" width="158.638" height="38.629"/>
		<path fill="#FFFFFF" d="M161.961,111.359v3.924h3.637v4.859h-3.637v13.138h-5.183v-13.138h-2.34v-4.859h2.34v-5.255
			c0-3.528,1.655-5.759,5.039-5.759c1.476,0,2.952,0.396,3.78,0.828v5.255c-0.685-0.288-1.404-0.54-2.269-0.54
			C162.537,109.812,161.961,110.315,161.961,111.359z"/>
		<path fill="#FFFFFF" d="M184.568,115.283v17.998h-5.184v-2.16c-1.152,1.476-2.952,2.52-5.184,2.52
			c-3.455,0-6.119-2.592-6.119-7.451v-10.906h5.184v9.719c0,2.448,1.332,3.815,3.096,3.815c1.619,0,2.808-1.116,3.023-3.132v-10.402
			H184.568z"/>
		<path fill="#FFFFFF" d="M205.52,122.374v10.907h-5.184v-9.719c0-2.448-1.332-3.815-3.096-3.815c-1.619,0-2.808,1.116-3.023,3.131
			v10.403h-5.184v-17.998h5.184v2.16c1.152-1.476,2.952-2.52,5.184-2.52C202.855,114.923,205.52,117.515,205.52,122.374z"/>
	</g>
	<g>
		<rect x="102.144" y="220.855" fill="none" width="158.639" height="58.804"/>
		<path fill="#FFFFFF" d="M146.21,232.955c0,3.168-2.091,5.654-5.149,5.654c-1.627,0-2.904-0.77-3.762-1.914v6.16h-2.068v-15.401
			h2.068v1.761c0.857-1.145,2.135-1.915,3.762-1.915C144.119,227.3,146.21,229.786,146.21,232.955z M144.076,232.955
			c0-2.024-1.387-3.652-3.367-3.652s-3.41,1.716-3.41,3.652c0,1.936,1.43,3.631,3.41,3.631S144.076,234.957,144.076,232.955z"/>
		<path fill="#FFFFFF" d="M154.062,227.234v2.441c-1.562-0.264-3.168,0.572-3.168,2.949l-0.021-0.088v5.918h-2.068v-11.001h2.068
			v1.892C151.467,228.225,152.588,227.234,154.062,227.234z"/>
		<path fill="#FFFFFF" d="M154.898,232.955c0-3.059,2.287-5.678,5.61-5.678c3.322,0,5.61,2.619,5.61,5.678s-2.288,5.676-5.61,5.676
			C157.186,238.631,154.898,236.014,154.898,232.955z M163.984,232.933c0-1.937-1.363-3.587-3.476-3.587
			c-2.068,0-3.499,1.65-3.499,3.587c0,1.958,1.431,3.631,3.499,3.631C162.621,236.563,163.984,234.891,163.984,232.933z"/>
		<path fill="#FFFFFF" d="M177.713,227.454l-4.818,11.046h-1.32l-4.861-11.046h2.244l3.277,7.987l3.257-7.987H177.713z"/>
		<path fill="#FFFFFF" d="M179.207,223.955c0-0.77,0.596-1.386,1.408-1.386c0.814,0,1.408,0.616,1.408,1.386
			c0,0.814-0.594,1.431-1.408,1.431C179.803,225.386,179.207,224.77,179.207,223.955z M179.582,227.454h2.068v11.001h-2.068V227.454
			z"/>
		<path fill="#FFFFFF" d="M195.6,220.854v17.602h-2.068v-1.76c-0.859,1.145-2.135,1.914-3.764,1.914
			c-3.059,0-5.148-2.486-5.148-5.654c0-3.169,2.09-5.655,5.148-5.655c1.629,0,2.904,0.771,3.764,1.915v-8.361H195.6z
			 M193.531,232.955c0-1.937-1.432-3.631-3.41-3.631c-1.98,0-3.367,1.629-3.367,3.631c0,2.023,1.387,3.652,3.367,3.652
			C192.1,236.607,193.531,234.891,193.531,232.955z"/>
		<path fill="#FFFFFF" d="M198.854,223.955c0-0.77,0.594-1.386,1.408-1.386s1.408,0.616,1.408,1.386
			c0,0.814-0.594,1.431-1.408,1.431S198.854,224.77,198.854,223.955z M199.227,227.454h2.068v11.001h-2.068V227.454z"/>
		<path fill="#FFFFFF" d="M214.453,232.141v6.314h-2.068v-6.006c0-2.179-1.123-3.322-2.686-3.322c-1.539,0-2.684,1.144-2.684,3.322
			v6.006h-2.068v-11.001h2.068v1.54c0.639-1.034,1.805-1.76,3.322-1.76C212.494,227.234,214.453,228.862,214.453,232.141z"/>
		<path fill="#FFFFFF" d="M227.719,237.994c0,3.365-2.619,5.016-5.238,5.016c-1.672,0-2.969-0.483-4.18-1.166l0.021-2.178
			c1.232,0.857,2.641,1.386,3.939,1.386c2.023,0,3.432-1.144,3.432-3.587v-0.836c-0.857,1.188-2.156,1.98-3.807,1.98
			c-3.059,0-5.148-2.486-5.148-5.654c0-3.169,2.09-5.655,5.148-5.655c1.629,0,2.928,0.771,3.764,1.937v-1.782h2.045L227.719,237.994
			z M225.65,232.955c0-1.937-1.432-3.631-3.41-3.631c-1.98,0-3.367,1.629-3.367,3.631c0,2.023,1.387,3.652,3.367,3.652
			C224.219,236.607,225.65,234.891,225.65,232.955z"/>
		<path fill="#FFFFFF" d="M113.539,259.894l1.298-1.54c0.683,0.66,1.628,1.275,2.663,1.275c0.924,0,1.605-0.484,1.605-1.21
			c0-2.134-5.259-1.342-5.236-5.083c0-1.672,1.386-3.059,3.543-3.059c1.539-0.021,2.838,0.793,3.52,1.562l-1.21,1.519
			c-0.483-0.44-1.364-1.078-2.288-1.078c-0.836,0-1.43,0.44-1.43,1.101c-0.023,1.98,5.258,1.254,5.258,5.082
			c-0.021,1.805-1.54,3.168-3.828,3.168C116.047,261.631,114.441,260.905,113.539,259.894z"/>
		<path fill="#FFFFFF" d="M134.727,255.955c0,3.168-2.09,5.654-5.148,5.654c-1.629,0-2.904-0.77-3.764-1.914v6.16h-2.067v-15.401
			h2.067v1.761c0.859-1.145,2.135-1.915,3.764-1.915C132.637,250.3,134.727,252.786,134.727,255.955z M132.592,255.955
			c0-2.024-1.386-3.652-3.366-3.652c-1.979,0-3.411,1.716-3.411,3.652c0,1.936,1.432,3.631,3.411,3.631
			C131.206,259.586,132.592,257.957,132.592,255.955z"/>
		<path fill="#FFFFFF" d="M147.618,250.454v11.001h-2.068v-1.76c-0.858,1.145-2.134,1.914-3.763,1.914
			c-3.059,0-5.148-2.486-5.148-5.654c0-3.169,2.09-5.655,5.148-5.655c1.629,0,2.904,0.771,3.763,1.915v-1.761H147.618z
			 M145.55,255.955c0-1.937-1.431-3.631-3.411-3.631c-1.979,0-3.365,1.629-3.365,3.631c0,2.023,1.386,3.652,3.365,3.652
			C144.119,259.607,145.55,257.891,145.55,255.955z"/>
		<path fill="#FFFFFF" d="M150.213,255.955c0-3.059,2.199-5.678,5.61-5.678c1.519,0,2.574,0.418,3.433,1.101v2.398
			c-0.66-0.748-1.849-1.431-3.257-1.431c-2.179,0-3.675,1.607-3.675,3.609c0,1.98,1.496,3.608,3.675,3.608
			c1.408,0,2.597-0.683,3.257-1.431v2.398c-0.858,0.682-1.914,1.1-3.433,1.1C152.412,261.631,150.213,259.014,150.213,255.955z"/>
		<path fill="#FFFFFF" d="M171.884,256.791h-8.405c0.33,1.738,1.694,2.838,3.586,2.838c1.453,0,2.574-0.461,3.631-1.188v2.09
			c-0.924,0.682-2.244,1.1-3.74,1.1c-3.498,0-5.611-2.596-5.611-5.676c0-3.059,2.156-5.655,5.391-5.655
			C170.168,250.3,172.125,253.314,171.884,256.791z M163.5,255.074h6.205c-0.308-1.605-1.43-2.706-3.014-2.706
			C165.019,252.368,163.83,253.49,163.5,255.074z"/>
		<path fill="#FFFFFF" d="M186.578,252.434h-2.266v9.021h-2.068v-9.021h-1.408v-1.979h1.408v-2.948h2.068v2.948h2.266V252.434z"/>
		<path fill="#FFFFFF" d="M187.414,255.955c0-3.059,2.289-5.678,5.611-5.678s5.611,2.619,5.611,5.678s-2.289,5.676-5.611,5.676
			S187.414,259.014,187.414,255.955z M196.502,255.933c0-1.937-1.365-3.587-3.477-3.587c-2.068,0-3.498,1.65-3.498,3.587
			c0,1.958,1.43,3.631,3.498,3.631C195.137,259.563,196.502,257.891,196.502,255.933z"/>
		<path fill="#FFFFFF" d="M219.58,255.955c0,3.168-2.09,5.654-5.148,5.654c-1.629,0-2.904-0.77-3.764-1.914v6.16H208.6v-15.401
			h2.068v1.761c0.859-1.145,2.135-1.915,3.764-1.915C217.49,250.3,219.58,252.786,219.58,255.955z M217.445,255.955
			c0-2.024-1.387-3.652-3.365-3.652c-1.98,0-3.412,1.716-3.412,3.652c0,1.936,1.432,3.631,3.412,3.631
			C216.059,259.586,217.445,257.957,217.445,255.955z"/>
		<path fill="#FFFFFF" d="M222.174,243.854h2.068v17.602h-2.068V243.854z"/>
		<path fill="#FFFFFF" d="M237.818,250.454v11.001h-2.068v-1.76c-0.859,1.145-2.135,1.914-3.764,1.914
			c-3.059,0-5.148-2.486-5.148-5.654c0-3.169,2.09-5.655,5.148-5.655c1.629,0,2.904,0.771,3.764,1.915v-1.761H237.818z
			 M235.75,255.955c0-1.937-1.432-3.631-3.41-3.631c-1.98,0-3.367,1.629-3.367,3.631c0,2.023,1.387,3.652,3.367,3.652
			C234.318,259.607,235.75,257.891,235.75,255.955z"/>
		<path fill="#FFFFFF" d="M250.842,250.454l-6.447,15.401h-2.111l1.936-4.488l-4.576-10.913h2.244l3.367,8.581l3.344-8.581H250.842z
			"/>
	</g>
</g>
</svg>
