<?xml version="1.0" encoding="utf-8"?>
<!-- Generator: Adobe Illustrator 16.0.0, SVG Export Plug-In . SVG Version: 6.00 Build 0)  -->
<!DOCTYPE svg PUBLIC "-//W3C//DTD SVG 1.1//EN" "http://www.w3.org/Graphics/SVG/1.1/DTD/svg11.dtd">
<svg version="1.1" xmlns="http://www.w3.org/2000/svg" xmlns:xlink="http://www.w3.org/1999/xlink" x="0px" y="0px" width="360px"
	 height="360px" viewBox="0 0 360 360" enable-background="new 0 0 360 360" xml:space="preserve">
<g id="brown_background_for_context">
</g>
<g id="background_circles">
	<circle fill="#F27243" cx="183.659" cy="183.252" r="119.116"/>
</g>
<g id="white_imagery__x2B__text">
	<g>
		<g>
			<path fill="#FFFFFF" d="M188.177,238.977h34.357c0,0,20.289,0,20.289-23.264c0-22.455-18.936-22.455-18.936-22.455h-35.439
				L188.177,238.977z"/>
			<path fill="none" stroke="#FFFFFF" stroke-width="4" stroke-miterlimit="10" d="M153.553,239.379h69.255
				c0,0,20.288,0,20.288-23.263c0-22.455-18.938-22.455-18.938-22.455h-70.604c0,0-20.288,0-20.288,22.455
				C133.265,239.379,153.553,239.379,153.553,239.379z"/>
			
				<line fill="none" stroke="#F27243" stroke-width="5" stroke-linecap="round" stroke-miterlimit="10" x1="196.026" y1="231.722" x2="218.751" y2="231.722"/>
			
				<line fill="none" stroke="#F27243" stroke-width="5" stroke-linecap="round" stroke-miterlimit="10" x1="225.513" y1="231.722" x2="227.142" y2="231.722"/>
		</g>
		<g>
			<path fill="#FFFFFF" d="M176.808,185.928l23.704-24.868c0,0,14.003-14.688-2.84-30.737c-16.255-15.495-29.317-1.786-29.317-1.786
				l-24.453,25.65L176.808,185.928z"/>
			<path fill="#F27243" d="M145.301,152.811l-23.705,24.87c0,0-13.999,14.685,2.84,30.735c16.256,15.492,29.321,1.786,29.321,1.786
				l24.45-25.652L145.301,152.811z"/>
			<path fill="none" stroke="#FFFFFF" stroke-width="4" stroke-miterlimit="10" d="M153.212,211.273l47.779-50.133
				c0,0,13.998-14.685-2.841-30.736c-16.255-15.494-29.321-1.784-29.321-1.784l-48.713,51.107c0,0-13.998,14.687,2.256,30.179
				C139.212,225.958,153.212,211.273,153.212,211.273z"/>
			
				<line fill="none" stroke="#F27243" stroke-width="5" stroke-linecap="round" stroke-miterlimit="10" x1="178.252" y1="175.556" x2="193.929" y2="159.107"/>
			
				<line fill="none" stroke="#F27243" stroke-width="5" stroke-linecap="round" stroke-miterlimit="10" x1="199.194" y1="153.579" x2="199.991" y2="152.746"/>
		</g>
	</g>
</g>
</svg>
