<?xml version="1.0" encoding="utf-8"?>
<!-- Generator: Adobe Illustrator 16.0.0, SVG Export Plug-In . SVG Version: 6.00 Build 0)  -->
<!DOCTYPE svg PUBLIC "-//W3C//DTD SVG 1.1//EN" "http://www.w3.org/Graphics/SVG/1.1/DTD/svg11.dtd">
<svg version="1.1" xmlns="http://www.w3.org/2000/svg" xmlns:xlink="http://www.w3.org/1999/xlink" x="0px" y="0px" width="360px"
	 height="360px" viewBox="0 0 360 360" enable-background="new 0 0 360 360" xml:space="preserve">
<g id="brown_background_for_context">
</g>
<g id="background_circles">
	<circle fill="#FFCE01" cx="185.017" cy="187.592" r="119.117"/>
</g>
<g id="white_imagery__x2B__text">
	<g>
		<rect x="71.038" y="122.841" fill="none" width="219.95" height="38.629"/>
		<path fill="#FFFFFF" d="M113.812,149.237h-4.752V137.19h-5.743v12.047h-4.753V137.19H96.42v-4.456h2.145v-4.819
			c0-3.234,1.519-5.281,4.621-5.281c1.354,0,2.706,0.363,3.465,0.759v4.819c-0.627-0.264-1.287-0.495-2.078-0.495
			c-0.727,0-1.255,0.462-1.255,1.419v3.598h10.495V149.237z M108.434,127.223c0-1.65,1.32-2.97,2.97-2.97
			c1.716,0,3.003,1.32,3.003,2.97s-1.287,3.003-3.003,3.003C109.754,130.227,108.434,128.874,108.434,127.223z"/>
		<path fill="#FFFFFF" d="M135.56,140.986c0,4.719-2.904,8.482-7.426,8.482c-2.112,0-3.763-0.924-4.918-2.31v2.079h-4.753v-26.404
			h4.753v11.948c1.155-1.386,2.806-2.311,4.918-2.311C132.655,132.471,135.56,136.233,135.56,140.986z M130.576,140.986
			c0-2.179-1.485-3.895-3.664-3.895c-2.178,0-3.696,1.815-3.696,3.895c0,2.046,1.519,3.895,3.696,3.895
			C129.091,144.881,130.576,143.131,130.576,140.986z"/>
		<path fill="#FFFFFF" d="M153.973,142.504h-11.32c0.561,1.782,2.145,2.739,4.191,2.739c1.849,0,3.564-0.528,5.215-1.32l0.033,4.258
			c-1.42,0.792-3.367,1.32-5.611,1.32c-5.379,0-8.581-3.862-8.581-8.515c0-4.588,3.235-8.516,8.218-8.516
			C151.498,132.471,154.436,137.059,153.973,142.504z M142.652,139.534h6.699c-0.461-1.65-1.683-2.673-3.234-2.673
			C144.401,136.86,143.114,137.95,142.652,139.534z"/>
		<path fill="#FFFFFF" d="M166.479,132.372v5.479c-2.111-0.462-4.588,0-4.588,3.399v7.987h-4.752v-16.502h4.752v2.476
			C162.914,133.626,164.498,132.372,166.479,132.372z"/>
		<path fill="#FFFFFF" d="M193.043,149.237c-0.33-0.429-0.692-0.858-1.056-1.32c-1.419,1.089-3.169,1.716-5.215,1.716
			c-4.423,0-7.888-2.508-7.888-6.502c0-3.135,1.947-4.917,4.125-6.238c-1.254-1.584-2.441-3.333-2.441-5.413
			c0-2.607,2.013-5.776,6.204-5.776c3.96,0,6.04,3.036,6.04,5.809c0,3.003-1.98,4.786-4.093,6.205l2.739,3.399
			c0.33-0.99,0.495-2.112,0.528-3.367h4.423c0,2.673-0.627,5.215-1.849,7.261c1.155,1.452,2.277,2.904,3.333,4.225H193.043z
			 M189.182,144.485c-1.254-1.551-2.508-3.037-3.696-4.522c-0.957,0.792-1.617,1.65-1.617,2.739c0,1.485,1.287,2.509,2.904,2.509
			C187.664,145.211,188.488,144.947,189.182,144.485z M186.41,134.913c1.254-0.792,2.145-1.65,2.145-2.838
			c0-0.924-0.627-1.848-1.782-1.848c-1.056,0-1.815,0.924-1.815,1.848C184.957,133.032,185.65,133.989,186.41,134.913z"/>
		<path fill="#FFFFFF" d="M216.438,129.137v3.598h3.334v4.456h-3.334v12.047h-4.752V137.19h-2.145v-4.456h2.145v-4.819
			c0-3.234,1.518-5.281,4.621-5.281c1.354,0,2.707,0.363,3.465,0.759v4.819c-0.627-0.264-1.287-0.495-2.078-0.495
			C216.967,127.718,216.438,128.18,216.438,129.137z"/>
		<path fill="#FFFFFF" d="M237.164,132.735v16.502h-4.754v-1.98c-1.057,1.354-2.705,2.311-4.752,2.311
			c-3.168,0-5.611-2.376-5.611-6.832v-10h4.752v8.911c0,2.245,1.223,3.499,2.84,3.499c1.484,0,2.574-1.023,2.771-2.871v-9.539
			H237.164z"/>
		<path fill="#FFFFFF" d="M256.469,142.504h-11.322c0.562,1.782,2.146,2.739,4.193,2.739c1.848,0,3.564-0.528,5.215-1.32
			l0.031,4.258c-1.418,0.792-3.365,1.32-5.609,1.32c-5.381,0-8.582-3.862-8.582-8.515c0-4.588,3.234-8.516,8.219-8.516
			C253.992,132.471,256.93,137.059,256.469,142.504z M245.146,139.534h6.701c-0.463-1.65-1.684-2.673-3.234-2.673
			C246.896,136.86,245.609,137.95,245.146,139.534z"/>
		<path fill="#FFFFFF" d="M259.633,122.833h4.754v26.404h-4.754V122.833z"/>
	</g>
	<g>
		<rect x="87.825" y="228.863" fill="none" width="190.927" height="58.804"/>
		<path fill="#FFFFFF" d="M121.69,246c0,3.365-2.618,5.016-5.237,5.016c-1.672,0-2.97-0.483-4.18-1.166l0.021-2.178
			c1.232,0.857,2.641,1.386,3.938,1.386c2.024,0,3.433-1.144,3.433-3.587v-0.836c-0.857,1.188-2.156,1.98-3.807,1.98
			c-3.059,0-5.148-2.486-5.148-5.654c0-3.169,2.09-5.655,5.148-5.655c1.629,0,2.927,0.771,3.763,1.937v-1.782h2.046L121.69,246z
			 M119.622,240.961c0-1.937-1.431-3.631-3.411-3.631c-1.979,0-3.365,1.629-3.365,3.631c0,2.023,1.386,3.652,3.365,3.652
			C118.191,244.613,119.622,242.896,119.622,240.961z"/>
		<path fill="#FFFFFF" d="M124.945,231.961c0-0.77,0.594-1.386,1.408-1.386c0.813,0,1.408,0.616,1.408,1.386
			c0,0.814-0.595,1.431-1.408,1.431C125.539,233.392,124.945,232.775,124.945,231.961z M125.318,235.46h2.068v11.001h-2.068V235.46z
			"/>
		<path fill="#FFFFFF" d="M140.28,235.46l-4.819,11.046h-1.32l-4.862-11.046h2.245l3.277,7.987l3.257-7.987H140.28z"/>
		<path fill="#FFFFFF" d="M141.774,231.961c0-0.77,0.594-1.386,1.408-1.386c0.813,0,1.408,0.616,1.408,1.386
			c0,0.814-0.595,1.431-1.408,1.431C142.368,233.392,141.774,232.775,141.774,231.961z M142.148,235.46h2.068v11.001h-2.068V235.46z
			"/>
		<path fill="#FFFFFF" d="M157.373,240.146v6.314h-2.068v-6.006c0-2.179-1.121-3.323-2.684-3.323c-1.541,0-2.685,1.145-2.685,3.323
			v6.006h-2.068V235.46h2.068V237c0.638-1.034,1.804-1.76,3.322-1.76C155.415,235.24,157.373,236.868,157.373,240.146z"/>
		<path fill="#FFFFFF" d="M170.64,246c0,3.365-2.618,5.016-5.237,5.016c-1.672,0-2.97-0.483-4.18-1.166l0.021-2.178
			c1.232,0.857,2.641,1.386,3.938,1.386c2.024,0,3.433-1.144,3.433-3.587v-0.836c-0.857,1.188-2.156,1.98-3.807,1.98
			c-3.059,0-5.148-2.486-5.148-5.654c0-3.169,2.09-5.655,5.148-5.655c1.629,0,2.927,0.771,3.763,1.937v-1.782h2.046L170.64,246z
			 M168.571,240.961c0-1.937-1.431-3.631-3.411-3.631c-1.979,0-3.365,1.629-3.365,3.631c0,2.023,1.386,3.652,3.365,3.652
			C167.141,244.613,168.571,242.896,168.571,240.961z"/>
		<path fill="#FFFFFF" d="M197.547,235.46l-5.611,11.046h-1.54l-2.003-4.049l-1.979,4.049h-1.562l-5.589-11.046h2.2l4.225,8.515
			l1.694-3.432l-2.553-5.083h2.113l1.451,3.169l1.475-3.169h2.112l-2.574,5.061l1.738,3.454l4.202-8.515H197.547z"/>
		<path fill="#FFFFFF" d="M209.03,235.46v11.001h-2.068v-1.76c-0.858,1.145-2.135,1.914-3.763,1.914
			c-3.059,0-5.148-2.486-5.148-5.654c0-3.169,2.09-5.655,5.148-5.655c1.628,0,2.904,0.771,3.763,1.915v-1.761H209.03z
			 M206.962,240.961c0-1.937-1.431-3.631-3.41-3.631c-1.98,0-3.367,1.629-3.367,3.631c0,2.023,1.387,3.652,3.367,3.652
			C205.531,244.613,206.962,242.896,206.962,240.961z"/>
		<path fill="#FFFFFF" d="M217.565,235.24v2.441c-1.562-0.264-3.168,0.572-3.168,2.949l-0.022-0.088v5.918h-2.068V235.46h2.068
			v1.892C214.97,236.23,216.092,235.24,217.565,235.24z"/>
		<path fill="#FFFFFF" d="M236.025,240.059l-0.022,6.402h-2.068v-6.051c0-1.98-0.99-3.256-2.552-3.256
			c-1.585,0-2.575,1.275-2.575,3.322v5.984h-2.067v-6.051c0-1.98-1.013-3.256-2.575-3.256c-1.562,0-2.552,1.275-2.552,3.322
			l-0.022-0.066v6.051h-2.068V235.46h2.068v1.496c0.616-0.968,1.717-1.716,3.213-1.716c1.43,0,2.772,0.748,3.477,2.222
			c0.682-1.21,1.914-2.222,3.696-2.222C234.243,235.24,236.025,236.868,236.025,240.059z"/>
		<path fill="#FFFFFF" d="M243.878,237.439h-2.267v9.021h-2.068v-9.021h-1.408v-1.979h1.408v-2.948h2.068v2.948h2.267V237.439z"/>
		<path fill="#FFFFFF" d="M255.362,240.146v6.314h-2.068v-6.006c0-2.179-1.122-3.323-2.684-3.323c-1.541,0-2.685,1.145-2.685,3.323
			l-0.022-0.088v6.094h-2.068v-17.602h2.068v8.162c0.639-1.033,1.805-1.781,3.345-1.781
			C253.404,235.24,255.362,236.868,255.362,240.146z"/>
		<path fill="#FFFFFF" d="M149.576,269.461c-0.353-0.439-0.705-0.857-1.078-1.298c-0.969,0.946-2.223,1.54-3.785,1.54
			c-2.662,0-4.906-1.605-4.906-4.202c0-2.156,1.363-3.323,2.859-4.247c-0.901-1.078-1.914-2.376-1.914-3.784
			c0-1.673,1.232-3.696,3.917-3.696c2.509,0,3.829,1.914,3.829,3.696c0,2.003-1.453,3.146-2.993,4.137
			c0.726,0.858,1.694,2.046,2.751,3.322c0.33-0.88,0.483-1.937,0.483-3.146h2.003c0.021,1.738-0.353,3.454-1.101,4.841l2.311,2.838
			H149.576z M147.243,266.667c-1.166-1.364-2.332-2.729-3.41-4.005c-1.056,0.727-1.893,1.519-1.893,2.662
			c0,1.475,1.343,2.377,2.794,2.377C145.77,267.701,146.605,267.327,147.243,266.667z M144.361,260.242
			c1.166-0.704,2.09-1.452,2.09-2.685c0-0.924-0.66-1.782-1.782-1.782c-1.034,0-1.804,0.858-1.804,1.805
			C142.865,258.525,143.656,259.428,144.361,260.242z"/>
		<path fill="#FFFFFF" d="M170.982,264.797h-8.406c0.33,1.738,1.695,2.838,3.587,2.838c1.452,0,2.574-0.462,3.63-1.188v2.09
			c-0.924,0.682-2.244,1.101-3.74,1.101c-3.498,0-5.61-2.597-5.61-5.677c0-3.059,2.156-5.655,5.391-5.655
			C169.266,258.306,171.224,261.32,170.982,264.797z M162.599,263.08h6.204c-0.307-1.605-1.43-2.706-3.014-2.706
			C164.117,260.374,162.929,261.496,162.599,263.08z"/>
		<path fill="#FFFFFF" d="M183.016,263.146v6.314h-2.068v-6.006c0-2.179-1.122-3.323-2.685-3.323c-1.54,0-2.685,1.145-2.685,3.323
			v6.006h-2.068V258.46h2.068V260c0.639-1.034,1.805-1.76,3.322-1.76C181.057,258.24,183.016,259.868,183.016,263.146z"/>
		<path fill="#FFFFFF" d="M195.842,264.797h-8.405c0.33,1.738,1.694,2.838,3.587,2.838c1.451,0,2.574-0.462,3.63-1.188v2.09
			c-0.924,0.682-2.244,1.101-3.74,1.101c-3.499,0-5.61-2.597-5.61-5.677c0-3.059,2.156-5.655,5.391-5.655
			C194.125,258.306,196.084,261.32,195.842,264.797z M187.459,263.08h6.204c-0.308-1.605-1.431-2.706-3.015-2.706
			C188.977,260.374,187.789,261.496,187.459,263.08z"/>
		<path fill="#FFFFFF" d="M203.629,258.24v2.441c-1.562-0.264-3.168,0.572-3.168,2.949l-0.022-0.088v5.918h-2.068V258.46h2.068
			v1.892C201.033,259.23,202.155,258.24,203.629,258.24z"/>
		<path fill="#FFFFFF" d="M215.444,269c0,3.365-2.618,5.016-5.236,5.016c-1.673,0-2.971-0.483-4.181-1.166l0.021-2.178
			c1.232,0.857,2.641,1.386,3.938,1.386c2.024,0,3.433-1.144,3.433-3.587v-0.836c-0.858,1.188-2.156,1.98-3.807,1.98
			c-3.059,0-5.148-2.486-5.148-5.654c0-3.169,2.09-5.655,5.148-5.655c1.628,0,2.927,0.771,3.763,1.937v-1.782h2.046L215.444,269z
			 M213.376,263.961c0-1.937-1.431-3.631-3.41-3.631c-1.98,0-3.367,1.629-3.367,3.631c0,2.023,1.387,3.652,3.367,3.652
			C211.945,267.613,213.376,265.896,213.376,263.961z"/>
		<path fill="#FFFFFF" d="M228.446,258.46l-6.447,15.402h-2.112l1.937-4.489l-4.577-10.913h2.244l3.367,8.581l3.344-8.581H228.446z"
			/>
	</g>
	<g>
		<path fill="#FFFFFF" d="M184.545,200.275l1.506-0.108l-0.149,23.959c-0.922,0.726-2.024-0.132-2.612-0.6L184.545,200.275z"/>
		<path fill="#FFFFFF" d="M172.312,189.188c0.636,4.074,5.354,15.25,10.118,11.478C186.752,196.581,176.305,188.774,172.312,189.188
			z"/>
		<path fill="#FFFFFF" d="M173.826,178.114c-0.273,4.349,5.513,14.954,10.149,12.032
			C188.249,186.106,178.282,177.262,173.826,178.114z"/>
		<path fill="#FFFFFF" d="M176.776,166.703c-0.012,3.08,2.013,14.96,7.695,12.161C188.056,174.308,184.839,173.841,176.776,166.703z
			"/>
		<path fill="#FFFFFF" d="M187.194,156.855c-2.307,1.888-6.545,11.009-0.955,12.593C190.904,170.21,189.646,160.53,187.194,156.855z
			"/>
		<path fill="#FFFFFF" d="M195.695,167.086c-3.567,1.327-10.887,7.806-8.346,10.958
			C192.507,182.374,195.744,170.693,195.695,167.086z"/>
		<path fill="#FFFFFF" d="M197.999,178.644c-4.03,1.764-14.414,5.352-10.616,10.904
			C193.801,194.595,196.131,182.309,197.999,178.644z"/>
		<path fill="#FFFFFF" d="M198.654,190.007c-6.372,2.53-15.124,6.259-10.382,11.274
			C193.012,206.446,197.958,193.295,198.654,190.007z"/>
	</g>
</g>
</svg>
