<?xml version="1.0" encoding="utf-8"?>
<!-- Generator: Adobe Illustrator 16.0.0, SVG Export Plug-In . SVG Version: 6.00 Build 0)  -->
<!DOCTYPE svg PUBLIC "-//W3C//DTD SVG 1.1//EN" "http://www.w3.org/Graphics/SVG/1.1/DTD/svg11.dtd">
<svg version="1.1" xmlns="http://www.w3.org/2000/svg" xmlns:xlink="http://www.w3.org/1999/xlink" x="0px" y="0px" width="360px"
	 height="360px" viewBox="0 0 360 360" enable-background="new 0 0 360 360" xml:space="preserve">
<g id="brown_background_for_context">
</g>
<g id="background_circles">
	<circle fill="#EC6A7C" cx="171.71" cy="190.344" r="119.116"/>
</g>
<g id="white_imagery__x2B__text">
	<g>
		<path fill="none" stroke="#FFFFFF" stroke-width="3" stroke-miterlimit="10" d="M164.634,148.455
			c6.959,0,32.539,9.968,33.103,31.598c6.959,3.197,11.097,14.671-4.702,17.868c-3.95,7.523-31.369,18.412-44.843,11.246
			C132.333,200.266,132.848,152.028,164.634,148.455z"/>
		<path fill="#FFFFFF" d="M154.854,171.213c-2.257-4.326-3.95-14.67,1.128-15.799C159.744,155.226,158.804,164.066,154.854,171.213z
			"/>
		<path fill="#FFFFFF" d="M158.362,173.215c0.066-2.633,1.947-14.67,7.213-12.038C168.012,162.469,166.195,167.196,158.362,173.215z
			"/>
		<path fill="#FFFFFF" d="M159.363,176.855c3.263-2.445,8.222-9.817,9.305-3.522C168.291,176.719,169.453,181.558,159.363,176.855z"
			/>
		<path fill="#FFFFFF" d="M158.112,180.907c4.89,1.276,9.121,1.991,5.903,10.438C161.85,195.563,159.385,191.549,158.112,180.907z"
			/>
		<path fill="#FFFFFF" d="M155.065,185.979c-0.817,3.918-6.229,16.429,1.196,14.891C159.892,199.91,158.96,192.189,155.065,185.979z
			"/>
		<path fill="#FFFFFF" d="M151.848,186.708c-2.974,1.317-9.543,6.779-6.548,12.602C147.558,202.131,151.061,198.934,151.848,186.708
			z"/>
		<path fill="#FFFFFF" d="M152.664,180.617c-4.016-2.257-10.035-4.854-10.035,2.821
			C142.628,188.169,146.067,190.722,152.664,180.617z"/>
		<path fill="#FFFFFF" d="M154.028,176.291c-0.49-4.702-2.637-11.284-6.382-8.652C145.562,169.259,142.123,173.845,154.028,176.291z
			"/>
	</g>
	<g>
		<rect x="90.966" y="106.825" fill="none" width="158.639" height="38.629"/>
		<path fill="#FFFFFF" d="M140.441,113.704v3.924h3.636v4.859h-3.636v13.138h-5.183v-13.138h-2.34v-4.859h2.34v-5.255
			c0-3.528,1.656-5.759,5.039-5.759c1.476,0,2.952,0.396,3.78,0.828v5.255c-0.684-0.288-1.404-0.54-2.268-0.54
			C141.017,112.156,140.441,112.66,140.441,113.704z"/>
		<path fill="#FFFFFF" d="M145.302,126.626c0-5.075,3.815-9.359,9.287-9.359c5.507,0,9.323,4.284,9.323,9.359
			c0,5.04-3.815,9.359-9.323,9.359C149.117,135.985,145.302,131.666,145.302,126.626z M158.62,126.59c0-2.232-1.584-4.14-4.032-4.14
			c-2.375,0-3.995,1.908-3.995,4.14c0,2.268,1.62,4.211,3.995,4.211C157.036,130.802,158.62,128.894,158.62,126.59z"/>
		<path fill="#FFFFFF" d="M166.505,126.626c0-5.075,3.815-9.359,9.287-9.359c5.506,0,9.323,4.284,9.323,9.359
			c0,5.04-3.816,9.359-9.323,9.359C170.321,135.985,166.505,131.666,166.505,126.626z M179.824,126.59
			c0-2.232-1.584-4.14-4.031-4.14c-2.376,0-3.996,1.908-3.996,4.14c0,2.268,1.62,4.211,3.996,4.211
			C178.24,130.802,179.824,128.894,179.824,126.59z"/>
		<path fill="#FFFFFF" d="M206.318,106.829v28.796h-5.184v-2.268c-1.26,1.512-3.059,2.52-5.363,2.52
			c-4.93,0-8.098-4.104-8.098-9.287c0-5.147,3.168-9.251,8.098-9.251c2.305,0,4.104,1.008,5.363,2.52v-13.03H206.318z
			 M201.135,126.59c0-2.232-1.654-4.248-4.031-4.248c-2.375,0-3.994,1.908-3.994,4.248c0,2.375,1.619,4.247,3.994,4.247
			C199.48,130.837,201.135,128.858,201.135,126.59z"/>
	</g>
	<g>
		<rect x="91.891" y="223.199" fill="none" width="158.638" height="58.805"/>
		<path fill="#FFFFFF" d="M110.009,234.484v6.315h-2.068v-6.007c0-2.178-1.122-3.322-2.685-3.322c-1.54,0-2.685,1.145-2.685,3.322
			v6.007h-2.068v-11.001h2.068v1.539c0.638-1.033,1.805-1.76,3.323-1.76C108.05,229.578,110.009,231.207,110.009,234.484z"/>
		<path fill="#FFFFFF" d="M112.295,235.299c0-3.059,2.288-5.677,5.611-5.677c3.322,0,5.611,2.618,5.611,5.677
			s-2.289,5.677-5.611,5.677C114.583,240.976,112.295,238.357,112.295,235.299z M121.383,235.277c0-1.937-1.364-3.587-3.477-3.587
			c-2.068,0-3.499,1.65-3.499,3.587c0,1.958,1.43,3.631,3.499,3.631C120.019,238.908,121.383,237.235,121.383,235.277z"/>
		<path fill="#FFFFFF" d="M135.44,229.799V240.8h-2.068v-1.54c-0.638,1.034-1.804,1.76-3.322,1.76c-2.156,0-4.115-1.628-4.115-4.906
			v-6.314h2.068v6.006c0,2.179,1.122,3.322,2.685,3.322c1.54,0,2.684-1.144,2.684-3.322v-6.006H135.44z"/>
		<path fill="#FFFFFF" d="M143.954,229.578v2.442c-1.562-0.265-3.168,0.572-3.168,2.948l-0.022-0.088v5.919h-2.068v-11.001h2.068
			v1.892C141.357,230.568,142.479,229.578,143.954,229.578z"/>
		<path fill="#FFFFFF" d="M145.911,226.3c0-0.771,0.594-1.386,1.408-1.386c0.814,0,1.408,0.615,1.408,1.386
			c0,0.813-0.594,1.431-1.408,1.431C146.505,227.73,145.911,227.113,145.911,226.3z M146.285,229.799h2.068V240.8h-2.068V229.799z"
			/>
		<path fill="#FFFFFF" d="M151.257,239.238l1.298-1.541c0.682,0.66,1.628,1.276,2.663,1.276c0.924,0,1.606-0.484,1.606-1.21
			c0-2.135-5.259-1.342-5.237-5.083c0-1.673,1.386-3.059,3.542-3.059c1.541-0.022,2.839,0.792,3.521,1.562l-1.21,1.519
			c-0.484-0.44-1.364-1.078-2.288-1.078c-0.836,0-1.431,0.439-1.431,1.1c-0.022,1.98,5.259,1.254,5.259,5.083
			c-0.022,1.804-1.54,3.168-3.828,3.168C153.765,240.976,152.159,240.25,151.257,239.238z"/>
		<path fill="#FFFFFF" d="M170.992,234.484v6.315h-2.068v-6.007c0-2.178-1.122-3.322-2.685-3.322c-1.54,0-2.684,1.145-2.684,3.322
			l-0.022-0.088v6.095h-2.068v-17.603h2.068v8.163c0.638-1.034,1.804-1.782,3.344-1.782
			C169.034,229.578,170.992,231.207,170.992,234.484z"/>
		<path fill="#FFFFFF" d="M174.07,226.3c0-0.771,0.595-1.386,1.408-1.386c0.814,0,1.408,0.615,1.408,1.386
			c0,0.813-0.594,1.431-1.408,1.431C174.665,227.73,174.07,227.113,174.07,226.3z M174.444,229.799h2.068V240.8h-2.068V229.799z"/>
		<path fill="#FFFFFF" d="M189.67,234.484v6.315h-2.068v-6.007c0-2.178-1.122-3.322-2.685-3.322c-1.54,0-2.685,1.145-2.685,3.322
			v6.007h-2.068v-11.001h2.068v1.539c0.639-1.033,1.805-1.76,3.322-1.76C187.712,229.578,189.67,231.207,189.67,234.484z"/>
		<path fill="#FFFFFF" d="M202.936,240.338c0,3.366-2.618,5.017-5.236,5.017c-1.673,0-2.971-0.483-4.181-1.166l0.021-2.179
			c1.232,0.858,2.641,1.387,3.938,1.387c2.024,0,3.433-1.145,3.433-3.587v-0.836c-0.858,1.188-2.156,1.979-3.807,1.979
			c-3.059,0-5.148-2.486-5.148-5.654s2.09-5.654,5.148-5.654c1.628,0,2.927,0.77,3.763,1.936v-1.781h2.046L202.936,240.338z
			 M200.867,235.299c0-1.936-1.431-3.631-3.41-3.631c-1.98,0-3.367,1.629-3.367,3.631c0,2.024,1.387,3.652,3.367,3.652
			C199.437,238.951,200.867,237.235,200.867,235.299z"/>
		<path fill="#FFFFFF" d="M218.356,231.778h-2.267v9.021h-2.068v-9.021h-1.408v-1.979h1.408v-2.949h2.068v2.949h2.267V231.778z"/>
		<path fill="#FFFFFF" d="M229.841,234.484v6.315h-2.068v-6.007c0-2.178-1.122-3.322-2.684-3.322c-1.541,0-2.685,1.145-2.685,3.322
			l-0.022-0.088v6.095h-2.068v-17.603h2.068v8.163c0.639-1.034,1.805-1.782,3.345-1.782
			C227.883,229.578,229.841,231.207,229.841,234.484z"/>
		<path fill="#FFFFFF" d="M242.645,236.135h-8.405c0.33,1.738,1.694,2.839,3.587,2.839c1.452,0,2.574-0.462,3.631-1.188v2.09
			c-0.925,0.683-2.245,1.101-3.741,1.101c-3.498,0-5.61-2.597-5.61-5.677c0-3.059,2.156-5.654,5.391-5.654
			C240.929,229.645,242.887,232.658,242.645,236.135z M234.262,234.419h6.205c-0.309-1.606-1.431-2.706-3.015-2.706
			C235.78,231.713,234.592,232.834,234.262,234.419z"/>
		<path fill="#FFFFFF" d="M118.534,258.299c0,3.168-2.09,5.654-5.149,5.654c-1.628,0-2.926-0.791-3.784-1.957v1.804h-2.068v-17.603
			h2.068v8.383c0.858-1.144,2.156-1.936,3.784-1.936C116.443,252.645,118.534,255.131,118.534,258.299z M116.399,258.299
			c0-2.023-1.386-3.652-3.367-3.652c-1.98,0-3.41,1.717-3.41,3.652c0,1.937,1.43,3.631,3.41,3.631
			C115.013,261.93,116.399,260.301,116.399,258.299z"/>
		<path fill="#FFFFFF" d="M120.424,258.299c0-3.059,2.288-5.677,5.611-5.677c3.322,0,5.611,2.618,5.611,5.677
			s-2.289,5.677-5.611,5.677C122.712,263.976,120.424,261.357,120.424,258.299z M129.511,258.277c0-1.937-1.364-3.587-3.476-3.587
			c-2.068,0-3.499,1.65-3.499,3.587c0,1.958,1.43,3.631,3.499,3.631C128.147,261.908,129.511,260.235,129.511,258.277z"/>
		<path fill="#FFFFFF" d="M144.515,246.197V263.8h-2.068v-1.761c-0.858,1.145-2.134,1.914-3.763,1.914
			c-3.058,0-5.148-2.486-5.148-5.654s2.09-5.654,5.148-5.654c1.628,0,2.905,0.77,3.763,1.914v-8.361H144.515z M142.447,258.299
			c0-1.936-1.43-3.631-3.411-3.631c-1.98,0-3.366,1.629-3.366,3.631c0,2.024,1.386,3.652,3.366,3.652
			C141.017,261.951,142.447,260.235,142.447,258.299z"/>
		<path fill="#FFFFFF" d="M157.209,252.799l-6.447,15.401h-2.112l1.936-4.488l-4.576-10.913h2.244l3.366,8.58l3.345-8.58H157.209z"
			/>
		<path fill="#FFFFFF" d="M174.896,263.8c-0.352-0.44-0.704-0.858-1.078-1.298c-0.968,0.945-2.222,1.54-3.784,1.54
			c-2.662,0-4.907-1.606-4.907-4.202c0-2.156,1.365-3.323,2.861-4.247c-0.902-1.078-1.915-2.376-1.915-3.784
			c0-1.673,1.232-3.697,3.917-3.697c2.509,0,3.828,1.914,3.828,3.697c0,2.002-1.452,3.146-2.992,4.137
			c0.727,0.857,1.694,2.046,2.751,3.322c0.33-0.881,0.483-1.937,0.483-3.146h2.003c0.021,1.738-0.353,3.454-1.101,4.84l2.311,2.839
			H174.896z M172.564,261.006c-1.166-1.365-2.332-2.729-3.41-4.005c-1.057,0.726-1.893,1.519-1.893,2.662
			c0,1.474,1.342,2.376,2.795,2.376C171.091,262.039,171.927,261.666,172.564,261.006z M169.683,254.58
			c1.166-0.703,2.09-1.451,2.09-2.684c0-0.924-0.66-1.783-1.782-1.783c-1.034,0-1.805,0.859-1.805,1.805
			C168.186,252.864,168.979,253.767,169.683,254.58z"/>
		<path fill="#FFFFFF" d="M202.947,257.396l-0.022,6.403h-2.068v-6.051c0-1.98-0.99-3.257-2.552-3.257
			c-1.585,0-2.574,1.276-2.574,3.322v5.985h-2.068v-6.051c0-1.98-1.013-3.257-2.575-3.257c-1.562,0-2.552,1.276-2.552,3.322
			l-0.022-0.065v6.051h-2.068v-11.001h2.068v1.496c0.616-0.969,1.717-1.717,3.213-1.717c1.43,0,2.772,0.748,3.477,2.223
			c0.682-1.211,1.914-2.223,3.696-2.223C201.165,252.578,202.947,254.207,202.947,257.396z"/>
		<path fill="#FFFFFF" d="M206.024,249.3c0-0.771,0.595-1.386,1.408-1.386c0.814,0,1.408,0.615,1.408,1.386
			c0,0.813-0.594,1.431-1.408,1.431C206.619,250.73,206.024,250.113,206.024,249.3z M206.398,252.799h2.068V263.8h-2.068V252.799z"
			/>
		<path fill="#FFFFFF" d="M221.624,257.484v6.315h-2.068v-6.007c0-2.178-1.122-3.322-2.685-3.322c-1.54,0-2.685,1.145-2.685,3.322
			v6.007h-2.068v-11.001h2.068v1.539c0.639-1.033,1.805-1.76,3.322-1.76C219.666,252.578,221.624,254.207,221.624,257.484z"/>
		<path fill="#FFFFFF" d="M234.891,246.197V263.8h-2.068v-1.761c-0.858,1.145-2.135,1.914-3.763,1.914
			c-3.059,0-5.148-2.486-5.148-5.654s2.09-5.654,5.148-5.654c1.628,0,2.904,0.77,3.763,1.914v-8.361H234.891z M232.822,258.299
			c0-1.936-1.431-3.631-3.41-3.631c-1.98,0-3.367,1.629-3.367,3.631c0,2.024,1.387,3.652,3.367,3.652
			C231.392,261.951,232.822,260.235,232.822,258.299z"/>
	</g>
</g>
</svg>
