<?xml version="1.0" encoding="utf-8"?>
<!-- Generator: Adobe Illustrator 16.0.0, SVG Export Plug-In . SVG Version: 6.00 Build 0)  -->
<!DOCTYPE svg PUBLIC "-//W3C//DTD SVG 1.1//EN" "http://www.w3.org/Graphics/SVG/1.1/DTD/svg11.dtd">
<svg version="1.1" xmlns="http://www.w3.org/2000/svg" xmlns:xlink="http://www.w3.org/1999/xlink" x="0px" y="0px" width="360px"
	 height="360px" viewBox="0 0 360 360" enable-background="new 0 0 360 360" xml:space="preserve">
<g id="brown_background_for_context">
</g>
<g id="background_circles">
	<circle fill="#5C5052" cx="180" cy="193.785" r="119.116"/>
</g>
<g id="white_imagery__x2B__text">
	<g>
		<rect x="124.018" y="200.721" fill="#FFFFFF" width="25.707" height="12.854"/>
		<rect x="154.314" y="200.721" fill="#FFFFFF" width="25.706" height="12.854"/>
		<rect x="184.075" y="200.721" fill="#FFFFFF" width="25.707" height="12.854"/>
		<rect x="214.104" y="200.721" fill="#FFFFFF" width="25.706" height="12.854"/>
		<rect x="196.929" y="183.813" fill="#FFFFFF" width="25.707" height="12.853"/>
		<rect x="167.168" y="183.813" fill="#FFFFFF" width="25.706" height="12.853"/>
		<rect x="136.871" y="183.813" fill="#FFFFFF" width="25.707" height="12.853"/>
		<rect x="152.455" y="166.706" fill="#FFFFFF" width="25.706" height="12.853"/>
		<rect x="181.88" y="166.706" fill="#FFFFFF" width="25.706" height="12.853"/>
	</g>
	<g>
		<rect x="101.838" y="123.196" fill="none" width="158.639" height="38.629"/>
		<path fill="#FFFFFF" d="M113.722,128.731v3.162h2.93v3.916h-2.93v10.587h-4.178v-10.587h-1.885v-3.916h1.885v-4.235
			c0-2.843,1.334-4.641,4.061-4.641c1.189,0,2.379,0.319,3.047,0.667v4.235c-0.552-0.232-1.132-0.435-1.828-0.435
			C114.186,127.484,113.722,127.89,113.722,128.731z"/>
		<path fill="#FFFFFF" d="M117.635,139.145c0-4.09,3.075-7.542,7.483-7.542c4.438,0,7.514,3.452,7.514,7.542
			c0,4.061-3.075,7.542-7.514,7.542C120.71,146.687,117.635,143.206,117.635,139.145z M128.367,139.116
			c0-1.798-1.276-3.336-3.249-3.336c-1.914,0-3.22,1.538-3.22,3.336c0,1.828,1.306,3.394,3.22,3.394
			C127.091,142.51,128.367,140.972,128.367,139.116z"/>
		<path fill="#FFFFFF" d="M148.581,131.893v14.503h-4.178v-1.74c-0.928,1.189-2.379,2.03-4.177,2.03
			c-2.784,0-4.931-2.088-4.931-6.004v-8.789h4.176v7.832c0,1.972,1.074,3.075,2.495,3.075c1.306,0,2.263-0.899,2.437-2.524v-8.383
			H148.581z"/>
		<path fill="#FFFFFF" d="M165.458,137.607v8.789h-4.177v-7.832c0-1.972-1.073-3.075-2.495-3.075c-1.305,0-2.262,0.899-2.436,2.524
			v8.383h-4.178v-14.503h4.178v1.74c0.928-1.189,2.378-2.03,4.176-2.03C163.312,131.603,165.458,133.691,165.458,137.607z"/>
		<path fill="#FFFFFF" d="M183.118,123.191v23.206h-4.176v-1.828c-1.016,1.218-2.467,2.031-4.322,2.031
			c-3.975,0-6.527-3.307-6.527-7.484c0-4.148,2.553-7.455,6.527-7.455c1.855,0,3.307,0.812,4.322,2.03v-10.5H183.118z
			 M178.942,139.116c0-1.798-1.334-3.423-3.25-3.423c-1.914,0-3.219,1.538-3.219,3.423c0,1.915,1.305,3.423,3.219,3.423
			C177.608,142.539,178.942,140.943,178.942,139.116z"/>
		<path fill="#FFFFFF" d="M200.983,131.893v14.503h-4.178v-1.856c-1.014,1.247-2.465,2.06-4.35,2.06
			c-3.975,0-6.527-3.307-6.527-7.484c0-4.148,2.553-7.455,6.527-7.455c1.885,0,3.336,0.812,4.35,2.059v-1.827H200.983z
			 M196.778,139.116c0-1.798-1.336-3.423-3.25-3.423s-3.219,1.538-3.219,3.423c0,1.915,1.305,3.423,3.219,3.423
			S196.778,140.943,196.778,139.116z"/>
		<path fill="#FFFFFF" d="M212.378,135.809h-2.9v10.587h-4.176v-10.587h-1.828v-3.916h1.828v-3.887h4.176v3.887h2.9V135.809z"/>
		<path fill="#FFFFFF" d="M214.552,127.049c0-1.45,1.16-2.611,2.611-2.611c1.508,0,2.639,1.161,2.639,2.611s-1.131,2.64-2.639,2.64
			C215.712,129.688,214.552,128.499,214.552,127.049z M215.103,131.893h4.178v14.503h-4.178V131.893z"/>
		<path fill="#FFFFFF" d="M222.642,139.145c0-4.09,3.076-7.542,7.484-7.542c4.438,0,7.514,3.452,7.514,7.542
			c0,4.061-3.076,7.542-7.514,7.542C225.718,146.687,222.642,143.206,222.642,139.145z M233.374,139.116
			c0-1.798-1.275-3.336-3.248-3.336c-1.914,0-3.219,1.538-3.219,3.336c0,1.828,1.305,3.394,3.219,3.394
			C232.099,142.51,233.374,140.972,233.374,139.116z"/>
		<path fill="#FFFFFF" d="M253.763,137.607v8.789h-4.178v-7.832c0-1.972-1.072-3.075-2.494-3.075c-1.305,0-2.262,0.899-2.436,2.524
			v8.383h-4.178v-14.503h4.178v1.74c0.928-1.189,2.377-2.03,4.176-2.03C251.616,131.603,253.763,133.691,253.763,137.607z"/>
	</g>
	<g>
		<rect x="102.764" y="230.571" fill="none" width="158.638" height="58.804"/>
		<path fill="#FFFFFF" d="M132.903,242.67c0,3.168-2.09,5.654-5.148,5.654c-1.628,0-2.926-0.791-3.784-1.957v1.804h-2.068v-17.603
			h2.068v8.383c0.858-1.144,2.156-1.936,3.784-1.936C130.813,237.016,132.903,239.502,132.903,242.67z M130.77,242.67
			c0-2.023-1.386-3.652-3.366-3.652s-3.41,1.717-3.41,3.652c0,1.937,1.43,3.631,3.41,3.631S130.77,244.672,130.77,242.67z"/>
		<path fill="#FFFFFF" d="M144.827,237.17v11.001h-2.068v-1.54c-0.638,1.034-1.805,1.76-3.322,1.76
			c-2.156,0-4.115-1.628-4.115-4.906v-6.314h2.068v6.006c0,2.179,1.123,3.322,2.686,3.322c1.539,0,2.684-1.144,2.684-3.322v-6.006
			H144.827z"/>
		<path fill="#FFFFFF" d="M148.082,233.671c0-0.771,0.594-1.386,1.408-1.386c0.813,0,1.408,0.615,1.408,1.386
			c0,0.813-0.595,1.431-1.408,1.431C148.676,235.102,148.082,234.484,148.082,233.671z M148.456,237.17h2.068v11.001h-2.068V237.17z
			"/>
		<path fill="#FFFFFF" d="M154.176,230.568h2.068v17.603h-2.068V230.568z"/>
		<path fill="#FFFFFF" d="M169.819,230.568v17.603h-2.068v-1.761c-0.858,1.145-2.135,1.914-3.764,1.914
			c-3.058,0-5.148-2.486-5.148-5.654s2.091-5.654,5.148-5.654c1.629,0,2.905,0.77,3.764,1.914v-8.361H169.819z M167.751,242.67
			c0-1.936-1.431-3.631-3.411-3.631c-1.979,0-3.366,1.629-3.366,3.631c0,2.024,1.387,3.652,3.366,3.652
			C166.32,246.322,167.751,244.606,167.751,242.67z"/>
		<path fill="#FFFFFF" d="M173.073,233.671c0-0.771,0.594-1.386,1.408-1.386s1.408,0.615,1.408,1.386
			c0,0.813-0.594,1.431-1.408,1.431S173.073,234.484,173.073,233.671z M173.447,237.17h2.068v11.001h-2.068V237.17z"/>
		<path fill="#FFFFFF" d="M188.673,241.855v6.315h-2.068v-6.007c0-2.178-1.122-3.322-2.685-3.322c-1.54,0-2.685,1.145-2.685,3.322
			v6.007h-2.068V237.17h2.068v1.539c0.639-1.033,1.805-1.76,3.322-1.76C186.715,236.949,188.673,238.578,188.673,241.855z"/>
		<path fill="#FFFFFF" d="M201.939,247.709c0,3.366-2.618,5.017-5.237,5.017c-1.672,0-2.97-0.483-4.18-1.166l0.021-2.179
			c1.232,0.858,2.641,1.387,3.938,1.387c2.024,0,3.433-1.145,3.433-3.587v-0.836c-0.858,1.188-2.156,1.979-3.807,1.979
			c-3.059,0-5.148-2.486-5.148-5.654s2.09-5.654,5.148-5.654c1.628,0,2.927,0.77,3.763,1.936v-1.781h2.046L201.939,247.709z
			 M199.871,242.67c0-1.936-1.431-3.631-3.41-3.631c-1.98,0-3.367,1.629-3.367,3.631c0,2.024,1.387,3.652,3.367,3.652
			C198.44,246.322,199.871,244.606,199.871,242.67z"/>
		<path fill="#FFFFFF" d="M211.903,242.67c0-3.059,2.288-5.677,5.61-5.677c3.323,0,5.611,2.618,5.611,5.677
			s-2.288,5.677-5.611,5.677C214.191,248.347,211.903,245.729,211.903,242.67z M220.99,242.648c0-1.937-1.364-3.587-3.477-3.587
			c-2.068,0-3.498,1.65-3.498,3.587c0,1.958,1.43,3.631,3.498,3.631C219.626,246.279,220.99,244.606,220.99,242.648z"/>
		<path fill="#FFFFFF" d="M235.049,237.17v11.001h-2.068v-1.54c-0.638,1.034-1.804,1.76-3.322,1.76
			c-2.156,0-4.114-1.628-4.114-4.906v-6.314h2.068v6.006c0,2.179,1.122,3.322,2.684,3.322c1.541,0,2.685-1.144,2.685-3.322v-6.006
			H235.049z"/>
		<path fill="#FFFFFF" d="M243.562,236.949v2.442c-1.562-0.265-3.168,0.572-3.168,2.948l-0.022-0.088v5.919h-2.068V237.17h2.068
			v1.892C240.967,237.939,242.089,236.949,243.562,236.949z"/>
		<path fill="#FFFFFF" d="M118.492,265.67c0-3.059,2.2-5.677,5.61-5.677c1.519,0,2.574,0.418,3.433,1.101v2.398
			c-0.66-0.748-1.849-1.431-3.257-1.431c-2.178,0-3.674,1.606-3.674,3.608c0,1.98,1.496,3.609,3.674,3.609
			c1.408,0,2.597-0.683,3.257-1.431v2.397c-0.858,0.683-1.914,1.101-3.433,1.101C120.692,271.347,118.492,268.729,118.492,265.67z"
			/>
		<path fill="#FFFFFF" d="M129.624,265.67c0-3.059,2.288-5.677,5.611-5.677c3.322,0,5.61,2.618,5.61,5.677s-2.288,5.677-5.61,5.677
			C131.912,271.347,129.624,268.729,129.624,265.67z M138.711,265.648c0-1.937-1.364-3.587-3.476-3.587
			c-2.068,0-3.499,1.65-3.499,3.587c0,1.958,1.431,3.631,3.499,3.631C137.347,269.279,138.711,267.606,138.711,265.648z"/>
		<path fill="#FFFFFF" d="M159.92,264.768l-0.022,6.403h-2.067v-6.051c0-1.98-0.99-3.257-2.553-3.257
			c-1.584,0-2.574,1.276-2.574,3.322v5.985h-2.068v-6.051c0-1.98-1.013-3.257-2.574-3.257c-1.562,0-2.552,1.276-2.552,3.322
			l-0.022-0.065v6.051h-2.068V260.17h2.068v1.496c0.616-0.969,1.716-1.717,3.212-1.717c1.431,0,2.772,0.748,3.477,2.223
			c0.682-1.211,1.914-2.223,3.697-2.223C158.138,259.949,159.92,261.578,159.92,264.768z"/>
		<path fill="#FFFFFF" d="M179.5,264.768l-0.021,6.403h-2.068v-6.051c0-1.98-0.99-3.257-2.553-3.257
			c-1.584,0-2.574,1.276-2.574,3.322v5.985h-2.068v-6.051c0-1.98-1.013-3.257-2.574-3.257c-1.562,0-2.552,1.276-2.552,3.322
			l-0.022-0.065v6.051h-2.068V260.17h2.068v1.496c0.616-0.969,1.716-1.717,3.212-1.717c1.431,0,2.772,0.748,3.477,2.223
			c0.682-1.211,1.914-2.223,3.697-2.223C177.718,259.949,179.5,261.578,179.5,264.768z"/>
		<path fill="#FFFFFF" d="M191.929,260.17v11.001h-2.068v-1.54c-0.638,1.034-1.804,1.76-3.322,1.76
			c-2.156,0-4.114-1.628-4.114-4.906v-6.314h2.068v6.006c0,2.179,1.122,3.322,2.684,3.322c1.541,0,2.685-1.144,2.685-3.322v-6.006
			H191.929z"/>
		<path fill="#FFFFFF" d="M204.689,264.855v6.315h-2.068v-6.007c0-2.178-1.122-3.322-2.685-3.322c-1.54,0-2.685,1.145-2.685,3.322
			v6.007h-2.068V260.17h2.068v1.539c0.639-1.033,1.805-1.76,3.322-1.76C202.731,259.949,204.689,261.578,204.689,264.855z"/>
		<path fill="#FFFFFF" d="M207.789,256.671c0-0.771,0.595-1.386,1.408-1.386c0.814,0,1.408,0.615,1.408,1.386
			c0,0.813-0.594,1.431-1.408,1.431C208.384,258.102,207.789,257.484,207.789,256.671z M208.163,260.17h2.068v11.001h-2.068V260.17z
			"/>
		<path fill="#FFFFFF" d="M218.658,262.149h-2.267v9.021h-2.068v-9.021h-1.408v-1.979h1.408v-2.949h2.068v2.949h2.267V262.149z"/>
		<path fill="#FFFFFF" d="M220.615,256.671c0-0.771,0.595-1.386,1.408-1.386c0.814,0,1.408,0.615,1.408,1.386
			c0,0.813-0.594,1.431-1.408,1.431C221.21,258.102,220.615,257.484,220.615,256.671z M220.989,260.17h2.068v11.001h-2.068V260.17z"
			/>
		<path fill="#FFFFFF" d="M236.566,266.506h-8.405c0.33,1.738,1.694,2.839,3.587,2.839c1.452,0,2.574-0.462,3.631-1.188v2.09
			c-0.925,0.683-2.245,1.101-3.741,1.101c-3.498,0-5.61-2.597-5.61-5.677c0-3.059,2.156-5.654,5.391-5.654
			C234.851,260.016,236.809,263.029,236.566,266.506z M228.184,264.79h6.205c-0.309-1.606-1.431-2.706-3.015-2.706
			C229.702,262.084,228.514,263.205,228.184,264.79z"/>
		<path fill="#FFFFFF" d="M238.039,269.609l1.299-1.541c0.682,0.66,1.628,1.276,2.662,1.276c0.924,0,1.606-0.484,1.606-1.21
			c0-2.135-5.259-1.342-5.237-5.083c0-1.673,1.387-3.059,3.543-3.059c1.54-0.022,2.838,0.792,3.521,1.562l-1.21,1.519
			c-0.484-0.44-1.364-1.078-2.289-1.078c-0.836,0-1.43,0.439-1.43,1.1c-0.022,1.98,5.259,1.254,5.259,5.083
			c-0.022,1.804-1.54,3.168-3.829,3.168C240.548,271.347,238.941,270.621,238.039,269.609z"/>
	</g>
</g>
</svg>
