<?xml version="1.0" encoding="utf-8"?>
<!-- Generator: Adobe Illustrator 16.0.0, SVG Export Plug-In . SVG Version: 6.00 Build 0)  -->
<!DOCTYPE svg PUBLIC "-//W3C//DTD SVG 1.1//EN" "http://www.w3.org/Graphics/SVG/1.1/DTD/svg11.dtd">
<svg version="1.1" xmlns="http://www.w3.org/2000/svg" xmlns:xlink="http://www.w3.org/1999/xlink" x="0px" y="0px" width="360px"
	 height="360px" viewBox="0 0 360 360" enable-background="new 0 0 360 360" xml:space="preserve">
<g id="brown_background_for_context">
</g>
<g id="background_circles">
	<circle fill="#3DAAA1" cx="176.92" cy="179.501" r="119.116"/>
</g>
<g id="white_imagery__x2B__text">
	<g>
		<path fill="none" stroke="#FFFFFF" stroke-miterlimit="10" d="M241.313,191.638l-8.906-2.729l-8.16-20.742l-4.081-22.794h10.263
			C235.062,153.07,244.1,166.145,241.313,191.638z"/>
		<circle fill="none" stroke="#FFFFFF" stroke-width="4" stroke-miterlimit="10" cx="177.921" cy="182.134" r="64.095"/>
		<path fill="none" stroke="#FFFFFF" stroke-miterlimit="10" d="M150.307,124.277l3.215,7.846l-15.642,19.042l-17.342,15.301
			l-3.752-3.634C118.158,151.477,135.151,129.893,150.307,124.277z"/>
		<path fill="none" stroke="#FFFFFF" stroke-miterlimit="10" d="M197.54,121.103v7.28l-19.619,6.801l-24.399-3.061l-3.215-7.846
			C156.241,117.502,185.633,115.885,197.54,121.103z"/>
		<path fill="none" stroke="#FFFFFF" stroke-miterlimit="10" d="M230.429,145.372h-10.263l-22.626-16.989v-7.28
			C213.984,125.576,220.97,135.498,230.429,145.372z"/>
		<path fill="none" stroke="#FFFFFF" stroke-miterlimit="10" d="M215.344,234.172l2.782-24.522l14.281-20.741l8.906,2.729
			C241.588,203.189,227.975,227.085,215.344,234.172z"/>
		<path fill="#FFFFFF" d="M190.047,245.079l-19.864-10.907l3.741-22.632l25.161-13.111l19.041,11.221l-2.782,24.522
			C213.241,235.627,202.173,243.928,190.047,245.079z"/>
		<path fill="none" stroke="#FFFFFF" stroke-miterlimit="10" d="M140.499,234.172l1.801-4.121l27.883,4.121l19.864,10.907
			C182.083,248.412,154.372,246.229,140.499,234.172z"/>
		<path fill="none" stroke="#FFFFFF" stroke-miterlimit="10" d="M115.048,194.633l3.11-2.995l15.302,15.292l8.84,23.121
			l-1.801,4.121C131.689,228.835,115.234,206.93,115.048,194.633z"/>
		<path fill="none" stroke="#FFFFFF" stroke-miterlimit="10" d="M120.538,166.466l-2.38,25.172L120.538,166.466z"/>
		<polygon fill="#FFFFFF" points="137.88,151.165 153.521,168.505 150.307,195.708 133.46,206.93 118.158,191.638 120.538,166.466 
					"/>
		<polygon fill="none" stroke="#FFFFFF" stroke-miterlimit="10" points="177.921,155.585 153.521,168.505 137.88,151.165 
			153.521,132.123 177.921,135.184 		"/>
		<polygon fill="#FFFFFF" points="202.146,172.587 177.921,155.585 177.921,135.184 197.54,128.383 220.166,145.372 
			224.247,168.166 		"/>
		<polygon fill="none" stroke="#FFFFFF" stroke-miterlimit="10" points="199.085,198.429 202.146,172.587 224.247,168.166 
			232.407,188.908 218.126,209.649 		"/>
		<polygon fill="none" stroke="#FFFFFF" stroke-miterlimit="10" points="150.307,195.708 173.924,211.54 170.183,234.172 
			142.3,230.051 133.46,206.93 		"/>
	</g>
</g>
</svg>
