<?xml version="1.0" encoding="utf-8"?>
<!-- Generator: Adobe Illustrator 16.0.0, SVG Export Plug-In . SVG Version: 6.00 Build 0)  -->
<!DOCTYPE svg PUBLIC "-//W3C//DTD SVG 1.1//EN" "http://www.w3.org/Graphics/SVG/1.1/DTD/svg11.dtd">
<svg version="1.1" xmlns="http://www.w3.org/2000/svg" xmlns:xlink="http://www.w3.org/1999/xlink" x="0px" y="0px" width="360px"
	 height="360px" viewBox="0 0 360 360" enable-background="new 0 0 360 360" xml:space="preserve">
<g id="brown_background_for_context">
</g>
<g id="background_circles">
	<circle fill="#F27243" cx="186.739" cy="194.095" r="119.116"/>
</g>
<g id="white_imagery__x2B__text">
	<g>
		<rect x="106.957" y="124.059" fill="none" width="158.639" height="38.629"/>
		<path fill="#FFFFFF" d="M115.561,128.258v2.398h2.222v2.97h-2.222v8.031h-3.169v-8.031h-1.431v-2.97h1.431v-3.212
			c0-2.156,1.013-3.521,3.08-3.521c0.902,0,1.804,0.242,2.311,0.506v3.212c-0.418-0.176-0.858-0.33-1.386-0.33
			C115.912,127.312,115.561,127.62,115.561,128.258z"/>
		<path fill="#FFFFFF" d="M129.927,130.657v11.001h-3.169v-1.408c-0.77,0.946-1.87,1.562-3.301,1.562
			c-3.014,0-4.95-2.508-4.95-5.677c0-3.146,1.937-5.655,4.95-5.655c1.431,0,2.531,0.616,3.301,1.562v-1.386H129.927z
			 M126.736,136.135c0-1.364-1.012-2.596-2.465-2.596c-1.452,0-2.441,1.166-2.441,2.596c0,1.452,0.989,2.597,2.441,2.597
			C125.725,138.732,126.736,137.521,126.736,136.135z"/>
		<path fill="#FFFFFF" d="M138.857,130.415v3.652c-1.408-0.308-3.059,0-3.059,2.267v5.325h-3.168v-11.001h3.168v1.65
			C136.481,131.25,137.537,130.415,138.857,130.415z"/>
		<path fill="#FFFFFF" d="M157.427,135.057v6.601h-3.146v-5.875c0-1.474-0.748-2.398-1.87-2.398c-1.1,0-1.871,0.924-1.871,2.398
			v5.875h-3.146v-5.875c0-1.474-0.748-2.398-1.869-2.398c-1.101,0-1.849,0.924-1.849,2.398v5.875h-3.169v-11.001h3.169v1.408
			c0.704-0.924,1.782-1.628,3.146-1.628c1.386,0,2.53,0.682,3.19,1.98c0.77-1.167,2.002-1.98,3.652-1.98
			C155.931,130.437,157.427,132.087,157.427,135.057z"/>
		<path fill="#FFFFFF" d="M170.846,130.657v11.001h-3.168v-1.408c-0.771,0.946-1.871,1.562-3.301,1.562
			c-3.015,0-4.951-2.508-4.951-5.677c0-3.146,1.937-5.655,4.951-5.655c1.43,0,2.529,0.616,3.301,1.562v-1.386H170.846z
			 M167.655,136.135c0-1.364-1.013-2.596-2.464-2.596c-1.453,0-2.443,1.166-2.443,2.596c0,1.452,0.99,2.597,2.443,2.597
			C166.643,138.732,167.655,137.521,167.655,136.135z"/>
		<path fill="#FFFFFF" d="M172.978,136.157c0-3.102,2.267-5.699,5.722-5.699c1.451,0,2.42,0.352,3.256,0.88v3.388
			c-0.705-0.528-1.782-1.1-3.037-1.1c-1.605,0-2.729,1.122-2.729,2.53s1.123,2.531,2.729,2.531c1.255,0,2.332-0.572,3.037-1.101
			v3.389c-0.836,0.528-1.805,0.88-3.256,0.88C175.244,141.856,172.978,139.26,172.978,136.157z"/>
		<path fill="#FFFFFF" d="M194.408,137.169h-7.547c0.373,1.188,1.43,1.826,2.793,1.826c1.232,0,2.377-0.352,3.477-0.88l0.023,2.838
			c-0.947,0.528-2.246,0.88-3.742,0.88c-3.586,0-5.721-2.574-5.721-5.677c0-3.058,2.156-5.677,5.479-5.677
			C192.758,130.48,194.715,133.539,194.408,137.169z M186.861,135.189h4.465c-0.307-1.101-1.121-1.782-2.156-1.782
			C188.027,133.407,187.168,134.133,186.861,135.189z"/>
		<path fill="#FFFFFF" d="M206.463,130.657v11.001h-3.168v-1.32c-0.703,0.902-1.805,1.541-3.168,1.541
			c-2.113,0-3.74-1.584-3.74-4.555v-6.667h3.168v5.941c0,1.496,0.814,2.332,1.893,2.332c0.99,0,1.715-0.682,1.848-1.914v-6.359
			H206.463z"/>
		<path fill="#FFFFFF" d="M215.131,133.627h-2.201v8.031h-3.168v-8.031h-1.387v-2.97h1.387v-2.949h3.168v2.949h2.201V133.627z"/>
		<path fill="#FFFFFF" d="M216.779,126.982c0-1.1,0.881-1.98,1.98-1.98c1.145,0,2.002,0.88,2.002,1.98s-0.857,2.002-2.002,2.002
			C217.66,128.984,216.779,128.082,216.779,126.982z M217.197,130.657h3.17v11.001h-3.17V130.657z"/>
		<path fill="#FFFFFF" d="M222.918,136.157c0-3.102,2.266-5.699,5.721-5.699c1.451,0,2.42,0.352,3.256,0.88v3.388
			c-0.703-0.528-1.781-1.1-3.035-1.1c-1.607,0-2.729,1.122-2.729,2.53s1.121,2.531,2.729,2.531c1.254,0,2.332-0.572,3.035-1.101
			v3.389c-0.836,0.528-1.805,0.88-3.256,0.88C225.184,141.856,222.918,139.26,222.918,136.157z"/>
		<path fill="#FFFFFF" d="M245.029,130.657v11.001h-3.168v-1.408c-0.771,0.946-1.871,1.562-3.301,1.562
			c-3.016,0-4.951-2.508-4.951-5.677c0-3.146,1.936-5.655,4.951-5.655c1.43,0,2.529,0.616,3.301,1.562v-1.386H245.029z
			 M241.838,136.135c0-1.364-1.012-2.596-2.463-2.596c-1.453,0-2.443,1.166-2.443,2.596c0,1.452,0.99,2.597,2.443,2.597
			C240.826,138.732,241.838,137.521,241.838,136.135z"/>
		<path fill="#FFFFFF" d="M247.732,124.056h3.168v17.603h-3.168V124.056z"/>
		<path fill="#FFFFFF" d="M252.99,140.184l1.541-2.267c0.748,0.594,1.848,1.188,2.771,1.188c0.617,0,1.012-0.308,1.012-0.704
			c0-1.43-4.949-0.902-4.949-4.643c0-1.827,1.496-3.301,3.916-3.323c1.584,0,3.014,0.748,3.785,1.496l-1.498,2.245
			c-0.482-0.352-1.451-0.946-2.244-0.946c-0.549,0-0.924,0.264-0.924,0.66c0,1.364,5.039,0.88,5.018,4.643
			c0,1.892-1.65,3.323-4.137,3.323C255.807,141.856,254.047,141.174,252.99,140.184z"/>
	</g>
	<g>
		<rect x="107.882" y="231.433" fill="none" width="158.639" height="58.805"/>
		<path fill="#FFFFFF" d="M135.295,244.369h-8.404c0.33,1.738,1.693,2.838,3.586,2.838c1.452,0,2.574-0.462,3.631-1.188v2.091
			c-0.924,0.682-2.244,1.1-3.74,1.1c-3.499,0-5.611-2.596-5.611-5.677c0-3.058,2.156-5.655,5.391-5.655
			C133.579,237.877,135.537,240.893,135.295,244.369z M126.912,242.652h6.205c-0.309-1.606-1.431-2.707-3.015-2.707
			C128.43,239.945,127.242,241.068,126.912,242.652z"/>
		<path fill="#FFFFFF" d="M147.329,242.719v6.314h-2.068v-6.007c0-2.179-1.122-3.322-2.685-3.322c-1.54,0-2.685,1.144-2.685,3.322
			v6.007h-2.067v-11.002h2.067v1.541c0.638-1.035,1.805-1.761,3.323-1.761C145.371,237.812,147.329,239.439,147.329,242.719z"/>
		<path fill="#FFFFFF" d="M149.747,247.471l1.298-1.54c0.683,0.66,1.629,1.276,2.663,1.276c0.924,0,1.606-0.484,1.606-1.211
			c0-2.134-5.26-1.342-5.237-5.082c0-1.672,1.386-3.059,3.543-3.059c1.54-0.021,2.839,0.792,3.521,1.562l-1.211,1.518
			c-0.483-0.439-1.363-1.078-2.287-1.078c-0.837,0-1.431,0.44-1.431,1.101c-0.022,1.98,5.259,1.255,5.259,5.083
			c-0.022,1.805-1.541,3.168-3.828,3.168C152.256,249.209,150.649,248.482,149.747,247.471z"/>
		<path fill="#FFFFFF" d="M169.307,238.031v11.002h-2.068v-1.54c-0.638,1.034-1.805,1.761-3.322,1.761
			c-2.156,0-4.115-1.629-4.115-4.907v-6.315h2.068v6.008c0,2.178,1.123,3.322,2.686,3.322c1.539,0,2.684-1.145,2.684-3.322v-6.008
			H169.307z"/>
		<path fill="#FFFFFF" d="M177.82,237.812v2.442c-1.562-0.264-3.168,0.572-3.168,2.948l-0.022-0.088v5.919h-2.068v-11.002h2.068
			v1.893C175.224,238.802,176.346,237.812,177.82,237.812z"/>
		<path fill="#FFFFFF" d="M179.777,234.533c0-0.77,0.594-1.387,1.408-1.387c0.813,0,1.408,0.617,1.408,1.387
			c0,0.814-0.595,1.43-1.408,1.43C180.371,235.963,179.777,235.348,179.777,234.533z M180.151,238.031h2.068v11.002h-2.068V238.031z
			"/>
		<path fill="#FFFFFF" d="M195.376,242.719v6.314h-2.068v-6.007c0-2.179-1.122-3.322-2.685-3.322c-1.54,0-2.685,1.144-2.685,3.322
			v6.007h-2.068v-11.002h2.068v1.541c0.639-1.035,1.805-1.761,3.322-1.761C193.418,237.812,195.376,239.439,195.376,242.719z"/>
		<path fill="#FFFFFF" d="M208.642,248.571c0,3.366-2.618,5.017-5.236,5.017c-1.673,0-2.971-0.484-4.181-1.166l0.021-2.179
			c1.232,0.858,2.641,1.386,3.938,1.386c2.024,0,3.433-1.144,3.433-3.586v-0.836c-0.858,1.188-2.156,1.98-3.807,1.98
			c-3.059,0-5.148-2.486-5.148-5.655s2.09-5.655,5.148-5.655c1.628,0,2.927,0.771,3.763,1.938v-1.783h2.046L208.642,248.571z
			 M206.573,243.532c0-1.937-1.431-3.63-3.41-3.63c-1.98,0-3.367,1.628-3.367,3.63c0,2.024,1.387,3.653,3.367,3.653
			C205.143,247.186,206.573,245.469,206.573,243.532z"/>
		<path fill="#FFFFFF" d="M218.605,243.532c0-3.058,2.288-5.677,5.61-5.677c3.323,0,5.611,2.619,5.611,5.677
			c0,3.059-2.288,5.677-5.611,5.677C220.894,249.209,218.605,246.591,218.605,243.532z M227.692,243.51
			c0-1.936-1.364-3.586-3.477-3.586c-2.068,0-3.498,1.65-3.498,3.586c0,1.959,1.43,3.631,3.498,3.631
			C226.328,247.141,227.692,245.469,227.692,243.51z"/>
		<path fill="#FFFFFF" d="M241.751,238.031v11.002h-2.068v-1.54c-0.638,1.034-1.804,1.761-3.322,1.761
			c-2.156,0-4.114-1.629-4.114-4.907v-6.315h2.068v6.008c0,2.178,1.122,3.322,2.684,3.322c1.541,0,2.685-1.145,2.685-3.322v-6.008
			H241.751z"/>
		<path fill="#FFFFFF" d="M250.265,237.812v2.442c-1.562-0.264-3.168,0.572-3.168,2.948l-0.022-0.088v5.919h-2.068v-11.002h2.068
			v1.893C247.669,238.802,248.791,237.812,250.265,237.812z"/>
		<path fill="#FFFFFF" d="M166.799,265.719v6.314h-2.068v-6.007c0-2.179-1.122-3.322-2.685-3.322c-1.54,0-2.685,1.144-2.685,3.322
			l-0.021-0.088v6.095h-2.068v-17.603h2.068v8.163c0.638-1.034,1.805-1.782,3.344-1.782
			C164.84,260.812,166.799,262.439,166.799,265.719z"/>
		<path fill="#FFFFFF" d="M179.604,267.369h-8.406c0.33,1.738,1.695,2.838,3.587,2.838c1.452,0,2.574-0.462,3.63-1.188v2.091
			c-0.924,0.682-2.244,1.1-3.74,1.1c-3.498,0-5.61-2.596-5.61-5.677c0-3.058,2.156-5.655,5.391-5.655
			C177.887,260.877,179.845,263.893,179.604,267.369z M171.22,265.652h6.204c-0.307-1.606-1.43-2.707-3.014-2.707
			C172.738,262.945,171.55,264.068,171.22,265.652z"/>
		<path fill="#FFFFFF" d="M192.429,261.031v11.002h-2.068v-1.76c-0.858,1.144-2.135,1.914-3.763,1.914
			c-3.059,0-5.148-2.486-5.148-5.655s2.09-5.655,5.148-5.655c1.628,0,2.904,0.771,3.763,1.915v-1.761H192.429z M190.36,266.532
			c0-1.937-1.431-3.63-3.41-3.63c-1.98,0-3.367,1.628-3.367,3.63c0,2.024,1.387,3.653,3.367,3.653
			C188.93,270.186,190.36,268.469,190.36,266.532z"/>
		<path fill="#FFFFFF" d="M195.705,254.431h2.068v17.603h-2.068V254.431z"/>
		<path fill="#FFFFFF" d="M205.826,263.012h-2.267v9.021h-2.068v-9.021h-1.408v-1.98h1.408v-2.948h2.068v2.948h2.267V263.012z"/>
		<path fill="#FFFFFF" d="M217.311,265.719v6.314h-2.068v-6.007c0-2.179-1.122-3.322-2.684-3.322c-1.541,0-2.685,1.144-2.685,3.322
			l-0.022-0.088v6.095h-2.068v-17.603h2.068v8.163c0.639-1.034,1.805-1.782,3.345-1.782
			C215.353,260.812,217.311,262.439,217.311,265.719z"/>
	</g>
	<g>
		<g>
			<path fill="#FFFFFF" d="M191.334,218.114h18.015c0,0,10.637,0,10.637-12.197c0-11.773-9.928-11.773-9.928-11.773h-18.581
				L191.334,218.114z"/>
			<path fill="none" stroke="#FFFFFF" stroke-width="3" stroke-miterlimit="10" d="M173.181,218.325h36.311
				c0,0,10.638,0,10.638-12.196c0-11.774-9.931-11.774-9.931-11.774h-37.018c0,0-10.638,0-10.638,11.774
				C162.543,218.325,173.181,218.325,173.181,218.325z"/>
			
				<line fill="none" stroke="#F27243" stroke-width="3" stroke-linecap="round" stroke-miterlimit="10" x1="195.449" y1="213.786" x2="207.364" y2="213.786"/>
			
				<line fill="none" stroke="#F27243" stroke-width="3" stroke-linecap="round" stroke-miterlimit="10" x1="210.909" y1="213.786" x2="211.763" y2="213.786"/>
		</g>
		<g>
			<path fill="#FFFFFF" d="M185.372,190.301l12.43-13.039c0,0,7.342-7.701-1.49-16.116c-8.521-8.124-15.371-0.937-15.371-0.937
				l-12.82,13.449L185.372,190.301z"/>
			<path fill="#F27243" d="M168.854,172.937l-12.429,13.04c0,0-7.34,7.699,1.489,16.114c8.523,8.123,15.373,0.938,15.373,0.938
				l12.82-13.45L168.854,172.937z"/>
			<path fill="none" stroke="#FFFFFF" stroke-width="3" stroke-miterlimit="10" d="M173.001,203.589l25.052-26.284
				c0,0,7.339-7.699-1.489-16.116c-8.523-8.124-15.374-0.935-15.374-0.935l-25.54,26.796c0,0-7.34,7.7,1.183,15.823
				C165.661,211.289,173.001,203.589,173.001,203.589z"/>
			
				<line fill="none" stroke="#F27243" stroke-width="3" stroke-linecap="round" stroke-miterlimit="10" x1="185.081" y1="184.338" x2="193.3" y2="175.713"/>
			
				<line fill="none" stroke="#F27243" stroke-width="3" stroke-linecap="round" stroke-miterlimit="10" x1="196.062" y1="172.815" x2="196.479" y2="172.379"/>
		</g>
	</g>
</g>
</svg>
