<?xml version="1.0" encoding="utf-8"?>
<!-- Generator: Adobe Illustrator 16.0.0, SVG Export Plug-In . SVG Version: 6.00 Build 0)  -->
<!DOCTYPE svg PUBLIC "-//W3C//DTD SVG 1.1//EN" "http://www.w3.org/Graphics/SVG/1.1/DTD/svg11.dtd">
<svg version="1.1" xmlns="http://www.w3.org/2000/svg" xmlns:xlink="http://www.w3.org/1999/xlink" x="0px" y="0px" width="360px"
	 height="360px" viewBox="0 0 360 360" enable-background="new 0 0 360 360" xml:space="preserve">
<g id="brown_background_for_context">
</g>
<g id="background_circles">
	<circle fill="#2E61A1" cx="171.156" cy="187.889" r="119.116"/>
</g>
<g id="white_imagery__x2B__text">
	<g>
		<rect x="92.45" y="105.703" fill="none" width="158.639" height="38.629"/>
		<path fill="#FFFFFF" d="M153.048,134.502h-5.184v-13.138h-6.263v13.138h-5.183v-13.138h-2.34v-4.859h2.34v-5.255
			c0-3.528,1.655-5.759,5.039-5.759c1.476,0,2.951,0.396,3.779,0.828v5.255c-0.684-0.288-1.404-0.54-2.268-0.54
			c-0.792,0-1.368,0.504-1.368,1.548v3.924h11.446V134.502z M147.181,110.494c0-1.8,1.439-3.24,3.24-3.24
			c1.871,0,3.275,1.44,3.275,3.24s-1.404,3.275-3.275,3.275C148.62,113.769,147.181,112.293,147.181,110.494z"/>
		<path fill="#FFFFFF" d="M158.126,105.706h5.184v28.796h-5.184V105.706z"/>
		<path fill="#FFFFFF" d="M177.493,121.364h-3.6v13.138h-5.184v-13.138h-2.268v-4.859h2.268v-4.824h5.184v4.824h3.6V121.364z"/>
		<path fill="#FFFFFF" d="M196.247,127.159h-12.346c0.611,1.944,2.34,2.988,4.57,2.988c2.016,0,3.889-0.576,5.688-1.44l0.035,4.644
			c-1.547,0.864-3.67,1.44-6.119,1.44c-5.867,0-9.357-4.211-9.357-9.287c0-5.003,3.527-9.287,8.963-9.287
			C193.548,116.217,196.751,121.22,196.247,127.159z M183.901,123.92h7.307c-0.504-1.8-1.836-2.916-3.527-2.916
			C185.808,121.004,184.405,122.192,183.901,123.92z"/>
		<path fill="#FFFFFF" d="M209.892,116.109v5.975c-2.305-0.504-5.004,0-5.004,3.708v8.711h-5.184v-17.998h5.184v2.7
			C206.005,117.477,207.731,116.109,209.892,116.109z"/>
	</g>
	<g>
		<rect x="93.375" y="222.077" fill="none" width="158.639" height="58.804"/>
		<path fill="#FFFFFF" d="M109.897,234.176c0-3.059,2.199-5.677,5.61-5.677c1.519,0,2.574,0.418,3.433,1.101v2.398
			c-0.66-0.748-1.849-1.431-3.257-1.431c-2.179,0-3.675,1.606-3.675,3.608c0,1.98,1.496,3.609,3.675,3.609
			c1.408,0,2.597-0.683,3.257-1.431v2.397c-0.858,0.683-1.914,1.101-3.433,1.101C112.097,239.853,109.897,237.234,109.897,234.176z"
			/>
		<path fill="#FFFFFF" d="M121.711,222.074h2.068v17.603h-2.068V222.074z"/>
		<path fill="#FFFFFF" d="M136.914,235.012h-8.405c0.33,1.738,1.694,2.839,3.586,2.839c1.453,0,2.574-0.462,3.631-1.188v2.09
			c-0.924,0.683-2.244,1.101-3.74,1.101c-3.498,0-5.611-2.597-5.611-5.677c0-3.059,2.156-5.654,5.391-5.654
			C135.198,228.521,137.155,231.535,136.914,235.012z M128.53,233.296h6.205c-0.308-1.606-1.43-2.706-3.014-2.706
			C130.049,230.59,128.86,231.711,128.53,233.296z"/>
		<path fill="#FFFFFF" d="M149.739,228.676v11.001h-2.068v-1.761c-0.857,1.145-2.134,1.914-3.762,1.914
			c-3.059,0-5.148-2.486-5.148-5.654s2.09-5.654,5.148-5.654c1.628,0,2.904,0.77,3.762,1.914v-1.76H149.739z M147.671,234.176
			c0-1.936-1.43-3.631-3.41-3.631s-3.366,1.629-3.366,3.631c0,2.024,1.386,3.652,3.366,3.652S147.671,236.112,147.671,234.176z"/>
		<path fill="#FFFFFF" d="M162.521,233.361v6.315h-2.068v-6.007c0-2.178-1.122-3.322-2.685-3.322c-1.54,0-2.685,1.145-2.685,3.322
			v6.007h-2.067v-11.001h2.067v1.539c0.638-1.033,1.805-1.76,3.323-1.76C160.563,228.455,162.521,230.084,162.521,233.361z"/>
		<path fill="#FFFFFF" d="M165.622,225.177c0-0.771,0.594-1.386,1.408-1.386c0.813,0,1.408,0.615,1.408,1.386
			c0,0.813-0.595,1.431-1.408,1.431C166.216,226.607,165.622,225.99,165.622,225.177z M165.996,228.676h2.068v11.001h-2.068V228.676
			z"/>
		<path fill="#FFFFFF" d="M181.222,233.361v6.315h-2.068v-6.007c0-2.178-1.122-3.322-2.685-3.322c-1.54,0-2.685,1.145-2.685,3.322
			v6.007h-2.068v-11.001h2.068v1.539c0.639-1.033,1.805-1.76,3.322-1.76C179.264,228.455,181.222,230.084,181.222,233.361z"/>
		<path fill="#FFFFFF" d="M194.487,239.215c0,3.366-2.618,5.017-5.237,5.017c-1.672,0-2.97-0.483-4.18-1.166l0.021-2.179
			c1.232,0.858,2.641,1.387,3.938,1.387c2.024,0,3.433-1.145,3.433-3.587v-0.836c-0.858,1.188-2.156,1.979-3.807,1.979
			c-3.059,0-5.148-2.486-5.148-5.654s2.09-5.654,5.148-5.654c1.628,0,2.927,0.77,3.763,1.936v-1.781h2.046L194.487,239.215z
			 M192.419,234.176c0-1.936-1.431-3.631-3.41-3.631c-1.98,0-3.367,1.629-3.367,3.631c0,2.024,1.387,3.652,3.367,3.652
			C190.988,237.828,192.419,236.112,192.419,234.176z"/>
		<path fill="#FFFFFF" d="M204.451,234.176c0-3.059,2.288-5.677,5.61-5.677c3.323,0,5.611,2.618,5.611,5.677
			s-2.288,5.677-5.611,5.677C206.739,239.853,204.451,237.234,204.451,234.176z M213.538,234.154c0-1.937-1.364-3.587-3.477-3.587
			c-2.068,0-3.498,1.65-3.498,3.587c0,1.958,1.43,3.631,3.498,3.631C212.174,237.785,213.538,236.112,213.538,234.154z"/>
		<path fill="#FFFFFF" d="M227.597,228.676v11.001h-2.068v-1.54c-0.638,1.034-1.804,1.76-3.322,1.76
			c-2.156,0-4.114-1.628-4.114-4.906v-6.314h2.068v6.006c0,2.179,1.122,3.322,2.684,3.322c1.541,0,2.685-1.144,2.685-3.322v-6.006
			H227.597z"/>
		<path fill="#FFFFFF" d="M236.11,228.455v2.442c-1.562-0.265-3.168,0.572-3.168,2.948l-0.022-0.088v5.919h-2.068v-11.001h2.068
			v1.892C233.515,229.445,234.637,228.455,236.11,228.455z"/>
		<path fill="#FFFFFF" d="M128.632,251.676v11.001h-2.068v-1.761c-0.858,1.145-2.135,1.914-3.764,1.914
			c-3.058,0-5.148-2.486-5.148-5.654s2.091-5.654,5.148-5.654c1.629,0,2.905,0.77,3.764,1.914v-1.76H128.632z M126.563,257.176
			c0-1.936-1.431-3.631-3.411-3.631c-1.979,0-3.366,1.629-3.366,3.631c0,2.024,1.387,3.652,3.366,3.652
			C125.133,260.828,126.563,259.112,126.563,257.176z"/>
		<path fill="#FFFFFF" d="M131.907,248.177c0-0.771,0.594-1.386,1.408-1.386s1.408,0.615,1.408,1.386
			c0,0.813-0.594,1.431-1.408,1.431S131.907,248.99,131.907,248.177z M132.282,251.676h2.068v11.001h-2.068V251.676z"/>
		<path fill="#FFFFFF" d="M143.261,251.455v2.442c-1.562-0.265-3.169,0.572-3.169,2.948l-0.022-0.088v5.919h-2.068v-11.001h2.068
			v1.892C140.663,252.445,141.786,251.455,143.261,251.455z"/>
		<path fill="#FFFFFF" d="M161.851,262.677c-0.352-0.44-0.704-0.858-1.078-1.298c-0.969,0.945-2.223,1.54-3.785,1.54
			c-2.662,0-4.906-1.606-4.906-4.202c0-2.156,1.364-3.323,2.86-4.247c-0.901-1.078-1.914-2.376-1.914-3.784
			c0-1.673,1.231-3.697,3.917-3.697c2.508,0,3.828,1.914,3.828,3.697c0,2.002-1.452,3.146-2.992,4.137
			c0.726,0.857,1.693,2.046,2.75,3.322c0.33-0.881,0.484-1.937,0.484-3.146h2.002c0.021,1.738-0.352,3.454-1.1,4.84l2.311,2.839
			H161.851z M159.519,259.883c-1.166-1.365-2.332-2.729-3.41-4.005c-1.057,0.726-1.893,1.519-1.893,2.662
			c0,1.474,1.342,2.376,2.794,2.376C158.044,260.916,158.88,260.543,159.519,259.883z M156.636,253.457
			c1.166-0.703,2.09-1.451,2.09-2.684c0-0.924-0.66-1.783-1.781-1.783c-1.035,0-1.805,0.859-1.805,1.805
			C155.14,251.741,155.932,252.644,156.636,253.457z"/>
		<path fill="#FFFFFF" d="M189.66,251.676l-5.611,11.045h-1.54l-2.002-4.049l-1.98,4.049h-1.562l-5.589-11.045h2.2l4.225,8.515
			l1.694-3.433l-2.552-5.082h2.112l1.452,3.168l1.474-3.168h2.112l-2.574,5.061l1.738,3.454l4.202-8.515H189.66z"/>
		<path fill="#FFFFFF" d="M201.143,251.676v11.001h-2.068v-1.761c-0.858,1.145-2.135,1.914-3.763,1.914
			c-3.059,0-5.148-2.486-5.148-5.654s2.09-5.654,5.148-5.654c1.628,0,2.904,0.77,3.763,1.914v-1.76H201.143z M199.074,257.176
			c0-1.936-1.431-3.631-3.41-3.631c-1.98,0-3.367,1.629-3.367,3.631c0,2.024,1.387,3.652,3.367,3.652
			C197.644,260.828,199.074,259.112,199.074,257.176z"/>
		<path fill="#FFFFFF" d="M209.194,253.655h-2.267v9.021h-2.068v-9.021h-1.408v-1.979h1.408v-2.949h2.068v2.949h2.267V253.655z"/>
		<path fill="#FFFFFF" d="M220.569,258.012h-8.405c0.33,1.738,1.694,2.839,3.587,2.839c1.452,0,2.574-0.462,3.631-1.188v2.09
			c-0.925,0.683-2.245,1.101-3.741,1.101c-3.498,0-5.61-2.597-5.61-5.677c0-3.059,2.156-5.654,5.391-5.654
			C218.854,251.521,220.812,254.535,220.569,258.012z M212.187,256.296h6.205c-0.309-1.606-1.431-2.706-3.015-2.706
			C213.705,253.59,212.517,254.711,212.187,256.296z"/>
		<path fill="#FFFFFF" d="M228.356,251.455v2.442c-1.562-0.265-3.168,0.572-3.168,2.948l-0.022-0.088v5.919h-2.068v-11.001h2.068
			v1.892C225.761,252.445,226.883,251.455,228.356,251.455z"/>
	</g>
	<path fill="#FFFFFF" d="M172.694,146.791c-30.621,0-25.902,11.897-25.902,11.897l20.064,23.551v32.722l11.75-13.12v-19.352
		l19.99-23.801C198.597,158.688,203.315,146.791,172.694,146.791z M172.694,163.469c0,0-20.288-0.322-20.288-6.438
		s20.288-6.258,20.288-6.258s20.032-0.142,20.032,6.348S172.694,163.469,172.694,163.469z"/>
</g>
</svg>
