<?xml version="1.0" encoding="utf-8"?>
<!-- Generator: Adobe Illustrator 16.0.0, SVG Export Plug-In . SVG Version: 6.00 Build 0)  -->
<!DOCTYPE svg PUBLIC "-//W3C//DTD SVG 1.1//EN" "http://www.w3.org/Graphics/SVG/1.1/DTD/svg11.dtd">
<svg version="1.1" id="Layer_1" xmlns="http://www.w3.org/2000/svg" xmlns:xlink="http://www.w3.org/1999/xlink" x="0px" y="0px"
	 width="1366px" height="768px" viewBox="0 0 1366 768" enable-background="new 0 0 1366 768" xml:space="preserve">
<g>
	<g>
		<path fill="none" stroke="#5D5153" stroke-width="3" stroke-miterlimit="10" d="M944.71,310.965
			c7.952,25.91,12.23,53.429,12.23,81.947c0,23.935-3.016,47.166-8.684,69.333"/>
		<g>
			<path fill="#5D5153" d="M948.645,460.674l3.641-1.073l0.042,0.126l-3.387,4.57c-0.865,1.677-1.729,3.354-2.595,5.029
				c0.081-1.885,0.163-3.769,0.244-5.653l-0.672-5.649l0.082-0.093L948.645,460.674z"/>
		</g>
	</g>
</g>
<g>
	<rect x="870.409" y="489.599" fill="none" width="106.832" height="61.726"/>
	<path fill="#5D5153" d="M893.531,502.904v7.444h-2.438v-7.082c0-2.567-1.322-3.917-3.164-3.917c-1.816,0-3.165,1.35-3.165,3.917
		l-0.025-0.104v7.186H882.3v-20.752h2.438v9.624c0.752-1.22,2.127-2.102,3.942-2.102
		C891.223,497.119,893.531,499.039,893.531,502.904z"/>
	<path fill="#5D5153" d="M908.628,504.85h-9.909c0.389,2.049,1.997,3.346,4.228,3.346c1.713,0,3.035-0.545,4.28-1.4v2.464
		c-1.089,0.805-2.646,1.298-4.409,1.298c-4.125,0-6.615-3.062-6.615-6.693c0-3.605,2.542-6.666,6.355-6.666
		C906.604,497.197,908.913,500.751,908.628,504.85z M898.744,502.826h7.315c-0.363-1.894-1.687-3.19-3.554-3.19
		C900.534,499.636,899.134,500.958,898.744,502.826z"/>
	<path fill="#5D5153" d="M923.749,497.379v12.97h-2.438v-2.075c-1.012,1.349-2.517,2.257-4.436,2.257
		c-3.605,0-6.07-2.932-6.07-6.667s2.465-6.666,6.07-6.666c1.919,0,3.424,0.908,4.436,2.257v-2.075H923.749z M921.311,503.863
		c0-2.282-1.687-4.279-4.021-4.279c-2.335,0-3.969,1.919-3.969,4.279c0,2.387,1.634,4.307,3.969,4.307
		C919.624,508.17,921.311,506.146,921.311,503.863z"/>
	<path fill="#5D5153" d="M927.612,489.597h2.438v20.752h-2.438V489.597z"/>
	<path fill="#5D5153" d="M939.544,499.713h-2.672v10.636h-2.438v-10.636h-1.66v-2.334h1.66v-3.477h2.438v3.477h2.672V499.713z"/>
	<path fill="#5D5153" d="M953.083,502.904v7.444h-2.438v-7.082c0-2.567-1.322-3.917-3.164-3.917c-1.816,0-3.165,1.35-3.165,3.917
		l-0.026-0.104v7.186h-2.438v-20.752h2.438v9.624c0.753-1.22,2.128-2.102,3.943-2.102
		C950.774,497.119,953.083,499.039,953.083,502.904z"/>
	<path fill="#5D5153" d="M967.945,497.379l-7.601,18.158h-2.49l2.282-5.292l-5.395-12.866h2.646l3.969,10.116l3.942-10.116H967.945z
		"/>
	<path fill="#5D5153" d="M894.571,537.582c0,4.101-2.522,7.369-6.45,7.369c-1.864,0-3.298-0.804-4.301-2.036v7.569h-4.129v-20.07
		h4.129v1.807c1.003-1.232,2.437-2.036,4.301-2.036C892.049,530.185,894.571,533.453,894.571,537.582z M890.242,537.582
		c0-1.893-1.29-3.383-3.183-3.383c-1.892,0-3.211,1.577-3.211,3.383c0,1.777,1.319,3.384,3.211,3.384
		C888.952,540.966,890.242,539.446,890.242,537.582z"/>
	<path fill="#5D5153" d="M910.567,538.901h-9.834c0.487,1.548,1.863,2.38,3.641,2.38c1.605,0,3.097-0.459,4.53-1.147l0.028,3.698
		c-1.232,0.688-2.924,1.147-4.874,1.147c-4.673,0-7.454-3.354-7.454-7.397c0-3.985,2.81-7.397,7.139-7.397
		C908.417,530.185,910.969,534.17,910.567,538.901z M900.733,536.32h5.82c-0.401-1.434-1.463-2.322-2.811-2.322
		C902.253,533.998,901.135,534.944,900.733,536.32z"/>
	<path fill="#5D5153" d="M912.572,537.582c0-4.043,3.039-7.454,7.397-7.454c4.387,0,7.426,3.411,7.426,7.454
		c0,4.014-3.039,7.455-7.426,7.455C915.611,545.037,912.572,541.596,912.572,537.582z M923.181,537.554
		c0-1.777-1.262-3.298-3.211-3.298c-1.893,0-3.183,1.521-3.183,3.298c0,1.806,1.29,3.354,3.183,3.354
		C921.919,540.908,923.181,539.389,923.181,537.554z"/>
	<path fill="#5D5153" d="M945.054,537.582c0,4.101-2.522,7.369-6.45,7.369c-1.864,0-3.298-0.804-4.301-2.036v7.569h-4.129v-20.07
		h4.129v1.807c1.003-1.232,2.437-2.036,4.301-2.036C942.531,530.185,945.054,533.453,945.054,537.582z M940.725,537.582
		c0-1.893-1.29-3.383-3.183-3.383c-1.892,0-3.211,1.577-3.211,3.383c0,1.777,1.319,3.384,3.211,3.384
		C939.435,540.966,940.725,539.446,940.725,537.582z"/>
	<path fill="#5D5153" d="M947.832,521.812h4.129v22.938h-4.129V521.812z"/>
	<path fill="#5D5153" d="M968.732,538.901h-9.834c0.487,1.548,1.863,2.38,3.641,2.38c1.605,0,3.097-0.459,4.53-1.147l0.028,3.698
		c-1.232,0.688-2.924,1.147-4.874,1.147c-4.673,0-7.454-3.354-7.454-7.397c0-3.985,2.81-7.397,7.139-7.397
		C966.582,530.185,969.134,534.17,968.732,538.901z M958.898,536.32h5.82c-0.401-1.434-1.463-2.322-2.811-2.322
		C960.418,533.998,959.3,534.944,958.898,536.32z"/>
</g>
<g>
	<path fill="#FFFFFF" d="M505.878,321.624c4.725,3.347,14.771,0.195,18.118-4.53c3.939-5.515-8.468-8.47-11.422-11.226
		c-2.955-2.759-5.515-3.94-6.695,1.575c-0.395,1.575,0.59,4.529-0.198,5.909c-0.985,1.771-2.757,0.984-4.333,2.163
		c-3.938,2.958,1.182,5.911,4.333,6.304"/>
</g>
<circle fill="#FECF0A" cx="850.663" cy="425.199" r="12.071"/>
<g>
	<path fill="#FECF0A" d="M869.601,476.881c0,5.504-4.504,10.008-10.008,10.008h-18.948c-5.504,0-10.008-4.504-10.008-10.008v-27.062
		c0-5.504,4.504-10.008,10.008-10.008h18.948c5.504,0,10.008,4.504,10.008,10.008V476.881z"/>
</g>
<g>
	<path fill="#FECF0A" d="M862.734,510.146c0,5.504-4.504,10.008-10.008,10.008H848.6c-5.504,0-10.008-4.504-10.008-10.008v-27.062
		c0-5.504,4.504-10.008,10.008-10.008h4.127c5.504,0,10.008,4.504,10.008,10.008V510.146z"/>
</g>
<rect x="837.888" y="465.135" fill="#FFFFFF" width="0.702" height="23.947"/>
<rect x="862.732" y="465.135" fill="#FFFFFF" width="0.704" height="24.925"/>
<rect x="850.311" y="486.887" fill="#FFFFFF" width="0.701" height="35.905"/>
<path fill="none" stroke="#3DAAA2" stroke-width="3" stroke-linecap="round" stroke-linejoin="round" stroke-miterlimit="10" d="
	M843.148,336.306"/>
</svg>
