<?xml version="1.0" encoding="utf-8"?>
<!-- Generator: Adobe Illustrator 16.0.0, SVG Export Plug-In . SVG Version: 6.00 Build 0)  -->
<!DOCTYPE svg PUBLIC "-//W3C//DTD SVG 1.1//EN" "http://www.w3.org/Graphics/SVG/1.1/DTD/svg11.dtd">
<svg version="1.1" id="Layer_1" xmlns="http://www.w3.org/2000/svg" xmlns:xlink="http://www.w3.org/1999/xlink" x="0px" y="0px"
	 width="1366px" height="768px" viewBox="0 0 1366 768" enable-background="new 0 0 1366 768" xml:space="preserve">
<g>
	<path fill="#EB6B7C" d="M707.935,589.842c0-3.168,2.592-5.76,5.76-5.76h5.73c3.168,0,5.76,2.592,5.76,5.76v28.079
		c0,3.168-2.592,5.76-5.76,5.76h-5.73c-3.168,0-5.76-2.592-5.76-5.76V589.842z"/>
</g>
<g>
	<path fill="#EB6B7C" d="M729.95,592.237c0,4.355-3.563,7.92-7.92,7.92h-11.713c-4.356,0-7.92-3.564-7.92-7.92v-17.454
		c0-4.355,3.563-7.92,7.92-7.92h11.713c4.356,0,7.92,3.564,7.92,7.92V592.237z"/>
</g>
<g>
	<g>
		<path fill="none" stroke="#5D5153" stroke-width="3" stroke-miterlimit="10" d="M892.433,571.331
			c-5.444,6.538-11.187,12.823-17.198,18.835c-27.368,27.37-60.401,49.079-97.187,63.22"/>
		<g>
			<path fill="#5D5153" d="M779.516,652.7l3.009,2.313l-0.077,0.108l-5.689-0.053c-1.864,0.286-3.729,0.572-5.593,0.858
				c1.572-1.042,3.145-2.084,4.717-3.127l4.175-3.865l0.123,0.012L779.516,652.7z"/>
		</g>
	</g>
</g>
<g>
	<rect x="584.791" y="641.01" fill="none" width="186.374" height="61.728"/>
	<path fill="#5D5153" d="M647.685,654.314v7.444h-2.438v-7.082c0-2.567-1.323-3.917-3.165-3.917c-1.815,0-3.165,1.35-3.165,3.917
		l-0.026-0.104v7.186h-2.438v-20.752h2.438v9.624c0.752-1.22,2.127-2.102,3.943-2.102
		C645.376,648.529,647.685,650.449,647.685,654.314z"/>
	<path fill="#5D5153" d="M662.78,656.26h-9.909c0.389,2.049,1.997,3.346,4.228,3.346c1.712,0,3.035-0.545,4.28-1.4v2.464
		c-1.089,0.805-2.646,1.298-4.41,1.298c-4.125,0-6.615-3.062-6.615-6.693c0-3.605,2.542-6.666,6.355-6.666
		C660.757,648.607,663.065,652.161,662.78,656.26z M652.897,654.236h7.315c-0.363-1.894-1.686-3.19-3.554-3.19
		C654.687,651.046,653.286,652.368,652.897,654.236z"/>
	<path fill="#5D5153" d="M677.901,648.789v12.97h-2.438v-2.075c-1.012,1.349-2.516,2.257-4.436,2.257
		c-3.606,0-6.07-2.932-6.07-6.667s2.464-6.666,6.07-6.666c1.919,0,3.424,0.908,4.436,2.257v-2.075H677.901z M675.463,655.273
		c0-2.282-1.686-4.279-4.021-4.279c-2.335,0-3.969,1.919-3.969,4.279c0,2.387,1.634,4.307,3.969,4.307
		C673.777,659.58,675.463,657.557,675.463,655.273z"/>
	<path fill="#5D5153" d="M681.764,641.007h2.439v20.752h-2.439V641.007z"/>
	<path fill="#5D5153" d="M693.695,651.123h-2.671v10.636h-2.438v-10.636h-1.66v-2.334h1.66v-3.477h2.438v3.477h2.671V651.123z"/>
	<path fill="#5D5153" d="M707.236,654.314v7.444h-2.438v-7.082c0-2.567-1.323-3.917-3.165-3.917c-1.815,0-3.164,1.35-3.164,3.917
		l-0.026-0.104v7.186h-2.438v-20.752h2.438v9.624c0.752-1.22,2.127-2.102,3.942-2.102
		C704.928,648.529,707.236,650.449,707.236,654.314z"/>
	<path fill="#5D5153" d="M722.099,648.789l-7.601,18.158h-2.49l2.283-5.292l-5.396-12.866h2.646l3.969,10.116l3.942-10.116H722.099z
		"/>
	<path fill="#5D5153" d="M593.783,688.992c0-4.043,2.953-7.426,7.455-7.426c1.892,0,3.154,0.459,4.243,1.146v4.416
		c-0.917-0.688-2.322-1.434-3.957-1.434c-2.093,0-3.555,1.462-3.555,3.297s1.462,3.297,3.555,3.297c1.634,0,3.039-0.745,3.957-1.433
		v4.415c-1.089,0.688-2.351,1.146-4.243,1.146C596.736,696.418,593.783,693.035,593.783,688.992z"/>
	<path fill="#5D5153" d="M607.744,688.992c0-4.043,3.039-7.454,7.397-7.454c4.387,0,7.426,3.411,7.426,7.454
		c0,4.014-3.039,7.455-7.426,7.455C610.783,696.447,607.744,693.006,607.744,688.992z M618.352,688.964
		c0-1.777-1.262-3.298-3.211-3.298c-1.892,0-3.182,1.521-3.182,3.298c0,1.806,1.29,3.354,3.182,3.354
		C617.09,692.318,618.352,690.799,618.352,688.964z"/>
	<path fill="#5D5153" d="M647.422,687.559v8.602h-4.1v-7.655c0-1.921-0.975-3.125-2.438-3.125c-1.434,0-2.437,1.204-2.437,3.125
		v7.655h-4.1v-7.655c0-1.921-0.975-3.125-2.438-3.125c-1.433,0-2.408,1.204-2.408,3.125v7.655h-4.128v-14.336h4.128v1.835
		c0.917-1.204,2.322-2.121,4.1-2.121c1.806,0,3.297,0.889,4.157,2.58c1.003-1.52,2.609-2.58,4.759-2.58
		C645.472,681.538,647.422,683.688,647.422,687.559z"/>
	<path fill="#5D5153" d="M672.85,687.559v8.602h-4.1v-7.655c0-1.921-0.975-3.125-2.438-3.125c-1.434,0-2.437,1.204-2.437,3.125
		v7.655h-4.1v-7.655c0-1.921-0.975-3.125-2.438-3.125c-1.433,0-2.408,1.204-2.408,3.125v7.655h-4.128v-14.336h4.128v1.835
		c0.917-1.204,2.322-2.121,4.1-2.121c1.806,0,3.297,0.889,4.157,2.58c1.003-1.52,2.609-2.58,4.759-2.58
		C670.9,681.538,672.85,683.688,672.85,687.559z"/>
	<path fill="#5D5153" d="M689.188,681.824v14.336h-4.128v-1.721c-0.918,1.176-2.352,2.008-4.129,2.008
		c-2.752,0-4.874-2.064-4.874-5.936v-8.688h4.129v7.741c0,1.95,1.061,3.039,2.466,3.039c1.29,0,2.237-0.889,2.409-2.494v-8.286
		H689.188z"/>
	<path fill="#5D5153" d="M705.873,687.473v8.688h-4.129v-7.741c0-1.949-1.061-3.039-2.466-3.039c-1.29,0-2.236,0.889-2.408,2.494
		v8.286h-4.128v-14.336h4.128v1.721c0.918-1.176,2.351-2.007,4.129-2.007C703.751,681.538,705.873,683.603,705.873,687.473z"/>
	<path fill="#5D5153" d="M709.253,677.036c0-1.434,1.147-2.58,2.581-2.58c1.49,0,2.608,1.146,2.608,2.58s-1.118,2.609-2.608,2.609
		C710.4,679.646,709.253,678.47,709.253,677.036z M709.798,681.824h4.129v14.336h-4.129V681.824z"/>
	<path fill="#5D5153" d="M725.737,685.695h-2.867v10.465h-4.128v-10.465h-1.807v-3.871h1.807v-3.842h4.128v3.842h2.867V685.695z"/>
	<path fill="#5D5153" d="M727.886,677.036c0-1.434,1.147-2.58,2.581-2.58c1.49,0,2.608,1.146,2.608,2.58s-1.118,2.609-2.608,2.609
		C729.033,679.646,727.886,678.47,727.886,677.036z M728.431,681.824h4.129v14.336h-4.129V681.824z"/>
	<path fill="#5D5153" d="M749.847,690.312h-9.834c0.487,1.548,1.863,2.38,3.641,2.38c1.605,0,3.097-0.459,4.53-1.147l0.028,3.698
		c-1.232,0.688-2.924,1.147-4.874,1.147c-4.673,0-7.454-3.354-7.454-7.397c0-3.985,2.81-7.397,7.139-7.397
		C747.696,681.595,750.248,685.58,749.847,690.312z M740.013,687.73h5.82c-0.401-1.434-1.463-2.322-2.811-2.322
		C741.532,685.408,740.414,686.354,740.013,687.73z"/>
	<path fill="#5D5153" d="M751.278,694.239l2.007-2.953c0.975,0.774,2.408,1.548,3.612,1.548c0.803,0,1.319-0.401,1.319-0.917
		c0-1.864-6.451-1.176-6.451-6.05c0-2.38,1.949-4.301,5.104-4.329c2.064,0,3.928,0.975,4.932,1.949l-1.95,2.925
		c-0.631-0.459-1.892-1.233-2.924-1.233c-0.717,0-1.204,0.345-1.204,0.86c0,1.777,6.565,1.147,6.537,6.05
		c0,2.466-2.15,4.329-5.391,4.329C754.948,696.418,752.654,695.529,751.278,694.239z"/>
</g>
<path fill="#EB6B7C" d="M725.095,556.53c0,4.715-3.819,8.538-8.536,8.538c-4.715,0-8.534-3.823-8.534-8.538s3.819-8.535,8.534-8.535
	C721.275,547.995,725.095,551.815,725.095,556.53z"/>
<rect x="707.439" y="584.082" fill="#FFFFFF" width="0.495" height="16.935"/>
<rect x="725.185" y="584.082" fill="#FFFFFF" width="0.497" height="17.626"/>
<rect x="716.311" y="600.155" fill="#FFFFFF" width="0.496" height="25.392"/>
<g>
	<path fill="#EB6B7C" d="M629.185,589.842c0-3.168,2.592-5.76,5.76-5.76h5.73c3.168,0,5.76,2.592,5.76,5.76v28.079
		c0,3.168-2.592,5.76-5.76,5.76h-5.73c-3.168,0-5.76-2.592-5.76-5.76V589.842z"/>
</g>
<g>
	<path fill="#EB6B7C" d="M651.2,592.237c0,4.355-3.564,7.92-7.92,7.92h-11.713c-4.356,0-7.92-3.564-7.92-7.92v-17.454
		c0-4.355,3.564-7.92,7.92-7.92h11.713c4.356,0,7.92,3.564,7.92,7.92V592.237z"/>
</g>
<path fill="#EB6B7C" d="M646.345,556.53c0,4.715-3.819,8.538-8.536,8.538c-4.715,0-8.534-3.823-8.534-8.538s3.819-8.535,8.534-8.535
	C642.525,547.995,646.345,551.815,646.345,556.53z"/>
<rect x="628.689" y="584.082" fill="#FFFFFF" width="0.495" height="16.935"/>
<rect x="646.435" y="584.082" fill="#FFFFFF" width="0.497" height="17.626"/>
<rect x="637.561" y="600.155" fill="#FFFFFF" width="0.496" height="25.392"/>
<g>
	<path fill="#EB6B7C" d="M669.739,578.521c0-3.168,2.592-5.76,5.76-5.76h5.729c3.168,0,5.76,2.592,5.76,5.76v28.079
		c0,3.168-2.592,5.76-5.76,5.76h-5.729c-3.168,0-5.76-2.592-5.76-5.76V578.521z"/>
</g>
<g>
	<path fill="#EB6B7C" d="M691.754,580.917c0,4.355-3.564,7.92-7.92,7.92h-11.712c-4.356,0-7.92-3.564-7.92-7.92v-17.454
		c0-4.355,3.564-7.92,7.92-7.92h11.712c4.355,0,7.92,3.564,7.92,7.92V580.917z"/>
</g>
<path fill="#EB6B7C" d="M686.898,545.21c0,4.715-3.819,8.538-8.536,8.538c-4.715,0-8.534-3.823-8.534-8.538s3.819-8.535,8.534-8.535
	C683.08,536.675,686.898,540.495,686.898,545.21z"/>
<rect x="669.244" y="572.762" fill="#FFFFFF" width="0.495" height="16.935"/>
<rect x="686.988" y="572.762" fill="#FFFFFF" width="0.498" height="17.626"/>
<rect x="678.115" y="588.835" fill="#FFFFFF" width="0.496" height="25.392"/>
</svg>
