<?xml version="1.0" encoding="utf-8"?>
<!-- Generator: Adobe Illustrator 16.0.0, SVG Export Plug-In . SVG Version: 6.00 Build 0)  -->
<!DOCTYPE svg PUBLIC "-//W3C//DTD SVG 1.1//EN" "http://www.w3.org/Graphics/SVG/1.1/DTD/svg11.dtd">
<svg version="1.1" id="Layer_1" xmlns="http://www.w3.org/2000/svg" xmlns:xlink="http://www.w3.org/1999/xlink" x="0px" y="0px"
	 width="1366px" height="768px" viewBox="0 0 1366 768" enable-background="new 0 0 1366 768" xml:space="preserve">
<path fill="#3DAAA2" d="M846.136,289.682c0,0-6.97-12.455,9.118-19.731c11.899-5.383,11.489-9.239,11.489-9.239
	s7.727,17.281-0.272,27.486c-8,10.204-16.828,5.951-16.828,5.951"/>
<path fill="none" stroke="#FFFFFF" stroke-width="3" stroke-linecap="round" stroke-linejoin="round" stroke-miterlimit="10" d="
	M858.595,283.201c0,0-9.268,3.082-11.582,16.4"/>
<g>
	<g>
		<path fill="none" stroke="#5D5153" stroke-width="3" stroke-miterlimit="10" d="M735.555,119.902
			c53.93,11.314,102.133,38.209,139.68,75.756c2.963,2.963,5.86,5.993,8.689,9.088"/>
		<g>
			<path fill="#5D5153" d="M882.818,203.568l1.094-3.635l0.129,0.033l1.972,5.336c0.931,1.642,1.86,3.282,2.79,4.924
				c-1.533-1.1-3.065-2.199-4.599-3.298l-5.097-2.528l-0.032-0.12L882.818,203.568z"/>
		</g>
	</g>
</g>
<g>
	<rect x="866.252" y="231.896" fill="none" width="115.145" height="61.727"/>
	<path fill="#5D5153" d="M893.531,245.2v7.445h-2.438v-7.082c0-2.568-1.322-3.917-3.164-3.917c-1.816,0-3.165,1.349-3.165,3.917
		l-0.025-0.104v7.186H882.3v-20.752h2.438v9.623c0.752-1.219,2.127-2.102,3.942-2.102
		C891.223,239.415,893.531,241.335,893.531,245.2z"/>
	<path fill="#5D5153" d="M908.628,247.146h-9.909c0.389,2.049,1.997,3.347,4.228,3.347c1.713,0,3.035-0.545,4.28-1.401v2.465
		c-1.089,0.805-2.646,1.297-4.409,1.297c-4.125,0-6.615-3.061-6.615-6.692c0-3.606,2.542-6.667,6.355-6.667
		C906.604,239.493,908.913,243.048,908.628,247.146z M898.744,245.122h7.315c-0.363-1.893-1.687-3.19-3.554-3.19
		C900.534,241.932,899.134,243.255,898.744,245.122z"/>
	<path fill="#5D5153" d="M923.749,239.675v12.971h-2.438v-2.076c-1.012,1.35-2.517,2.258-4.436,2.258
		c-3.605,0-6.07-2.932-6.07-6.667s2.465-6.667,6.07-6.667c1.919,0,3.424,0.908,4.436,2.257v-2.075H923.749z M921.311,246.16
		c0-2.282-1.687-4.28-4.021-4.28c-2.335,0-3.969,1.92-3.969,4.28c0,2.386,1.634,4.306,3.969,4.306
		C919.624,250.466,921.311,248.442,921.311,246.16z"/>
	<path fill="#5D5153" d="M927.612,231.894h2.438v20.752h-2.438V231.894z"/>
	<path fill="#5D5153" d="M939.544,242.01h-2.672v10.636h-2.438V242.01h-1.66v-2.335h1.66v-3.476h2.438v3.476h2.672V242.01z"/>
	<path fill="#5D5153" d="M953.083,245.2v7.445h-2.438v-7.082c0-2.568-1.322-3.917-3.164-3.917c-1.816,0-3.165,1.349-3.165,3.917
		l-0.026-0.104v7.186h-2.438v-20.752h2.438v9.623c0.753-1.219,2.128-2.102,3.943-2.102
		C950.774,239.415,953.083,241.335,953.083,245.2z"/>
	<path fill="#5D5153" d="M967.945,239.675l-7.601,18.158h-2.49l2.282-5.292l-5.395-12.866h2.646l3.969,10.117l3.942-10.117H967.945z
		"/>
	<path fill="#5D5153" d="M899.445,279.878c0,4.1-2.522,7.369-6.45,7.369c-1.864,0-3.298-0.803-4.301-2.036v7.569h-4.129v-20.07
		h4.129v1.807c1.003-1.232,2.437-2.035,4.301-2.035C896.923,272.481,899.445,275.749,899.445,279.878z M895.116,279.878
		c0-1.893-1.29-3.383-3.183-3.383c-1.892,0-3.211,1.576-3.211,3.383c0,1.777,1.319,3.383,3.211,3.383
		C893.826,283.261,895.116,281.741,895.116,279.878z"/>
	<path fill="#5D5153" d="M902.224,264.108h4.129v22.938h-4.129V264.108z"/>
	<path fill="#5D5153" d="M924.013,272.71v14.336h-4.129v-1.835c-1.003,1.233-2.437,2.036-4.301,2.036c-3.928,0-6.45-3.27-6.45-7.397
		c0-4.101,2.522-7.368,6.45-7.368c1.864,0,3.298,0.803,4.301,2.035v-1.807H924.013z M919.855,279.85
		c0-1.778-1.319-3.384-3.211-3.384c-1.893,0-3.183,1.52-3.183,3.384c0,1.892,1.29,3.383,3.183,3.383
		C918.536,283.232,919.855,281.655,919.855,279.85z"/>
	<path fill="#5D5153" d="M940.668,278.358v8.688h-4.129v-7.741c0-1.95-1.061-3.039-2.466-3.039c-1.29,0-2.236,0.889-2.408,2.494
		v8.286h-4.129V272.71h4.129v1.721c0.918-1.176,2.351-2.008,4.129-2.008C938.546,272.423,940.668,274.487,940.668,278.358z"/>
	<path fill="#5D5153" d="M951.789,276.581h-2.867v10.465h-4.128v-10.465h-1.807v-3.871h1.807v-3.842h4.128v3.842h2.867V276.581z"/>
	<path fill="#5D5153" d="M952.906,285.125l2.007-2.953c0.975,0.774,2.408,1.548,3.612,1.548c0.803,0,1.319-0.4,1.319-0.917
		c0-1.864-6.451-1.176-6.451-6.05c0-2.38,1.949-4.301,5.104-4.33c2.064,0,3.928,0.976,4.932,1.95l-1.95,2.925
		c-0.631-0.459-1.892-1.232-2.924-1.232c-0.717,0-1.204,0.344-1.204,0.859c0,1.777,6.565,1.146,6.536,6.05
		c0,2.466-2.149,4.329-5.39,4.329C956.576,287.304,954.282,286.415,952.906,285.125z"/>
</g>
<path fill="#3DAAA2" d="M831.227,273.785c0,0,11.721-19.781-14.057-32.41c-19.064-9.342-18.263-15.557-18.263-15.557
	s-13.118,27.551-0.538,44.489c12.584,16.937,27.025,10.522,27.025,10.522"/>
<path fill="none" stroke="#3DAAA2" stroke-width="3" stroke-linecap="round" stroke-linejoin="round" stroke-miterlimit="10" d="
	M810.579,261.464c0,0,4.687,12.907,23.664,23.817c25.146,14.453,8.905,49.592,8.905,49.592"/>
<path fill="none" stroke="#3DAAA2" stroke-width="3" stroke-linecap="round" stroke-linejoin="round" stroke-miterlimit="10" d="
	M843.148,336.306"/>
<path fill="none" stroke="#FFFFFF" stroke-width="3" stroke-linecap="round" stroke-linejoin="round" stroke-miterlimit="10" d="
	M810.104,261.85c0,0,3.505,7.947,13.301,15.424"/>
</svg>
