<?xml version="1.0" encoding="utf-8"?>
<!-- Generator: Adobe Illustrator 16.0.0, SVG Export Plug-In . SVG Version: 6.00 Build 0)  -->
<!DOCTYPE svg PUBLIC "-//W3C//DTD SVG 1.1//EN" "http://www.w3.org/Graphics/SVG/1.1/DTD/svg11.dtd">
<svg version="1.1" xmlns="http://www.w3.org/2000/svg" xmlns:xlink="http://www.w3.org/1999/xlink" x="0px" y="0px" width="360px"
	 height="360px" viewBox="0 0 360 360" enable-background="new 0 0 360 360" xml:space="preserve">
<g id="brown_background_for_context" display="none">
	<rect x="-1592.654" y="-45.203" display="inline" fill="#3B3234" width="2375.952" height="1245.126"/>
</g>
<g id="white_imagery__x2B__text">
</g>
<g id="Donations-Dollar_sign_copy">
</g>
<g id="Donations-Banknote">
</g>
<g id="Education-Brain">
</g>
<g id="Education-Book">
</g>
<g id="Social_Media-Connected_copy">
</g>
<g id="Social_Media-Wifi_copy">
</g>
<g id="Social_Media-Hashtag_copy">
</g>
<g id="Legislators-Capitol_Building">
</g>
<g id="Legislators-Gavel">
</g>
<g id="Community-Pin">
	<g>
		<circle fill="#FFCE01" cx="180" cy="174.215" r="119.116"/>
	</g>
	<circle fill="#FFFFFF" cx="122.013" cy="130.385" r="13.25"/>
	<g>
		<path fill="#FFFFFF" d="M142.798,188.084c0,5.504-4.504,10.008-10.008,10.008h-22.748c-5.504,0-10.008-4.504-10.008-10.008V156.43
			c0-5.504,4.504-10.008,10.008-10.008h22.748c5.504,0,10.008,4.503,10.008,10.008V188.084z"/>
	</g>
	<g>
		<path fill="#FFFFFF" d="M135.263,224.596c0,5.504-4.504,10.008-10.008,10.008h-6.483c-5.504,0-10.008-4.504-10.008-10.008V192.94
			c0-5.504,4.504-10.008,10.008-10.008h6.483c5.504,0,10.008,4.504,10.008,10.008V224.596z"/>
	</g>
	<circle fill="#FFFFFF" cx="238.855" cy="130.385" r="13.249"/>
	<g>
		<path fill="#FFFFFF" d="M259.641,188.084c0,5.504-4.504,10.008-10.008,10.008h-22.749c-5.504,0-10.008-4.504-10.008-10.008V156.43
			c0-5.504,4.504-10.008,10.008-10.008h22.749c5.504,0,10.008,4.503,10.008,10.008V188.084z"/>
	</g>
	<g>
		<path fill="#FFFFFF" d="M252.104,224.596c0,5.504-4.504,10.008-10.008,10.008h-6.482c-5.504,0-10.008-4.504-10.008-10.008V192.94
			c0-5.504,4.504-10.008,10.008-10.008h6.482c5.504,0,10.008,4.504,10.008,10.008V224.596z"/>
	</g>
	<circle fill="#FFFFFF" cx="179.977" cy="123.829" r="15.213"/>
	<g>
		<path fill="#FFFFFF" d="M203.844,191.566c0,5.504-4.504,10.008-10.008,10.008h-29.089c-5.504,0-10.008-4.504-10.008-10.008V152.25
			c0-5.504,4.504-10.008,10.008-10.008h29.089c5.504,0,10.008,4.503,10.008,10.008V191.566z"/>
	</g>
	<g>
		<path fill="#FFFFFF" d="M195.19,233.489c0,5.504-4.504,10.008-10.008,10.008h-10.411c-5.504,0-10.008-4.504-10.008-10.008v-39.315
			c0-5.504,4.504-10.008,10.008-10.008h10.411c5.504,0,10.008,4.504,10.008,10.008V233.489z"/>
	</g>
	<rect x="107.993" y="174.215" fill="#FFCE01" width="0.771" height="26.285"/>
	<rect x="135.263" y="174.215" fill="#FFCE01" width="0.771" height="27.358"/>
	<rect x="121.627" y="198.091" fill="#FFCE01" width="0.771" height="39.409"/>
	<rect x="224.834" y="174.215" fill="#FFCE01" width="0.771" height="26.285"/>
	<rect x="252.104" y="174.215" fill="#FFCE01" width="0.771" height="27.358"/>
	<rect x="238.468" y="198.091" fill="#FFCE01" width="0.771" height="39.409"/>
	<rect x="163.883" y="172.002" fill="#FFCE01" width="0.88" height="30.043"/>
	<rect x="195.257" y="172.002" fill="#FFCE01" width="0.881" height="31.27"/>
	<rect x="179.671" y="201.573" fill="#FFCE01" width="0.881" height="42.762"/>
</g>
<g id="Community-Pin_copy">
</g>
<g id="Community-Houses_1_">
</g>
<g id="At_Home-Trowel">
</g>
<g id="At_Home-House">
</g>
</svg>
