<?xml version="1.0" encoding="utf-8"?>
<!-- Generator: Adobe Illustrator 16.0.0, SVG Export Plug-In . SVG Version: 6.00 Build 0)  -->
<!DOCTYPE svg PUBLIC "-//W3C//DTD SVG 1.1//EN" "http://www.w3.org/Graphics/SVG/1.1/DTD/svg11.dtd">
<svg version="1.1" xmlns="http://www.w3.org/2000/svg" xmlns:xlink="http://www.w3.org/1999/xlink" x="0px" y="0px" width="360px"
	 height="360px" viewBox="0 0 360 360" enable-background="new 0 0 360 360" xml:space="preserve">
<g id="brown_background_for_context" display="none">
	<rect x="-61.085" y="-440.372" display="inline" fill="#3B3234" width="2375.952" height="1245.126"/>
</g>
<g id="white_imagery__x2B__text">
</g>
<g id="Donations-Dollar_sign_copy">
</g>
<g id="Donations-Banknote">
</g>
<g id="Education-Brain">
</g>
<g id="Education-Book">
</g>
<g id="Social_Media-Connected_copy">
</g>
<g id="Social_Media-Wifi_copy">
</g>
<g id="Social_Media-Hashtag_copy">
</g>
<g id="Legislators-Capitol_Building">
</g>
<g id="Legislators-Gavel">
	<g>
		<circle fill="#3DAAA1" cx="180" cy="179.948" r="119.117"/>
	</g>
	<g>
		<path fill="#FFFFFF" d="M152.1,131.415l43.59,18.043c0,0,2.94,1.926,4.562-1.418c1.621-3.346,3.143-7.328,3.143-7.328
			s1.216-2.836-1.926-4.344c-3.144-1.508-43.692-18.132-43.692-18.132s-2.94-1.217-4.459,1.825
			c-1.522,3.041-2.737,6.386-2.737,6.386S148.758,130.03,152.1,131.415z"/>
		<path fill="#FFFFFF" d="M128.683,188.284l43.591,18.043c0,0,2.938,1.928,4.561-1.418s3.144-7.328,3.144-7.328
			s1.216-2.836-1.926-4.344c-3.144-1.507-43.691-18.132-43.691-18.132s-2.94-1.216-4.46,1.825c-1.521,3.041-2.737,6.387-2.737,6.387
			S125.341,186.899,128.683,188.284z"/>
		<path fill="#FFFFFF" d="M252.56,185.142l-64.804-20.816l4.689-11.217l-40.144-16.74l-14.394,35.365l39.939,16.281l4.926-11.777
			l61.271,31.916c0,0,16.353,7.617,20.482-4.801C268.678,190.872,252.56,185.142,252.56,185.142z"/>
		<path fill="#FFFFFF" d="M187.985,231.163v-7.096c0,0-0.607-3.648-4.258-3.648c-2.511,0-14.913,0-22.403,0h-5.777h-7.502h-2.838
			c-6.563,0-22.462,0-25.344,0c-3.648,0-4.257,3.648-4.257,3.648v7.096c0,0-5.271-0.102-5.271,5.678
			c0,4.055,3.649,4.865,3.649,4.865h31.223h2.838h7.502h5.777h28.283c0,0,3.648-0.811,3.648-4.865
			C193.256,231.062,187.985,231.163,187.985,231.163z"/>
	</g>
</g>
<g id="Community-Pin">
</g>
<g id="Community-Pin_copy">
</g>
<g id="Community-Houses_1_">
</g>
<g id="At_Home-Trowel">
</g>
<g id="At_Home-House">
</g>
</svg>
