<?xml version="1.0" encoding="utf-8"?>
<!-- Generator: Adobe Illustrator 16.0.0, SVG Export Plug-In . SVG Version: 6.00 Build 0)  -->
<!DOCTYPE svg PUBLIC "-//W3C//DTD SVG 1.1//EN" "http://www.w3.org/Graphics/SVG/1.1/DTD/svg11.dtd">
<svg version="1.1" xmlns="http://www.w3.org/2000/svg" xmlns:xlink="http://www.w3.org/1999/xlink" x="0px" y="0px" width="360px"
	 height="360px" viewBox="0 0 360 360" enable-background="new 0 0 360 360" xml:space="preserve">
<g id="brown_background_for_context" display="none">
	<rect x="-444.329" y="-840.288" display="inline" fill="#3B3234" width="2375.952" height="1245.126"/>
</g>
<g id="white_imagery__x2B__text">
</g>
<g id="Donations-Dollar_sign_copy">
</g>
<g id="Donations-Banknote">
	<circle fill="#F27243" cx="183.537" cy="180.001" r="119.117"/>
	<path fill="#FFFFFF" d="M98.673,144.793c0,0,24.886-14.864,86.992,0c41.999,10.052,82.561-9.751,82.561-9.751v80.341
		c0,0-29.752,26.532-84.776,9.752c-46.846-14.287-84.776,2.771-84.776,2.771V144.793z"/>
	
		<ellipse transform="matrix(0.9938 0.1114 -0.1114 0.9938 21.7997 -19.8513)" fill="#F27243" cx="188.48" cy="185.084" rx="24.725" ry="33.07"/>
	<g>
		<path fill="#FFFFFF" d="M197.741,193.426c-0.555,4.53-4.07,7.911-9.543,8.025l-0.298,2.651l-4.044-0.453l0.299-2.651
			c-3.624-0.95-6.683-3.297-8.428-5.994l4.607-4.578c1.521,2.263,4.125,4.193,6.507,4.46c2.246,0.252,3.739-0.9,3.927-2.562
			c0.614-5.479-13.2-5.618-11.962-15.852c0.474-4.225,4.022-7.465,8.961-7.686l0.317-2.829l4.042,0.452l-0.312,2.787
			c3.309,0.917,5.893,3.025,7.482,5.068l-4.332,4.563c-1.282-1.552-3.457-3.253-5.567-3.49c-2.024-0.227-3.453,0.75-3.629,2.324
			C185.215,182.603,198.97,183.282,197.741,193.426z"/>
	</g>
</g>
<g id="Education-Brain">
</g>
<g id="Education-Book">
</g>
<g id="Social_Media-Connected_copy">
</g>
<g id="Social_Media-Wifi_copy">
</g>
<g id="Social_Media-Hashtag_copy">
</g>
<g id="Legislators-Capitol_Building">
</g>
<g id="Legislators-Gavel">
</g>
<g id="Community-Pin">
</g>
<g id="Community-Pin_copy">
</g>
<g id="Community-Houses_1_">
</g>
<g id="At_Home-Trowel">
</g>
<g id="At_Home-House">
</g>
</svg>
