<?xml version="1.0" encoding="utf-8"?>
<!-- Generator: Adobe Illustrator 16.0.0, SVG Export Plug-In . SVG Version: 6.00 Build 0)  -->
<!DOCTYPE svg PUBLIC "-//W3C//DTD SVG 1.1//EN" "http://www.w3.org/Graphics/SVG/1.1/DTD/svg11.dtd">
<svg version="1.1" id="Layer_1" xmlns="http://www.w3.org/2000/svg" xmlns:xlink="http://www.w3.org/1999/xlink" x="0px" y="0px"
	 width="144px" height="141.08px" viewBox="0 0 144 141.08" enable-background="new 0 0 144 141.08" xml:space="preserve">
<path fill="#EC6B7C" d="M125.212-0.607H23.067c-21.754,0-23.065,21.709-23.065,21.709s0,80.773,0,100.213
	s23.065,19.765,23.065,19.765s22.76,0,47.12,0V84.734H58.156V64.137h12.031c0-0.995,0-4.722,0-16.798
	c0-20.918,21.085-21.253,21.085-21.253h20.977v19.77c0,0-6.477,0-12.076,0c-5.607,0-5.934,5.274-5.934,5.274v12.845h18.779
	l-2.632,20.434H94.239v56.671c13.759,0,25.573,0,30.973,0c17.467,0,18.788-20.425,18.788-20.425s0-80.733,0-99.553
	C144,2.278,125.212-0.607,125.212-0.607z"/>
</svg>
