<?xml version="1.0" encoding="utf-8"?>
<!-- Generator: Adobe Illustrator 16.0.0, SVG Export Plug-In . SVG Version: 6.00 Build 0)  -->
<!DOCTYPE svg PUBLIC "-//W3C//DTD SVG 1.1//EN" "http://www.w3.org/Graphics/SVG/1.1/DTD/svg11.dtd">
<svg version="1.1" id="Layer_1" xmlns="http://www.w3.org/2000/svg" xmlns:xlink="http://www.w3.org/1999/xlink" x="0px" y="0px"
	 width="144px" height="141.08px" viewBox="0 0 144 141.08" enable-background="new 0 0 144 141.08" xml:space="preserve">
<g>
	<circle fill="#EC6B7C" cx="71.841" cy="70.683" r="16.932"/>
	<path fill="#EC6B7C" d="M104.175,27.645H42.106c-13.213,0-14.017,13.182-14.017,13.182s0,49.081,0,60.895
		s14.017,12.013,14.017,12.013s51.459,0,62.068,0c10.614,0,11.413-12.419,11.413-12.419s0-49.054,0-60.489
		C115.588,29.387,104.175,27.645,104.175,27.645z M71.841,98.302c-15.255,0-27.618-12.365-27.618-27.618
		c0-15.253,12.363-27.618,27.618-27.618c15.251,0,27.618,12.365,27.618,27.618C99.459,85.937,87.092,98.302,71.841,98.302z
		 M99.956,49.076c-3.813,0-6.905-3.096-6.905-6.904c0-3.818,3.091-6.905,6.905-6.905c3.813,0,6.904,3.087,6.904,6.905
		C106.86,45.98,103.769,49.076,99.956,49.076z"/>
	<path fill="#EC6B7C" d="M124.938,0H23.015C1.315,0,0,21.652,0,21.652s0,80.593,0,99.989c0,19.405,23.015,19.729,23.015,19.729
		s84.497,0,101.923,0c17.424,0,18.739-20.379,18.739-20.379s0-80.553,0-99.339C143.677,2.87,124.938,0,124.938,0z M124.464,107.535
		c0,0-0.961,14.928-13.728,14.928c-12.764,0-74.664,0-74.664,0s-16.86-0.235-16.86-14.441c0-14.215,0-73.26,0-73.26
		s0.964-15.853,16.86-15.853h74.664c0,0,13.728,2.103,13.728,15.853C124.464,48.526,124.464,107.535,124.464,107.535z"/>
</g>
</svg>
