<?xml version="1.0" encoding="utf-8"?>
<!-- Generator: Adobe Illustrator 16.0.0, SVG Export Plug-In . SVG Version: 6.00 Build 0)  -->
<!DOCTYPE svg PUBLIC "-//W3C//DTD SVG 1.1//EN" "http://www.w3.org/Graphics/SVG/1.1/DTD/svg11.dtd">
<svg version="1.1" id="Layer_1" xmlns="http://www.w3.org/2000/svg" xmlns:xlink="http://www.w3.org/1999/xlink" x="0px" y="0px"
	 width="144px" height="140.924px" viewBox="0 0 144 140.924" enable-background="new 0 0 144 140.924" xml:space="preserve">
<g>
	<path fill="#EC6B7C" d="M112.043,50.037"/>
	<path fill="#EC6B7C" d="M124.532-0.002H22.938C1.31-0.002,0.002,21.58,0.002,21.58s0,80.341,0,99.679s22.936,19.665,22.936,19.665
		s6.758,0,16.794,0c8.384,0,19.048,0,30.075,0h23.916c9.973,0,18.884,0,25.088,0c2.307,0,4.269,0,5.722,0
		c17.367,0,18.685-20.328,18.685-20.328s0-80.277,0-99.016C143.217,2.859,124.532-0.002,124.532-0.002z M112.043,50.037
		c0,0,3.37,27.168-23.126,49.395c-30.919,25.941-67.833,2.916-67.833,2.916c18.166,2.471,31.01-8.302,31.01-8.302
		c-17.285-1.799-19.538-14.824-19.538-14.824c5.169,1.571,9.211,0,9.211,0c-17.513-5.159-16.423-20.655-16.423-20.655
		c4.261,2.916,9.011,2.471,9.011,2.471c-15.269-11-6.513-27.395-6.513-27.395c17.022,20.201,37.313,21.545,43.617,21.437
		c-0.636-1.944-0.989-4.015-0.989-6.168c0-10.909,8.847-19.756,19.765-19.756c6.331,0,11.963,2.979,15.578,7.611
		c0.345-0.154,0.708-0.3,1.117-0.427c7.911-2.471,12.298-5.168,12.298-5.168c-2.897,8.538-8.756,11.227-8.756,11.227
		c7.639-1.081,11.653-2.916,11.653-2.916C119.637,45.323,112.043,50.037,112.043,50.037z"/>
</g>
</svg>
