<?xml version="1.0" encoding="utf-8"?>
<!-- Generator: Adobe Illustrator 16.0.0, SVG Export Plug-In . SVG Version: 6.00 Build 0)  -->
<!DOCTYPE svg PUBLIC "-//W3C//DTD SVG 1.1//EN" "http://www.w3.org/Graphics/SVG/1.1/DTD/svg11.dtd">
<svg version="1.1" id="Layer_1" xmlns="http://www.w3.org/2000/svg" xmlns:xlink="http://www.w3.org/1999/xlink" x="0px" y="0px"
	 width="144px" height="140.924px" viewBox="0 0 144 140.924" enable-background="new 0 0 144 140.924" xml:space="preserve">
<path fill="#EC6B7C" d="M125.094-0.227H23.171c-21.697,0-23.009,21.655-23.009,21.655s0,80.596,0,99.992
	c0,19.404,23.009,19.728,23.009,19.728s6.78,0,16.85,0c8.411,0,19.108,0,30.171,0h23.993c10.005,0,18.945,0,25.169,0
	c2.314,0,4.283,0,5.741,0c17.423,0,18.744-20.385,18.744-20.385s0-80.545,0-99.335C143.838,2.648,125.094-0.227,125.094-0.227z
	 M48.067,100.389V40.523l58.647,29.94L48.067,100.389z"/>
</svg>
