<?xml version="1.0" encoding="utf-8"?>
<!-- Generator: Adobe Illustrator 16.0.0, SVG Export Plug-In . SVG Version: 6.00 Build 0)  -->
<!DOCTYPE svg PUBLIC "-//W3C//DTD SVG 1.1//EN" "http://www.w3.org/Graphics/SVG/1.1/DTD/svg11.dtd">
<svg version="1.1" xmlns="http://www.w3.org/2000/svg" xmlns:xlink="http://www.w3.org/1999/xlink" x="0px" y="0px" width="360px"
	 height="360px" viewBox="0 0 360 360" enable-background="new 0 0 360 360" xml:space="preserve">
<g id="brown_background_for_context" display="none">
	<rect x="-1974.331" y="-440.372" display="inline" fill="#3B3234" width="2375.952" height="1245.126"/>
</g>
<g id="white_imagery__x2B__text">
</g>
<g id="Donations-Dollar_sign_copy">
</g>
<g id="Donations-Banknote">
</g>
<g id="Education-Brain">
	<circle fill="#5C5052" cx="181.568" cy="184.705" r="119.117"/>
	
		<path fill="#FFFFFF" stroke="#5C5052" stroke-width="5" stroke-linecap="round" stroke-linejoin="round" stroke-miterlimit="10" d="
		M182.501,123.372c0,0,1.607-17.334,22.94-17.334s18,23.334,18,23.334s34.667-5.334,28.667,34.666c0,0,20,27.334-10,51.334
		c0,0,6.666,13.334-0.667,22s-25.333,8.666-25.333,8.666s0.667,17.334-16,17.334s-17.607-14.667-17.607-14.667V123.372z"/>
	
		<path fill="#FFFFFF" stroke="#5C5052" stroke-width="5" stroke-linecap="round" stroke-linejoin="round" stroke-miterlimit="10" d="
		M181.633,246.038c0,0-1.607,17.334-22.94,17.334s-18-23.334-18-23.334s-34.667,5.334-28.667-34.666c0,0-20-27.334,10-51.334
		c0,0-6.666-13.334,0.667-22s25.333-8.666,25.333-8.666s-0.667-17.334,16-17.334s17.607,14.667,17.607,14.667V246.038z"/>
	<path fill="none" stroke="#5C5052" stroke-width="5" stroke-linecap="round" stroke-linejoin="round" stroke-miterlimit="10" d="
		M225.999,205.362c0,0,11.666-2.531,18.12,15.802"/>
	<path fill="none" stroke="#5C5052" stroke-width="5" stroke-linecap="round" stroke-linejoin="round" stroke-miterlimit="10" d="
		M122.025,154.038c0,0,11.986-9.874,23.974,4.46"/>
	<path fill="none" stroke="#3B3234" stroke-width="5" stroke-linecap="round" stroke-linejoin="round" stroke-miterlimit="10" d="
		M247.999,163.164"/>
	<path fill="none" stroke="#5C5052" stroke-width="5" stroke-linecap="round" stroke-linejoin="round" stroke-miterlimit="10" d="
		M252.108,164.038c0,0-3.11,6.46-10.443,10.793"/>
	<path fill="none" stroke="#5C5052" stroke-width="5" stroke-linecap="round" stroke-linejoin="round" stroke-miterlimit="10" d="
		M164.331,195.832c0,0,17.171-3.948,17.236-13.641s4.076,15.263,15.431,13.641"/>
</g>
<g id="Education-Book">
</g>
<g id="Social_Media-Connected_copy">
</g>
<g id="Social_Media-Wifi_copy">
</g>
<g id="Social_Media-Hashtag_copy">
</g>
<g id="Legislators-Capitol_Building">
</g>
<g id="Legislators-Gavel">
</g>
<g id="Community-Pin">
</g>
<g id="Community-Pin_copy">
</g>
<g id="Community-Houses_1_">
</g>
<g id="At_Home-Trowel">
</g>
<g id="At_Home-House">
</g>
</svg>
