<?xml version="1.0" encoding="utf-8"?>
<!-- Generator: Adobe Illustrator 16.0.0, SVG Export Plug-In . SVG Version: 6.00 Build 0)  -->
<!DOCTYPE svg PUBLIC "-//W3C//DTD SVG 1.1//EN" "http://www.w3.org/Graphics/SVG/1.1/DTD/svg11.dtd">
<svg version="1.1" xmlns="http://www.w3.org/2000/svg" xmlns:xlink="http://www.w3.org/1999/xlink" x="0px" y="0px" width="360px"
	 height="360px" viewBox="0 0 360 360" enable-background="new 0 0 360 360" xml:space="preserve">
<g id="brown_background_for_context">
</g>
<g id="background_circles">
	<circle fill="#5C5052" cx="180" cy="179.999" r="119.116"/>
</g>
<g id="white_imagery__x2B__text">
	<g>
		<rect x="124.018" y="186.935" fill="#FFFFFF" width="25.707" height="12.854"/>
		<rect x="154.314" y="186.935" fill="#FFFFFF" width="25.706" height="12.854"/>
		<rect x="184.075" y="186.935" fill="#FFFFFF" width="25.707" height="12.854"/>
		<rect x="214.104" y="186.935" fill="#FFFFFF" width="25.706" height="12.854"/>
		<rect x="196.929" y="170.027" fill="#FFFFFF" width="25.707" height="12.853"/>
		<rect x="167.168" y="170.027" fill="#FFFFFF" width="25.706" height="12.853"/>
		<rect x="136.871" y="170.027" fill="#FFFFFF" width="25.707" height="12.853"/>
		<rect x="152.455" y="152.919" fill="#FFFFFF" width="25.706" height="12.854"/>
		<rect x="181.88" y="152.919" fill="#FFFFFF" width="25.706" height="12.854"/>
	</g>
	<g>
		<rect x="87.345" y="109.41" fill="none" width="181.14" height="38.63"/>
		<path fill="#FFFFFF" d="M103.967,114.945v3.162h2.93v3.916h-2.93v10.587H99.79v-10.587h-1.886v-3.916h1.886v-4.235
			c0-2.843,1.334-4.641,4.061-4.641c1.189,0,2.379,0.319,3.046,0.667v4.235c-0.552-0.232-1.132-0.435-1.827-0.435
			C104.431,113.697,103.967,114.104,103.967,114.945z"/>
		<path fill="#FFFFFF" d="M107.88,125.358c0-4.09,3.075-7.542,7.484-7.542c4.438,0,7.513,3.452,7.513,7.542
			c0,4.061-3.075,7.542-7.513,7.542C110.955,132.9,107.88,129.419,107.88,125.358z M118.612,125.329
			c0-1.798-1.275-3.336-3.248-3.336c-1.914,0-3.221,1.538-3.221,3.336c0,1.828,1.307,3.394,3.221,3.394
			C117.337,128.723,118.612,127.186,118.612,125.329z"/>
		<path fill="#FFFFFF" d="M138.826,118.106v14.503h-4.177v-1.74c-0.929,1.189-2.379,2.03-4.178,2.03
			c-2.784,0-4.931-2.088-4.931-6.004v-8.789h4.177v7.832c0,1.972,1.073,3.075,2.494,3.075c1.306,0,2.264-0.899,2.438-2.524v-8.383
			H138.826z"/>
		<path fill="#FFFFFF" d="M155.704,123.821v8.789h-4.178v-7.832c0-1.972-1.072-3.075-2.494-3.075c-1.305,0-2.263,0.899-2.437,2.524
			v8.383h-4.177v-14.503h4.177v1.74c0.929-1.189,2.378-2.03,4.177-2.03C153.558,117.816,155.704,119.905,155.704,123.821z"/>
		<path fill="#FFFFFF" d="M173.364,109.404v23.206h-4.177v-1.828c-1.015,1.218-2.466,2.031-4.321,2.031
			c-3.975,0-6.527-3.307-6.527-7.484c0-4.148,2.553-7.455,6.527-7.455c1.855,0,3.307,0.812,4.321,2.03v-10.5H173.364z
			 M169.188,125.329c0-1.798-1.335-3.423-3.249-3.423s-3.219,1.538-3.219,3.423c0,1.915,1.305,3.423,3.219,3.423
			S169.188,127.157,169.188,125.329z"/>
		<path fill="#FFFFFF" d="M191.228,118.106v14.503h-4.176v-1.856c-1.016,1.247-2.467,2.06-4.352,2.06
			c-3.975,0-6.527-3.307-6.527-7.484c0-4.148,2.553-7.455,6.527-7.455c1.885,0,3.336,0.812,4.352,2.059v-1.827H191.228z
			 M187.022,125.329c0-1.798-1.334-3.423-3.25-3.423c-1.914,0-3.219,1.538-3.219,3.423c0,1.915,1.305,3.423,3.219,3.423
			C185.688,128.752,187.022,127.157,187.022,125.329z"/>
		<path fill="#FFFFFF" d="M202.624,122.022h-2.9v10.587h-4.178v-10.587h-1.826v-3.916h1.826v-3.887h4.178v3.887h2.9V122.022z"/>
		<path fill="#FFFFFF" d="M204.798,113.262c0-1.45,1.16-2.611,2.609-2.611c1.508,0,2.641,1.161,2.641,2.611s-1.133,2.64-2.641,2.64
			C205.958,115.902,204.798,114.712,204.798,113.262z M205.349,118.106h4.176v14.503h-4.176V118.106z"/>
		<path fill="#FFFFFF" d="M212.888,125.358c0-4.09,3.074-7.542,7.484-7.542c4.438,0,7.512,3.452,7.512,7.542
			c0,4.061-3.074,7.542-7.512,7.542C215.962,132.9,212.888,129.419,212.888,125.358z M223.62,125.329
			c0-1.798-1.275-3.336-3.248-3.336c-1.916,0-3.221,1.538-3.221,3.336c0,1.828,1.305,3.394,3.221,3.394
			C222.345,128.723,223.62,127.186,223.62,125.329z"/>
		<path fill="#FFFFFF" d="M244.009,123.821v8.789h-4.178v-7.832c0-1.972-1.074-3.075-2.494-3.075c-1.307,0-2.264,0.899-2.438,2.524
			v8.383h-4.176v-14.503h4.176v1.74c0.928-1.189,2.379-2.03,4.178-2.03C241.862,117.816,244.009,119.905,244.009,123.821z"/>
		<path fill="#FFFFFF" d="M246.585,130.667l2.031-2.988c0.986,0.783,2.436,1.566,3.654,1.566c0.812,0,1.334-0.406,1.334-0.928
			c0-1.886-6.525-1.189-6.525-6.121c0-2.408,1.973-4.351,5.162-4.38c2.09,0,3.975,0.986,4.99,1.972l-1.973,2.959
			c-0.639-0.464-1.914-1.248-2.959-1.248c-0.725,0-1.219,0.348-1.219,0.871c0,1.798,6.643,1.16,6.615,6.12
			c0,2.495-2.176,4.38-5.455,4.38C250.298,132.871,247.978,131.972,246.585,130.667z"/>
	</g>
	<g>
		<rect x="102.764" y="216.785" fill="none" width="158.638" height="58.804"/>
		<path fill="#FFFFFF" d="M132.903,228.884c0,3.169-2.09,5.655-5.148,5.655c-1.628,0-2.926-0.793-3.784-1.959v1.805h-2.068v-17.603
			h2.068v8.384c0.858-1.145,2.156-1.938,3.784-1.938C130.813,223.229,132.903,225.715,132.903,228.884z M130.77,228.884
			c0-2.024-1.386-3.652-3.366-3.652s-3.41,1.716-3.41,3.652s1.43,3.631,3.41,3.631S130.77,230.887,130.77,228.884z"/>
		<path fill="#FFFFFF" d="M144.827,223.383v11.002h-2.068v-1.54c-0.638,1.034-1.805,1.761-3.322,1.761
			c-2.156,0-4.115-1.629-4.115-4.907v-6.315h2.068v6.008c0,2.178,1.123,3.322,2.686,3.322c1.539,0,2.684-1.145,2.684-3.322v-6.008
			H144.827z"/>
		<path fill="#FFFFFF" d="M148.082,219.885c0-0.77,0.594-1.387,1.408-1.387c0.813,0,1.408,0.617,1.408,1.387
			c0,0.814-0.595,1.43-1.408,1.43C148.676,221.314,148.082,220.699,148.082,219.885z M148.456,223.383h2.068v11.002h-2.068V223.383z
			"/>
		<path fill="#FFFFFF" d="M154.176,216.782h2.068v17.603h-2.068V216.782z"/>
		<path fill="#FFFFFF" d="M169.819,216.782v17.603h-2.068v-1.76c-0.858,1.144-2.135,1.914-3.764,1.914
			c-3.058,0-5.148-2.486-5.148-5.655s2.091-5.655,5.148-5.655c1.629,0,2.905,0.771,3.764,1.915v-8.361H169.819z M167.751,228.884
			c0-1.937-1.431-3.63-3.411-3.63c-1.979,0-3.366,1.628-3.366,3.63c0,2.024,1.387,3.653,3.366,3.653
			C166.32,232.537,167.751,230.82,167.751,228.884z"/>
		<path fill="#FFFFFF" d="M173.073,219.885c0-0.77,0.594-1.387,1.408-1.387s1.408,0.617,1.408,1.387c0,0.814-0.594,1.43-1.408,1.43
			S173.073,220.699,173.073,219.885z M173.447,223.383h2.068v11.002h-2.068V223.383z"/>
		<path fill="#FFFFFF" d="M188.673,228.07v6.314h-2.068v-6.007c0-2.179-1.122-3.322-2.685-3.322c-1.54,0-2.685,1.144-2.685,3.322
			v6.007h-2.068v-11.002h2.068v1.541c0.639-1.035,1.805-1.761,3.322-1.761C186.715,223.163,188.673,224.791,188.673,228.07z"/>
		<path fill="#FFFFFF" d="M201.939,233.923c0,3.366-2.618,5.017-5.237,5.017c-1.672,0-2.97-0.484-4.18-1.166l0.021-2.179
			c1.232,0.858,2.641,1.386,3.938,1.386c2.024,0,3.433-1.144,3.433-3.586v-0.836c-0.858,1.188-2.156,1.98-3.807,1.98
			c-3.059,0-5.148-2.486-5.148-5.655s2.09-5.655,5.148-5.655c1.628,0,2.927,0.771,3.763,1.938v-1.783h2.046L201.939,233.923z
			 M199.871,228.884c0-1.937-1.431-3.63-3.41-3.63c-1.98,0-3.367,1.628-3.367,3.63c0,2.024,1.387,3.653,3.367,3.653
			C198.44,232.537,199.871,230.82,199.871,228.884z"/>
		<path fill="#FFFFFF" d="M211.903,228.884c0-3.058,2.288-5.677,5.61-5.677c3.323,0,5.611,2.619,5.611,5.677
			c0,3.059-2.288,5.677-5.611,5.677C214.191,234.561,211.903,231.942,211.903,228.884z M220.99,228.861
			c0-1.936-1.364-3.586-3.477-3.586c-2.068,0-3.498,1.65-3.498,3.586c0,1.959,1.43,3.631,3.498,3.631
			C219.626,232.492,220.99,230.82,220.99,228.861z"/>
		<path fill="#FFFFFF" d="M235.049,223.383v11.002h-2.068v-1.54c-0.638,1.034-1.804,1.761-3.322,1.761
			c-2.156,0-4.114-1.629-4.114-4.907v-6.315h2.068v6.008c0,2.178,1.122,3.322,2.684,3.322c1.541,0,2.685-1.145,2.685-3.322v-6.008
			H235.049z"/>
		<path fill="#FFFFFF" d="M243.562,223.163v2.442c-1.562-0.264-3.168,0.572-3.168,2.948l-0.022-0.088v5.919h-2.068v-11.002h2.068
			v1.893C240.967,224.153,242.089,223.163,243.562,223.163z"/>
		<path fill="#FFFFFF" d="M118.492,251.884c0-3.058,2.2-5.677,5.61-5.677c1.519,0,2.574,0.418,3.433,1.1v2.398
			c-0.66-0.748-1.849-1.43-3.257-1.43c-2.178,0-3.674,1.606-3.674,3.608c0,1.98,1.496,3.608,3.674,3.608
			c1.408,0,2.597-0.682,3.257-1.43v2.398c-0.858,0.682-1.914,1.1-3.433,1.1C120.692,257.561,118.492,254.942,118.492,251.884z"/>
		<path fill="#FFFFFF" d="M129.624,251.884c0-3.058,2.288-5.677,5.611-5.677c3.322,0,5.61,2.619,5.61,5.677
			c0,3.059-2.288,5.677-5.61,5.677C131.912,257.561,129.624,254.942,129.624,251.884z M138.711,251.861
			c0-1.936-1.364-3.586-3.476-3.586c-2.068,0-3.499,1.65-3.499,3.586c0,1.959,1.431,3.631,3.499,3.631
			C137.347,255.492,138.711,253.82,138.711,251.861z"/>
		<path fill="#FFFFFF" d="M159.92,250.982l-0.022,6.402h-2.067v-6.051c0-1.98-0.99-3.256-2.553-3.256
			c-1.584,0-2.574,1.275-2.574,3.322v5.984h-2.068v-6.051c0-1.98-1.013-3.256-2.574-3.256c-1.562,0-2.552,1.275-2.552,3.322
			l-0.022-0.066v6.051h-2.068v-11.002h2.068v1.496c0.616-0.968,1.716-1.716,3.212-1.716c1.431,0,2.772,0.748,3.477,2.222
			c0.682-1.209,1.914-2.222,3.697-2.222C158.138,246.163,159.92,247.791,159.92,250.982z"/>
		<path fill="#FFFFFF" d="M179.5,250.982l-0.021,6.402h-2.068v-6.051c0-1.98-0.99-3.256-2.553-3.256
			c-1.584,0-2.574,1.275-2.574,3.322v5.984h-2.068v-6.051c0-1.98-1.013-3.256-2.574-3.256c-1.562,0-2.552,1.275-2.552,3.322
			l-0.022-0.066v6.051h-2.068v-11.002h2.068v1.496c0.616-0.968,1.716-1.716,3.212-1.716c1.431,0,2.772,0.748,3.477,2.222
			c0.682-1.209,1.914-2.222,3.697-2.222C177.718,246.163,179.5,247.791,179.5,250.982z"/>
		<path fill="#FFFFFF" d="M191.929,246.383v11.002h-2.068v-1.54c-0.638,1.034-1.804,1.761-3.322,1.761
			c-2.156,0-4.114-1.629-4.114-4.907v-6.315h2.068v6.008c0,2.178,1.122,3.322,2.684,3.322c1.541,0,2.685-1.145,2.685-3.322v-6.008
			H191.929z"/>
		<path fill="#FFFFFF" d="M204.689,251.07v6.314h-2.068v-6.007c0-2.179-1.122-3.322-2.685-3.322c-1.54,0-2.685,1.144-2.685,3.322
			v6.007h-2.068v-11.002h2.068v1.541c0.639-1.035,1.805-1.761,3.322-1.761C202.731,246.163,204.689,247.791,204.689,251.07z"/>
		<path fill="#FFFFFF" d="M207.789,242.885c0-0.77,0.595-1.387,1.408-1.387c0.814,0,1.408,0.617,1.408,1.387
			c0,0.814-0.594,1.43-1.408,1.43C208.384,244.314,207.789,243.699,207.789,242.885z M208.163,246.383h2.068v11.002h-2.068V246.383z
			"/>
		<path fill="#FFFFFF" d="M218.658,248.363h-2.267v9.021h-2.068v-9.021h-1.408v-1.98h1.408v-2.948h2.068v2.948h2.267V248.363z"/>
		<path fill="#FFFFFF" d="M220.615,242.885c0-0.77,0.595-1.387,1.408-1.387c0.814,0,1.408,0.617,1.408,1.387
			c0,0.814-0.594,1.43-1.408,1.43C221.21,244.314,220.615,243.699,220.615,242.885z M220.989,246.383h2.068v11.002h-2.068V246.383z"
			/>
		<path fill="#FFFFFF" d="M236.566,252.721h-8.405c0.33,1.738,1.694,2.838,3.587,2.838c1.452,0,2.574-0.462,3.631-1.188v2.091
			c-0.925,0.682-2.245,1.1-3.741,1.1c-3.498,0-5.61-2.596-5.61-5.677c0-3.058,2.156-5.655,5.391-5.655
			C234.851,246.229,236.809,249.244,236.566,252.721z M228.184,251.004h6.205c-0.309-1.606-1.431-2.707-3.015-2.707
			C229.702,248.297,228.514,249.42,228.184,251.004z"/>
		<path fill="#FFFFFF" d="M238.039,255.822l1.299-1.54c0.682,0.66,1.628,1.276,2.662,1.276c0.924,0,1.606-0.484,1.606-1.211
			c0-2.134-5.259-1.342-5.237-5.082c0-1.672,1.387-3.059,3.543-3.059c1.54-0.021,2.838,0.792,3.521,1.562l-1.21,1.518
			c-0.484-0.439-1.364-1.078-2.289-1.078c-0.836,0-1.43,0.44-1.43,1.101c-0.022,1.98,5.259,1.255,5.259,5.083
			c-0.022,1.805-1.54,3.168-3.829,3.168C240.548,257.561,238.941,256.834,238.039,255.822z"/>
	</g>
</g>
</svg>
