<?xml version="1.0" encoding="utf-8"?>
<!-- Generator: Adobe Illustrator 16.0.0, SVG Export Plug-In . SVG Version: 6.00 Build 0)  -->
<!DOCTYPE svg PUBLIC "-//W3C//DTD SVG 1.1//EN" "http://www.w3.org/Graphics/SVG/1.1/DTD/svg11.dtd">
<svg version="1.1" xmlns="http://www.w3.org/2000/svg" xmlns:xlink="http://www.w3.org/1999/xlink" x="0px" y="0px" width="360px"
	 height="360px" viewBox="0 0 360 360" enable-background="new 0 0 360 360" xml:space="preserve">
<g id="brown_background_for_context">
</g>
<g id="background_circles">
	<circle fill="#FFCE01" cx="180" cy="180.043" r="119.117"/>
</g>
<g id="white_imagery__x2B__text">
	<g>
		<rect x="66.021" y="115.292" fill="none" width="219.95" height="38.629"/>
		<path fill="#FFFFFF" d="M108.795,141.688h-4.752v-12.047H98.3v12.047h-4.753v-12.047h-2.145v-4.456h2.145v-4.819
			c0-3.234,1.519-5.281,4.621-5.281c1.354,0,2.706,0.363,3.465,0.759v4.819c-0.627-0.264-1.287-0.495-2.078-0.495
			c-0.727,0-1.255,0.462-1.255,1.419v3.598h10.495V141.688z M103.416,119.674c0-1.65,1.32-2.97,2.97-2.97
			c1.716,0,3.003,1.32,3.003,2.97s-1.287,3.003-3.003,3.003C104.736,122.678,103.416,121.325,103.416,119.674z"/>
		<path fill="#FFFFFF" d="M130.542,133.438c0,4.719-2.904,8.482-7.426,8.482c-2.112,0-3.763-0.924-4.918-2.31v2.079h-4.753v-26.404
			h4.753v11.948c1.155-1.386,2.806-2.311,4.918-2.311C127.638,124.922,130.542,128.685,130.542,133.438z M125.559,133.438
			c0-2.179-1.485-3.895-3.664-3.895c-2.178,0-3.696,1.815-3.696,3.895c0,2.046,1.519,3.895,3.696,3.895
			C124.073,137.332,125.559,135.583,125.559,133.438z"/>
		<path fill="#FFFFFF" d="M148.955,134.956h-11.32c0.561,1.782,2.145,2.739,4.191,2.739c1.849,0,3.564-0.528,5.215-1.32l0.033,4.258
			c-1.42,0.792-3.367,1.32-5.611,1.32c-5.379,0-8.581-3.862-8.581-8.515c0-4.588,3.235-8.516,8.218-8.516
			C146.48,124.922,149.418,129.51,148.955,134.956z M137.635,131.985h6.699c-0.461-1.65-1.683-2.673-3.234-2.673
			C139.384,129.312,138.097,130.401,137.635,131.985z"/>
		<path fill="#FFFFFF" d="M161.461,124.823v5.479c-2.111-0.462-4.588,0-4.588,3.399v7.987h-4.752v-16.502h4.752v2.476
			C157.896,126.077,159.48,124.823,161.461,124.823z"/>
		<path fill="#FFFFFF" d="M188.025,141.688c-0.33-0.429-0.692-0.858-1.056-1.32c-1.419,1.089-3.169,1.716-5.215,1.716
			c-4.423,0-7.888-2.508-7.888-6.502c0-3.135,1.947-4.917,4.125-6.238c-1.254-1.584-2.441-3.333-2.441-5.413
			c0-2.607,2.013-5.776,6.204-5.776c3.96,0,6.04,3.036,6.04,5.809c0,3.003-1.98,4.786-4.093,6.205l2.739,3.399
			c0.33-0.99,0.495-2.112,0.528-3.367h4.423c0,2.673-0.627,5.215-1.849,7.261c1.155,1.452,2.277,2.904,3.333,4.225H188.025z
			 M184.164,136.936c-1.254-1.551-2.508-3.037-3.696-4.522c-0.957,0.792-1.617,1.65-1.617,2.739c0,1.485,1.287,2.509,2.904,2.509
			C182.646,137.662,183.471,137.398,184.164,136.936z M181.393,127.364c1.254-0.792,2.145-1.65,2.145-2.838
			c0-0.924-0.627-1.848-1.782-1.848c-1.056,0-1.815,0.924-1.815,1.848C179.939,125.483,180.633,126.44,181.393,127.364z"/>
		<path fill="#FFFFFF" d="M211.42,121.588v3.598h3.334v4.456h-3.334v12.047h-4.752v-12.047h-2.145v-4.456h2.145v-4.819
			c0-3.234,1.518-5.281,4.621-5.281c1.354,0,2.707,0.363,3.465,0.759v4.819c-0.627-0.264-1.287-0.495-2.078-0.495
			C211.949,120.169,211.42,120.631,211.42,121.588z"/>
		<path fill="#FFFFFF" d="M232.146,125.186v16.502h-4.754v-1.98c-1.057,1.354-2.705,2.311-4.752,2.311
			c-3.168,0-5.611-2.376-5.611-6.832v-10h4.752v8.911c0,2.245,1.223,3.499,2.84,3.499c1.484,0,2.574-1.023,2.771-2.871v-9.539
			H232.146z"/>
		<path fill="#FFFFFF" d="M251.451,134.956h-11.322c0.562,1.782,2.146,2.739,4.193,2.739c1.848,0,3.564-0.528,5.215-1.32
			l0.031,4.258c-1.418,0.792-3.365,1.32-5.609,1.32c-5.381,0-8.582-3.862-8.582-8.515c0-4.588,3.234-8.516,8.219-8.516
			C248.975,124.922,251.912,129.51,251.451,134.956z M240.129,131.985h6.701c-0.463-1.65-1.684-2.673-3.234-2.673
			C241.879,129.312,240.592,130.401,240.129,131.985z"/>
		<path fill="#FFFFFF" d="M254.615,115.285h4.754v26.404h-4.754V115.285z"/>
	</g>
	<g>
		<rect x="82.808" y="221.314" fill="none" width="190.927" height="58.804"/>
		<path fill="#FFFFFF" d="M116.673,238.451c0,3.365-2.618,5.016-5.237,5.016c-1.672,0-2.97-0.483-4.18-1.166l0.021-2.178
			c1.232,0.857,2.641,1.386,3.938,1.386c2.024,0,3.433-1.144,3.433-3.587v-0.836c-0.857,1.188-2.156,1.98-3.807,1.98
			c-3.059,0-5.148-2.486-5.148-5.654c0-3.169,2.09-5.655,5.148-5.655c1.629,0,2.927,0.771,3.763,1.937v-1.782h2.046L116.673,238.451
			z M114.604,233.412c0-1.937-1.431-3.631-3.411-3.631c-1.979,0-3.365,1.629-3.365,3.631c0,2.023,1.386,3.652,3.365,3.652
			C113.174,237.064,114.604,235.348,114.604,233.412z"/>
		<path fill="#FFFFFF" d="M119.928,224.412c0-0.77,0.594-1.386,1.408-1.386c0.813,0,1.408,0.616,1.408,1.386
			c0,0.814-0.595,1.431-1.408,1.431C120.521,225.843,119.928,225.227,119.928,224.412z M120.301,227.911h2.068v11.001h-2.068
			V227.911z"/>
		<path fill="#FFFFFF" d="M135.263,227.911l-4.819,11.046h-1.32l-4.862-11.046h2.245l3.277,7.987l3.257-7.987H135.263z"/>
		<path fill="#FFFFFF" d="M136.757,224.412c0-0.77,0.594-1.386,1.408-1.386c0.813,0,1.408,0.616,1.408,1.386
			c0,0.814-0.595,1.431-1.408,1.431C137.351,225.843,136.757,225.227,136.757,224.412z M137.131,227.911h2.068v11.001h-2.068
			V227.911z"/>
		<path fill="#FFFFFF" d="M152.355,232.598v6.314h-2.068v-6.006c0-2.179-1.121-3.323-2.684-3.323c-1.541,0-2.685,1.145-2.685,3.323
			v6.006h-2.068v-11.001h2.068v1.54c0.638-1.034,1.804-1.76,3.322-1.76C150.397,227.691,152.355,229.319,152.355,232.598z"/>
		<path fill="#FFFFFF" d="M165.622,238.451c0,3.365-2.618,5.016-5.237,5.016c-1.672,0-2.97-0.483-4.18-1.166l0.021-2.178
			c1.232,0.857,2.641,1.386,3.938,1.386c2.024,0,3.433-1.144,3.433-3.587v-0.836c-0.857,1.188-2.156,1.98-3.807,1.98
			c-3.059,0-5.148-2.486-5.148-5.654c0-3.169,2.09-5.655,5.148-5.655c1.629,0,2.927,0.771,3.763,1.937v-1.782h2.046L165.622,238.451
			z M163.554,233.412c0-1.937-1.431-3.631-3.411-3.631c-1.979,0-3.365,1.629-3.365,3.631c0,2.023,1.386,3.652,3.365,3.652
			C162.123,237.064,163.554,235.348,163.554,233.412z"/>
		<path fill="#FFFFFF" d="M192.529,227.911l-5.611,11.046h-1.54l-2.003-4.049l-1.979,4.049h-1.562l-5.589-11.046h2.2l4.225,8.515
			l1.694-3.432l-2.553-5.083h2.113l1.451,3.169l1.475-3.169h2.112l-2.574,5.061l1.738,3.454l4.202-8.515H192.529z"/>
		<path fill="#FFFFFF" d="M204.013,227.911v11.001h-2.068v-1.76c-0.858,1.145-2.135,1.914-3.763,1.914
			c-3.059,0-5.148-2.486-5.148-5.654c0-3.169,2.09-5.655,5.148-5.655c1.628,0,2.904,0.771,3.763,1.915v-1.761H204.013z
			 M201.944,233.412c0-1.937-1.431-3.631-3.41-3.631c-1.98,0-3.367,1.629-3.367,3.631c0,2.023,1.387,3.652,3.367,3.652
			C200.514,237.064,201.944,235.348,201.944,233.412z"/>
		<path fill="#FFFFFF" d="M212.548,227.691v2.441c-1.562-0.264-3.168,0.572-3.168,2.949l-0.022-0.088v5.918h-2.068v-11.001h2.068
			v1.892C209.952,228.682,211.074,227.691,212.548,227.691z"/>
		<path fill="#FFFFFF" d="M231.008,232.51l-0.022,6.402h-2.068v-6.051c0-1.98-0.99-3.256-2.552-3.256
			c-1.585,0-2.575,1.275-2.575,3.322v5.984h-2.067v-6.051c0-1.98-1.013-3.256-2.575-3.256c-1.562,0-2.552,1.275-2.552,3.322
			l-0.022-0.066v6.051h-2.068v-11.001h2.068v1.496c0.616-0.968,1.717-1.716,3.213-1.716c1.43,0,2.772,0.748,3.477,2.222
			c0.682-1.21,1.914-2.222,3.696-2.222C229.226,227.691,231.008,229.319,231.008,232.51z"/>
		<path fill="#FFFFFF" d="M238.86,229.891h-2.267v9.021h-2.068v-9.021h-1.408v-1.979h1.408v-2.948h2.068v2.948h2.267V229.891z"/>
		<path fill="#FFFFFF" d="M250.345,232.598v6.314h-2.068v-6.006c0-2.179-1.122-3.323-2.684-3.323c-1.541,0-2.685,1.145-2.685,3.323
			l-0.022-0.088v6.094h-2.068v-17.602h2.068v8.162c0.639-1.033,1.805-1.781,3.345-1.781
			C248.387,227.691,250.345,229.319,250.345,232.598z"/>
		<path fill="#FFFFFF" d="M144.559,261.912c-0.353-0.439-0.705-0.857-1.078-1.298c-0.969,0.946-2.223,1.54-3.785,1.54
			c-2.662,0-4.906-1.605-4.906-4.202c0-2.156,1.363-3.323,2.859-4.247c-0.901-1.078-1.914-2.376-1.914-3.784
			c0-1.673,1.232-3.696,3.917-3.696c2.509,0,3.829,1.914,3.829,3.696c0,2.003-1.453,3.146-2.993,4.137
			c0.726,0.858,1.694,2.046,2.751,3.322c0.33-0.88,0.483-1.937,0.483-3.146h2.003c0.021,1.738-0.353,3.454-1.101,4.841l2.311,2.838
			H144.559z M142.226,259.118c-1.166-1.364-2.332-2.729-3.41-4.005c-1.056,0.727-1.893,1.519-1.893,2.662
			c0,1.475,1.343,2.377,2.794,2.377C140.752,260.152,141.588,259.778,142.226,259.118z M139.344,252.693
			c1.166-0.704,2.09-1.452,2.09-2.685c0-0.924-0.66-1.782-1.782-1.782c-1.034,0-1.804,0.858-1.804,1.805
			C137.848,250.977,138.639,251.879,139.344,252.693z"/>
		<path fill="#FFFFFF" d="M165.965,257.248h-8.406c0.33,1.738,1.695,2.838,3.587,2.838c1.452,0,2.574-0.462,3.63-1.188v2.09
			c-0.924,0.682-2.244,1.101-3.74,1.101c-3.498,0-5.61-2.597-5.61-5.677c0-3.059,2.156-5.655,5.391-5.655
			C164.248,250.757,166.206,253.771,165.965,257.248z M157.581,255.531h6.204c-0.307-1.605-1.43-2.706-3.014-2.706
			C159.1,252.825,157.911,253.947,157.581,255.531z"/>
		<path fill="#FFFFFF" d="M177.998,255.598v6.314h-2.068v-6.006c0-2.179-1.122-3.323-2.685-3.323c-1.54,0-2.685,1.145-2.685,3.323
			v6.006h-2.068v-11.001h2.068v1.54c0.639-1.034,1.805-1.76,3.322-1.76C176.039,250.691,177.998,252.319,177.998,255.598z"/>
		<path fill="#FFFFFF" d="M190.824,257.248h-8.405c0.33,1.738,1.694,2.838,3.587,2.838c1.451,0,2.574-0.462,3.63-1.188v2.09
			c-0.924,0.682-2.244,1.101-3.74,1.101c-3.499,0-5.61-2.597-5.61-5.677c0-3.059,2.156-5.655,5.391-5.655
			C189.107,250.757,191.066,253.771,190.824,257.248z M182.441,255.531h6.204c-0.308-1.605-1.431-2.706-3.015-2.706
			C183.959,252.825,182.771,253.947,182.441,255.531z"/>
		<path fill="#FFFFFF" d="M198.611,250.691v2.441c-1.562-0.264-3.168,0.572-3.168,2.949l-0.022-0.088v5.918h-2.068v-11.001h2.068
			v1.892C196.016,251.682,197.138,250.691,198.611,250.691z"/>
		<path fill="#FFFFFF" d="M210.427,261.451c0,3.365-2.618,5.016-5.236,5.016c-1.673,0-2.971-0.483-4.181-1.166l0.021-2.178
			c1.232,0.857,2.641,1.386,3.938,1.386c2.024,0,3.433-1.144,3.433-3.587v-0.836c-0.858,1.188-2.156,1.98-3.807,1.98
			c-3.059,0-5.148-2.486-5.148-5.654c0-3.169,2.09-5.655,5.148-5.655c1.628,0,2.927,0.771,3.763,1.937v-1.782h2.046L210.427,261.451
			z M208.358,256.412c0-1.937-1.431-3.631-3.41-3.631c-1.98,0-3.367,1.629-3.367,3.631c0,2.023,1.387,3.652,3.367,3.652
			C206.928,260.064,208.358,258.348,208.358,256.412z"/>
		<path fill="#FFFFFF" d="M223.429,250.911l-6.447,15.402h-2.112l1.937-4.489l-4.577-10.913h2.244l3.367,8.581l3.344-8.581H223.429z
			"/>
	</g>
	<g>
		<path fill="#FFFFFF" d="M179.527,192.727l1.506-0.108l-0.149,23.959c-0.922,0.726-2.024-0.132-2.612-0.6L179.527,192.727z"/>
		<path fill="#FFFFFF" d="M167.295,181.64c0.636,4.074,5.354,15.25,10.118,11.478C181.734,189.032,171.287,181.226,167.295,181.64z"
			/>
		<path fill="#FFFFFF" d="M168.809,170.565c-0.273,4.349,5.513,14.954,10.149,12.032
			C183.231,178.558,173.265,169.713,168.809,170.565z"/>
		<path fill="#FFFFFF" d="M171.759,159.154c-0.012,3.08,2.013,14.96,7.695,12.161C183.038,166.759,179.821,166.292,171.759,159.154z
			"/>
		<path fill="#FFFFFF" d="M182.177,149.307c-2.307,1.888-6.545,11.009-0.955,12.593
			C185.887,162.662,184.628,152.981,182.177,149.307z"/>
		<path fill="#FFFFFF" d="M190.678,159.537c-3.567,1.327-10.887,7.806-8.346,10.958
			C187.489,174.825,190.727,163.144,190.678,159.537z"/>
		<path fill="#FFFFFF" d="M192.981,171.095c-4.03,1.764-14.414,5.352-10.616,10.904C188.783,187.046,191.113,174.76,192.981,171.095
			z"/>
		<path fill="#FFFFFF" d="M193.637,182.458c-6.372,2.53-15.124,6.259-10.382,11.274C187.994,198.897,192.94,185.746,193.637,182.458
			z"/>
	</g>
</g>
</svg>
