<?xml version="1.0" encoding="utf-8"?>
<!-- Generator: Adobe Illustrator 16.0.0, SVG Export Plug-In . SVG Version: 6.00 Build 0)  -->
<!DOCTYPE svg PUBLIC "-//W3C//DTD SVG 1.1//EN" "http://www.w3.org/Graphics/SVG/1.1/DTD/svg11.dtd">
<svg version="1.1" xmlns="http://www.w3.org/2000/svg" xmlns:xlink="http://www.w3.org/1999/xlink" x="0px" y="0px" width="360px"
	 height="360px" viewBox="0 0 360 360" enable-background="new 0 0 360 360" xml:space="preserve">
<g id="brown_background_for_context">
</g>
<g id="background_circles">
	<circle fill="#F27243" cx="180" cy="180" r="119.116"/>
</g>
<g id="white_imagery__x2B__text">
	<g>
		<g>
			<path fill="#FFFFFF" d="M184.518,235.725h34.357c0,0,20.289,0,20.289-23.264c0-22.455-18.936-22.455-18.936-22.455h-35.439
				L184.518,235.725z"/>
			<path fill="none" stroke="#FFFFFF" stroke-width="4" stroke-miterlimit="10" d="M149.894,236.127h69.255
				c0,0,20.288,0,20.288-23.263c0-22.455-18.938-22.455-18.938-22.455h-70.604c0,0-20.288,0-20.288,22.455
				C129.605,236.127,149.894,236.127,149.894,236.127z"/>
			
				<line fill="none" stroke="#F27243" stroke-width="5" stroke-linecap="round" stroke-miterlimit="10" x1="192.367" y1="228.47" x2="215.092" y2="228.47"/>
			
				<line fill="none" stroke="#F27243" stroke-width="5" stroke-linecap="round" stroke-miterlimit="10" x1="221.854" y1="228.47" x2="223.482" y2="228.47"/>
		</g>
		<g>
			<path fill="#FFFFFF" d="M173.148,182.676l23.704-24.868c0,0,14.003-14.688-2.84-30.737c-16.255-15.495-29.317-1.786-29.317-1.786
				l-24.453,25.65L173.148,182.676z"/>
			<path fill="#F27243" d="M141.642,149.559l-23.705,24.87c0,0-13.999,14.685,2.84,30.735c16.256,15.492,29.321,1.786,29.321,1.786
				l24.45-25.652L141.642,149.559z"/>
			<path fill="none" stroke="#FFFFFF" stroke-width="4" stroke-miterlimit="10" d="M149.553,208.021l47.779-50.133
				c0,0,13.998-14.685-2.841-30.736c-16.255-15.494-29.321-1.784-29.321-1.784l-48.713,51.107c0,0-13.998,14.687,2.256,30.179
				C135.553,222.706,149.553,208.021,149.553,208.021z"/>
			
				<line fill="none" stroke="#F27243" stroke-width="5" stroke-linecap="round" stroke-miterlimit="10" x1="174.593" y1="172.304" x2="190.27" y2="155.855"/>
			
				<line fill="none" stroke="#F27243" stroke-width="5" stroke-linecap="round" stroke-miterlimit="10" x1="195.535" y1="150.327" x2="196.332" y2="149.494"/>
		</g>
	</g>
</g>
</svg>
