<?xml version="1.0" encoding="utf-8"?>
<!-- Generator: Adobe Illustrator 16.0.0, SVG Export Plug-In . SVG Version: 6.00 Build 0)  -->
<!DOCTYPE svg PUBLIC "-//W3C//DTD SVG 1.1//EN" "http://www.w3.org/Graphics/SVG/1.1/DTD/svg11.dtd">
<svg version="1.1" xmlns="http://www.w3.org/2000/svg" xmlns:xlink="http://www.w3.org/1999/xlink" x="0px" y="0px" width="360px"
	 height="360px" viewBox="0 0 360 360" enable-background="new 0 0 360 360" xml:space="preserve">
<g id="brown_background_for_context">
</g>
<g id="background_circles">
	<circle fill="#FFCE01" cx="180" cy="179.604" r="119.116"/>
</g>
<g id="white_imagery__x2B__text">
	<g>
		<path fill="#FFFFFF" d="M177.468,205.052l3.6-0.259l-0.355,57.283c-2.204,1.734-4.841-0.315-6.246-1.433L177.468,205.052z"/>
		<path fill="#FFFFFF" d="M148.221,178.545c1.521,9.741,12.803,36.46,24.191,27.441C182.745,196.22,157.768,177.557,148.221,178.545
			z"/>
		<path fill="#FFFFFF" d="M151.84,152.065c-0.652,10.398,13.182,35.753,24.267,28.769
			C186.324,171.177,162.493,150.031,151.84,152.065z"/>
		<path fill="#FFFFFF" d="M158.894,124.785c-0.027,7.363,4.812,35.768,18.398,29.074
			C185.86,142.966,178.169,141.852,158.894,124.785z"/>
		<path fill="#FFFFFF" d="M183.803,101.24c-5.516,4.515-15.648,26.32-2.284,30.108C192.673,133.171,189.662,110.026,183.803,101.24z
			"/>
		<path fill="#FFFFFF" d="M204.128,125.699c-8.531,3.173-26.029,18.664-19.955,26.199
			C196.503,162.253,204.244,134.323,204.128,125.699z"/>
		<path fill="#FFFFFF" d="M209.636,153.334c-9.638,4.219-34.463,12.797-25.383,26.071
			C199.597,191.471,205.168,162.098,209.636,153.334z"/>
		<path fill="#FFFFFF" d="M211.2,180.503c-15.234,6.048-36.158,14.962-24.82,26.954C197.711,219.806,209.537,188.363,211.2,180.503z
			"/>
	</g>
</g>
</svg>
